STARTFONT 2.1
COMMENT
COMMENT Converted from OpenType font "NotoSansJP-Medium.otf" by "otf2bdf 3.0".
COMMENT
FONT -FreeType-Noto Sans JP Medium-Medium-R-Normal--25-180-100-100-P-223-ISO10646-1
SIZE 18 100 100
FONTBOUNDINGBOX 86 47 -25 -13
STARTPROPERTIES 19
FOUNDRY "FreeType"
FAMILY_NAME "Noto Sans JP Medium"
WEIGHT_NAME "Medium"
SLANT "R"
SETWIDTH_NAME "Normal"
ADD_STYLE_NAME ""
PIXEL_SIZE 25
POINT_SIZE 180
RESOLUTION_X 100
RESOLUTION_Y 100
SPACING "P"
AVERAGE_WIDTH 223
CHARSET_REGISTRY "ISO10646"
CHARSET_ENCODING "1"
FONT_ASCENT 29
FONT_DESCENT 7
COPYRIGHT "© 2014-2020 Adobe (http://www.adobe.com/)."
_OTF_FONTFILE "NotoSansJP-Medium.otf"
_OTF_PSNAME "NotoSansJP-Medium"
ENDPROPERTIES
CHARS 16079
STARTCHAR 0020
ENCODING 32
SWIDTH 240 0
DWIDTH 6 0
BBX 0 0 0 0
BITMAP
ENDCHAR
STARTCHAR 0021
ENCODING 33
SWIDTH 360 0
DWIDTH 9 0
BBX 4 19 2 0
BITMAP
70
70
70
70
70
70
60
60
60
60
60
60
60
00
00
70
F0
F0
70
ENDCHAR
STARTCHAR 0022
ENCODING 34
SWIDTH 520 0
DWIDTH 13 0
BBX 9 8 2 11
BITMAP
E380
E380
E380
E380
E300
6300
6300
6300
ENDCHAR
STARTCHAR 0023
ENCODING 35
SWIDTH 560 0
DWIDTH 14 0
BBX 12 18 1 0
BITMAP
0860
0860
1840
1840
18C0
7FF0
7FF0
18C0
10C0
30C0
FFF0
FFF0
3180
3180
3180
3180
2180
2180
ENDCHAR
STARTCHAR 0024
ENCODING 36
SWIDTH 560 0
DWIDTH 14 0
BBX 11 24 2 -3
BITMAP
0C00
0C00
0C00
3F80
7FC0
F1C0
E000
E000
E000
F000
7C00
3F00
0F80
03C0
01C0
00E0
00E0
81C0
F3C0
FF80
3F00
0C00
0C00
0C00
ENDCHAR
STARTCHAR 0025
ENCODING 37
SWIDTH 920 0
DWIDTH 23 0
BBX 22 19 1 0
BITMAP
3C0100
7E0300
E30200
C30600
C30C00
C38C00
C31800
C318C0
C333F0
673338
7E6618
1C6618
00C61C
00C61C
018618
010618
030318
0203F0
0601E0
ENDCHAR
STARTCHAR 0026
ENCODING 38
SWIDTH 720 0
DWIDTH 18 0
BBX 16 19 1 0
BITMAP
0780
1FC0
18C0
38E0
38C0
38C0
39C0
1F80
1E00
3E07
7F06
F70E
E38C
E1FC
E0F8
E078
71FF
7FCF
1F03
ENDCHAR
STARTCHAR 0027
ENCODING 39
SWIDTH 280 0
DWIDTH 7 0
BBX 3 8 2 11
BITMAP
E0
E0
E0
E0
E0
60
60
60
ENDCHAR
STARTCHAR 0028
ENCODING 40
SWIDTH 360 0
DWIDTH 9 0
BBX 6 25 2 -4
BITMAP
1C
18
38
30
70
60
60
60
E0
E0
E0
E0
E0
E0
E0
E0
60
60
60
70
30
30
18
18
08
ENDCHAR
STARTCHAR 0029
ENCODING 41
SWIDTH 360 0
DWIDTH 9 0
BBX 6 25 1 -4
BITMAP
E0
60
70
30
30
38
18
18
18
1C
1C
1C
1C
1C
1C
18
18
18
38
38
30
70
60
60
40
ENDCHAR
STARTCHAR 002A
ENCODING 42
SWIDTH 480 0
DWIDTH 12 0
BBX 8 9 2 11
BITMAP
18
18
18
FF
7E
3C
7E
66
02
ENDCHAR
STARTCHAR 002B
ENCODING 43
SWIDTH 560 0
DWIDTH 14 0
BBX 12 12 1 3
BITMAP
0600
0600
0600
0600
0600
FFF0
FFF0
0600
0600
0600
0600
0600
ENDCHAR
STARTCHAR 002C
ENCODING 44
SWIDTH 280 0
DWIDTH 7 0
BBX 5 9 1 -5
BITMAP
30
78
78
78
18
18
30
E0
40
ENDCHAR
STARTCHAR 002D
ENCODING 45
SWIDTH 360 0
DWIDTH 9 0
BBX 7 2 1 6
BITMAP
FE
FE
ENDCHAR
STARTCHAR 002E
ENCODING 46
SWIDTH 280 0
DWIDTH 7 0
BBX 4 4 2 0
BITMAP
E0
F0
F0
E0
ENDCHAR
STARTCHAR 002F
ENCODING 47
SWIDTH 400 0
DWIDTH 10 0
BBX 8 24 1 -4
BITMAP
03
03
03
06
06
06
0C
0C
0C
0C
18
18
18
30
30
30
30
60
60
60
C0
C0
C0
C0
ENDCHAR
STARTCHAR 0030
ENCODING 48
SWIDTH 560 0
DWIDTH 14 0
BBX 12 19 1 0
BITMAP
0F00
3FC0
39E0
70E0
7060
6070
E070
E070
E070
E070
E070
E070
E070
6070
7060
70E0
39E0
3FC0
0F00
ENDCHAR
STARTCHAR 0031
ENCODING 49
SWIDTH 560 0
DWIDTH 14 0
BBX 11 19 2 0
BITMAP
0E00
7E00
7E00
0E00
0E00
0E00
0E00
0E00
0E00
0E00
0E00
0E00
0E00
0E00
0E00
0E00
0E00
FFE0
FFE0
ENDCHAR
STARTCHAR 0032
ENCODING 50
SWIDTH 560 0
DWIDTH 14 0
BBX 12 19 1 0
BITMAP
1F00
7FC0
F3C0
40E0
00E0
00E0
00E0
00E0
00E0
01C0
03C0
0380
0700
0E00
1E00
3C00
7800
FFF0
FFF0
ENDCHAR
STARTCHAR 0033
ENCODING 51
SWIDTH 560 0
DWIDTH 14 0
BBX 12 19 1 0
BITMAP
1F00
7FC0
79E0
40E0
00E0
00E0
00E0
01C0
1F80
1F80
01E0
00E0
0070
0070
0070
C0F0
F3E0
7FC0
1F00
ENDCHAR
STARTCHAR 0034
ENCODING 52
SWIDTH 560 0
DWIDTH 14 0
BBX 13 19 0 0
BITMAP
00E0
01E0
03E0
0360
07E0
0EE0
0EE0
1CE0
18E0
38E0
70E0
70E0
FFF8
FFF8
00E0
00E0
00E0
00E0
00E0
ENDCHAR
STARTCHAR 0035
ENCODING 53
SWIDTH 560 0
DWIDTH 14 0
BBX 12 19 1 0
BITMAP
3FE0
3FE0
3000
7000
7000
7000
7000
7F80
7FC0
31E0
00F0
0070
0070
0070
0070
C0E0
F3E0
7FC0
1F00
ENDCHAR
STARTCHAR 0036
ENCODING 54
SWIDTH 560 0
DWIDTH 14 0
BBX 12 19 1 0
BITMAP
07C0
1FE0
3EE0
3800
7000
7000
6000
E780
EFE0
F8E0
F070
E070
E070
6070
7070
7070
38E0
1FC0
0F80
ENDCHAR
STARTCHAR 0037
ENCODING 55
SWIDTH 560 0
DWIDTH 14 0
BBX 12 19 1 0
BITMAP
FFF0
FFF0
0070
00E0
00C0
01C0
0380
0380
0300
0700
0700
0600
0E00
0E00
0E00
0E00
0E00
0E00
0E00
ENDCHAR
STARTCHAR 0038
ENCODING 56
SWIDTH 560 0
DWIDTH 14 0
BBX 12 19 1 0
BITMAP
0F80
3FC0
78E0
7060
7060
7060
7060
38E0
1FC0
1F80
33E0
60E0
E070
E070
E070
E070
70E0
3FE0
1F80
ENDCHAR
STARTCHAR 0039
ENCODING 57
SWIDTH 560 0
DWIDTH 14 0
BBX 12 19 1 0
BITMAP
1F00
3F80
79C0
60E0
E060
E060
E070
E070
E070
71F0
7FF0
1E70
0070
0060
00E0
00E0
73C0
7F80
3E00
ENDCHAR
STARTCHAR 003A
ENCODING 58
SWIDTH 280 0
DWIDTH 7 0
BBX 4 14 2 0
BITMAP
E0
F0
F0
E0
00
00
00
00
00
00
E0
F0
F0
E0
ENDCHAR
STARTCHAR 003B
ENCODING 59
SWIDTH 280 0
DWIDTH 7 0
BBX 5 18 1 -5
BITMAP
70
78
78
70
00
00
00
00
00
30
78
78
78
18
18
30
E0
40
ENDCHAR
STARTCHAR 003C
ENCODING 60
SWIDTH 560 0
DWIDTH 14 0
BBX 12 11 1 3
BITMAP
0010
00F0
03F0
1F80
7E00
F000
F000
7E00
0FC0
03F0
0070
ENDCHAR
STARTCHAR 003D
ENCODING 61
SWIDTH 560 0
DWIDTH 14 0
BBX 12 8 1 5
BITMAP
FFF0
FFF0
0000
0000
0000
0000
FFF0
FFF0
ENDCHAR
STARTCHAR 003E
ENCODING 62
SWIDTH 560 0
DWIDTH 14 0
BBX 12 12 1 3
BITMAP
8000
F000
FC00
1F80
03E0
00F0
00F0
07E0
3F00
FC00
E000
8000
ENDCHAR
STARTCHAR 003F
ENCODING 63
SWIDTH 480 0
DWIDTH 12 0
BBX 9 19 2 0
BITMAP
7E00
FF00
C780
0380
0380
0380
0700
0700
0E00
1C00
1800
3800
3800
0000
0000
3800
3C00
3C00
3800
ENDCHAR
STARTCHAR 0040
ENCODING 64
SWIDTH 960 0
DWIDTH 24 0
BBX 22 24 1 -5
BITMAP
007F00
01FFC0
0780E0
0E0070
1C0038
380018
303B18
70FF0C
61C70C
61860C
63860C
C3060C
C3060C
C30E18
E38E18
61FE30
60E7E0
6003C0
700000
380000
1C0000
0F0300
07FF00
00F800
ENDCHAR
STARTCHAR 0041
ENCODING 65
SWIDTH 640 0
DWIDTH 16 0
BBX 15 19 0 0
BITMAP
03C0
03C0
07C0
06E0
06E0
0E60
0E70
0C70
1C70
1C38
1838
3FF8
3FF8
301C
701C
700C
700E
E00E
E00E
ENDCHAR
STARTCHAR 0042
ENCODING 66
SWIDTH 680 0
DWIDTH 17 0
BBX 14 19 2 0
BITMAP
FFC0
FFE0
E0F0
E070
E038
E038
E070
E0F0
FFE0
FFE0
E078
E038
E01C
E01C
E01C
E038
E0F8
FFF0
FFC0
ENDCHAR
STARTCHAR 0043
ENCODING 67
SWIDTH 640 0
DWIDTH 16 0
BBX 14 19 1 0
BITMAP
03E0
0FF8
1FFC
3C08
7800
7000
7000
7000
E000
E000
E000
7000
7000
7000
7800
3C0C
1FFC
0FF8
03E0
ENDCHAR
STARTCHAR 0044
ENCODING 68
SWIDTH 680 0
DWIDTH 17 0
BBX 14 19 2 0
BITMAP
FF80
FFE0
E3F0
E078
E038
E03C
E01C
E01C
E01C
E01C
E01C
E01C
E01C
E038
E038
E078
E3F0
FFE0
FF80
ENDCHAR
STARTCHAR 0045
ENCODING 69
SWIDTH 600 0
DWIDTH 15 0
BBX 12 19 2 0
BITMAP
FFE0
FFE0
E000
E000
E000
E000
E000
E000
FFC0
FFC0
E000
E000
E000
E000
E000
E000
E000
FFF0
FFF0
ENDCHAR
STARTCHAR 0046
ENCODING 70
SWIDTH 560 0
DWIDTH 14 0
BBX 11 19 2 0
BITMAP
FFE0
FFE0
E000
E000
E000
E000
E000
E000
E000
FFC0
FFC0
E000
E000
E000
E000
E000
E000
E000
E000
ENDCHAR
STARTCHAR 0047
ENCODING 71
SWIDTH 720 0
DWIDTH 18 0
BBX 15 19 1 0
BITMAP
03F0
0FFC
1FFC
3C0C
7800
7000
7000
7000
E000
E0FE
E0FE
700E
700E
700E
780E
3C0E
1FFE
0FFC
03F0
ENDCHAR
STARTCHAR 0048
ENCODING 72
SWIDTH 760 0
DWIDTH 19 0
BBX 14 19 2 0
BITMAP
E01C
E01C
E01C
E01C
E01C
E01C
E01C
E01C
FFFC
FFFC
FFFC
E01C
E01C
E01C
E01C
E01C
E01C
E01C
E01C
ENDCHAR
STARTCHAR 0049
ENCODING 73
SWIDTH 320 0
DWIDTH 8 0
BBX 3 19 2 0
BITMAP
E0
E0
E0
E0
E0
E0
E0
E0
E0
E0
E0
E0
E0
E0
E0
E0
E0
E0
E0
ENDCHAR
STARTCHAR 004A
ENCODING 74
SWIDTH 560 0
DWIDTH 14 0
BBX 10 19 1 0
BITMAP
00C0
00C0
00C0
00C0
00C0
00C0
00C0
00C0
00C0
00C0
00C0
00C0
00C0
01C0
01C0
E1C0
FFC0
7F80
3F00
ENDCHAR
STARTCHAR 004B
ENCODING 75
SWIDTH 680 0
DWIDTH 17 0
BBX 14 19 2 0
BITMAP
E038
E070
E0F0
E0E0
E1C0
E380
E780
E700
EF80
FF80
FDC0
F9C0
F0E0
E0E0
E070
E078
E038
E03C
E01C
ENDCHAR
STARTCHAR 004C
ENCODING 76
SWIDTH 560 0
DWIDTH 14 0
BBX 11 19 2 0
BITMAP
E000
E000
E000
E000
E000
E000
E000
E000
E000
E000
E000
E000
E000
E000
E000
E000
E000
FFE0
FFE0
ENDCHAR
STARTCHAR 004D
ENCODING 77
SWIDTH 840 0
DWIDTH 21 0
BBX 16 19 2 0
BITMAP
F007
F00F
F80F
F80F
F81F
FC1B
EC1B
EC3B
EE33
E633
E673
E763
E363
E3C3
E1C3
E1C3
E183
E003
E003
ENDCHAR
STARTCHAR 004E
ENCODING 78
SWIDTH 720 0
DWIDTH 18 0
BBX 14 19 2 0
BITMAP
F01C
F01C
F81C
F81C
FC1C
EC1C
EE1C
E61C
E71C
E39C
E39C
E1DC
E1DC
E0FC
E0FC
E07C
E03C
E03C
E01C
ENDCHAR
STARTCHAR 004F
ENCODING 79
SWIDTH 760 0
DWIDTH 19 0
BBX 16 19 1 0
BITMAP
03E0
0FF8
1FFC
3C1E
780E
7007
7007
7007
E007
E007
E007
7007
7007
7007
780E
3C1E
1FFC
0FF8
07E0
ENDCHAR
STARTCHAR 0050
ENCODING 80
SWIDTH 640 0
DWIDTH 16 0
BBX 13 19 2 0
BITMAP
FF80
FFE0
E1F0
E078
E038
E038
E038
E038
E078
E1F0
FFE0
FF80
E000
E000
E000
E000
E000
E000
E000
ENDCHAR
STARTCHAR 0051
ENCODING 81
SWIDTH 760 0
DWIDTH 19 0
BBX 17 23 1 -4
BITMAP
03E000
0FF800
1FFC00
3C1E00
780E00
700700
700700
700700
E00700
E00700
E00700
700700
700700
700700
780E00
381E00
1E3C00
0FF800
07F000
01C000
00F000
007F80
003F80
ENDCHAR
STARTCHAR 0052
ENCODING 82
SWIDTH 640 0
DWIDTH 16 0
BBX 13 19 2 0
BITMAP
FFC0
FFF0
E0F0
E038
E038
E038
E038
E038
E070
FFF0
FFC0
E3C0
E1C0
E1E0
E0E0
E070
E070
E038
E038
ENDCHAR
STARTCHAR 0053
ENCODING 83
SWIDTH 600 0
DWIDTH 15 0
BBX 13 19 1 0
BITMAP
0FC0
1FF0
3FF0
7030
7000
7000
7800
3C00
3F80
0FE0
03F0
00F8
0038
0038
0038
6038
FFF0
3FE0
0FC0
ENDCHAR
STARTCHAR 0054
ENCODING 84
SWIDTH 600 0
DWIDTH 15 0
BBX 13 19 1 0
BITMAP
FFF8
FFF8
0700
0700
0700
0700
0700
0700
0700
0700
0700
0700
0700
0700
0700
0700
0700
0700
0700
ENDCHAR
STARTCHAR 0055
ENCODING 85
SWIDTH 720 0
DWIDTH 18 0
BBX 14 19 2 0
BITMAP
E01C
E01C
E01C
E01C
E01C
E01C
E01C
E01C
E01C
E01C
E01C
E01C
E01C
601C
703C
7838
3FF8
1FF0
0FC0
ENDCHAR
STARTCHAR 0056
ENCODING 86
SWIDTH 600 0
DWIDTH 15 0
BBX 15 19 0 0
BITMAP
E00E
E00C
701C
701C
701C
3838
3838
3838
1830
1C70
1C70
1C60
0C60
0EE0
0EE0
06C0
07C0
07C0
0380
ENDCHAR
STARTCHAR 0057
ENCODING 87
SWIDTH 880 0
DWIDTH 22 0
BBX 21 19 1 0
BITMAP
E07038
E07030
E0F030
E0F070
E0F870
70F870
71D860
719860
719CE0
719CE0
338CE0
3B8CE0
3B0CC0
3B0EC0
3B0EC0
1F07C0
1E07C0
1E0780
1E0780
ENDCHAR
STARTCHAR 0058
ENCODING 88
SWIDTH 600 0
DWIDTH 15 0
BBX 13 19 1 0
BITMAP
E038
7070
7070
38E0
38E0
1DC0
1DC0
0F80
0F80
0700
0F80
1F80
1DC0
39E0
38E0
70F0
7070
E038
E038
ENDCHAR
STARTCHAR 0059
ENCODING 89
SWIDTH 560 0
DWIDTH 14 0
BBX 14 19 0 0
BITMAP
E01C
7038
7038
3870
3870
3860
1CE0
1CC0
0FC0
0F80
0780
0700
0700
0700
0700
0700
0700
0700
0700
ENDCHAR
STARTCHAR 005A
ENCODING 90
SWIDTH 600 0
DWIDTH 15 0
BBX 13 19 1 0
BITMAP
7FF8
7FF8
0078
0070
00E0
01E0
01C0
0380
0380
0700
0F00
0E00
1C00
1C00
3800
7000
7000
FFF8
FFF8
ENDCHAR
STARTCHAR 005B
ENCODING 91
SWIDTH 360 0
DWIDTH 9 0
BBX 5 24 3 -4
BITMAP
F8
F8
C0
C0
C0
C0
C0
C0
C0
C0
C0
C0
C0
C0
C0
C0
C0
C0
C0
C0
C0
C0
F8
F8
ENDCHAR
STARTCHAR 005C
ENCODING 92
SWIDTH 400 0
DWIDTH 10 0
BBX 8 24 1 -4
BITMAP
C0
C0
C0
C0
60
60
60
30
30
30
30
18
18
18
0C
0C
0C
0C
06
06
06
03
03
03
ENDCHAR
STARTCHAR 005D
ENCODING 93
SWIDTH 360 0
DWIDTH 9 0
BBX 5 24 1 -4
BITMAP
F8
F8
18
18
18
18
18
18
18
18
18
18
18
18
18
18
18
18
18
18
18
18
F8
F8
ENDCHAR
STARTCHAR 005E
ENCODING 94
SWIDTH 560 0
DWIDTH 14 0
BBX 10 11 2 8
BITMAP
0E00
1E00
1E00
1F00
3300
3380
7180
6180
61C0
E0C0
C0C0
ENDCHAR
STARTCHAR 005F
ENCODING 95
SWIDTH 560 0
DWIDTH 14 0
BBX 14 2 0 -4
BITMAP
FFFC
FFFC
ENDCHAR
STARTCHAR 0060
ENCODING 96
SWIDTH 600 0
DWIDTH 15 0
BBX 6 6 3 16
BITMAP
60
F0
78
38
1C
08
ENDCHAR
STARTCHAR 0061
ENCODING 97
SWIDTH 560 0
DWIDTH 14 0
BBX 11 14 1 0
BITMAP
0F80
7FC0
79E0
00E0
00E0
01E0
1FE0
3C60
7060
E060
E0E0
73E0
7F60
3E60
ENDCHAR
STARTCHAR 0062
ENCODING 98
SWIDTH 640 0
DWIDTH 16 0
BBX 12 20 2 0
BITMAP
E000
E000
E000
E000
E000
E000
E780
FFE0
FDE0
F070
E070
E070
E070
E070
E070
E070
E0F0
F9E0
FFC0
E780
ENDCHAR
STARTCHAR 0063
ENCODING 99
SWIDTH 520 0
DWIDTH 13 0
BBX 11 14 1 0
BITMAP
0F80
1FE0
3EC0
7000
7000
E000
E000
E000
E000
7000
7000
3CE0
3FE0
0F80
ENDCHAR
STARTCHAR 0064
ENCODING 100
SWIDTH 640 0
DWIDTH 16 0
BBX 13 20 1 0
BITMAP
0038
0038
0038
0038
0038
0038
0F38
3FF8
3DF8
7038
7038
E038
E038
E038
E038
F038
7078
7DF8
3FF8
1F38
ENDCHAR
STARTCHAR 0065
ENCODING 101
SWIDTH 560 0
DWIDTH 14 0
BBX 12 14 1 0
BITMAP
0F80
1FC0
38E0
7070
6070
E030
FFF0
FFF0
E000
E000
7000
3C60
3FF0
0FC0
ENDCHAR
STARTCHAR 0066
ENCODING 102
SWIDTH 360 0
DWIDTH 9 0
BBX 8 20 1 0
BITMAP
1F
3F
38
38
38
38
FE
FE
38
38
38
38
38
38
38
38
38
38
38
38
ENDCHAR
STARTCHAR 0067
ENCODING 103
SWIDTH 560 0
DWIDTH 14 0
BBX 13 20 1 -6
BITMAP
1FF8
3FF8
70C0
70E0
6060
70E0
70E0
3FC0
3F80
6000
6000
7800
7FF0
3FF8
6038
E038
E038
F070
7FE0
1F80
ENDCHAR
STARTCHAR 0068
ENCODING 104
SWIDTH 640 0
DWIDTH 16 0
BBX 12 20 2 0
BITMAP
E000
E000
E000
E000
E000
E000
E7C0
EFE0
FFE0
F0E0
E070
E070
E070
E070
E070
E070
E070
E070
E070
E070
ENDCHAR
STARTCHAR 0069
ENCODING 105
SWIDTH 280 0
DWIDTH 7 0
BBX 3 20 2 0
BITMAP
E0
E0
E0
00
00
00
E0
E0
E0
E0
E0
E0
E0
E0
E0
E0
E0
E0
E0
E0
ENDCHAR
STARTCHAR 006A
ENCODING 106
SWIDTH 280 0
DWIDTH 7 0
BBX 6 26 -1 -6
BITMAP
1C
1C
1C
00
00
00
1C
1C
1C
1C
1C
1C
1C
1C
1C
1C
1C
1C
1C
1C
1C
1C
1C
3C
F8
F0
ENDCHAR
STARTCHAR 006B
ENCODING 107
SWIDTH 560 0
DWIDTH 14 0
BBX 12 20 2 0
BITMAP
E000
E000
E000
E000
E000
E000
E0E0
E1C0
E3C0
E380
E700
EE00
FE00
FF00
FB80
F380
E1C0
E0E0
E0E0
E070
ENDCHAR
STARTCHAR 006C
ENCODING 108
SWIDTH 280 0
DWIDTH 7 0
BBX 5 20 2 0
BITMAP
E0
E0
E0
E0
E0
E0
E0
E0
E0
E0
E0
E0
E0
E0
E0
E0
E0
E0
F0
78
ENDCHAR
STARTCHAR 006D
ENCODING 109
SWIDTH 960 0
DWIDTH 24 0
BBX 20 14 2 0
BITMAP
E78780
EFCFE0
FFFFE0
F0F0E0
E0E070
E0E070
E0E070
E0E070
E0E070
E0E070
E0E070
E0E070
E0E070
E0E070
ENDCHAR
STARTCHAR 006E
ENCODING 110
SWIDTH 640 0
DWIDTH 16 0
BBX 12 14 2 0
BITMAP
E7C0
EFE0
FFE0
F0E0
E070
E070
E070
E070
E070
E070
E070
E070
E070
E070
ENDCHAR
STARTCHAR 006F
ENCODING 111
SWIDTH 600 0
DWIDTH 15 0
BBX 13 14 1 0
BITMAP
0F80
1FE0
3DF0
7070
7038
E038
E038
E038
E038
7038
7070
3DF0
3FE0
0F80
ENDCHAR
STARTCHAR 0070
ENCODING 112
SWIDTH 640 0
DWIDTH 16 0
BBX 12 20 2 -6
BITMAP
E780
FFE0
FDE0
F070
E070
E070
E070
E070
E070
E070
E0F0
F9E0
FFC0
EF80
E000
E000
E000
E000
E000
E000
ENDCHAR
STARTCHAR 0071
ENCODING 113
SWIDTH 640 0
DWIDTH 16 0
BBX 13 20 1 -6
BITMAP
0F38
3FF8
3DF8
7038
7038
E038
E038
E038
E038
F038
7078
7DF8
3FF8
1F38
0038
0038
0038
0038
0038
0038
ENDCHAR
STARTCHAR 0072
ENCODING 114
SWIDTH 400 0
DWIDTH 10 0
BBX 8 14 2 0
BITMAP
E7
EF
FF
F0
E0
E0
E0
E0
E0
E0
E0
E0
E0
E0
ENDCHAR
STARTCHAR 0073
ENCODING 115
SWIDTH 480 0
DWIDTH 12 0
BBX 10 14 1 0
BITMAP
1F00
7FC0
7180
6000
6000
7800
3F00
0F80
03C0
01C0
01C0
E3C0
FF80
3F00
ENDCHAR
STARTCHAR 0074
ENCODING 116
SWIDTH 400 0
DWIDTH 10 0
BBX 8 18 1 0
BITMAP
30
30
30
30
FF
FF
30
30
30
30
30
30
30
30
38
39
3F
0F
ENDCHAR
STARTCHAR 0075
ENCODING 117
SWIDTH 640 0
DWIDTH 16 0
BBX 11 14 2 0
BITMAP
E0E0
E0E0
E0E0
E0E0
E0E0
E0E0
E0E0
E0E0
E0E0
E0E0
E0E0
FFE0
7F60
3C60
ENDCHAR
STARTCHAR 0076
ENCODING 118
SWIDTH 560 0
DWIDTH 14 0
BBX 13 14 0 0
BITMAP
E038
7038
7030
3070
3870
3860
18E0
1CE0
1CC0
0CC0
0DC0
0F80
0780
0780
ENDCHAR
STARTCHAR 0077
ENCODING 119
SWIDTH 840 0
DWIDTH 21 0
BBX 19 14 1 0
BITMAP
E0E0E0
E0E0E0
E1E0C0
61F1C0
71B1C0
71B1C0
73B180
333980
3B1B80
3B1B80
3F1B00
1E1F00
1E0F00
1E0F00
ENDCHAR
STARTCHAR 0078
ENCODING 120
SWIDTH 520 0
DWIDTH 13 0
BBX 11 14 1 0
BITMAP
E0E0
70E0
71C0
3980
3B80
1F00
0F00
1F00
1F00
3B80
73C0
71C0
E0E0
E0E0
ENDCHAR
STARTCHAR 0079
ENCODING 121
SWIDTH 560 0
DWIDTH 14 0
BBX 13 20 0 -6
BITMAP
E038
7038
7030
3070
3870
3860
1CE0
1CE0
0CC0
0CC0
0FC0
0780
0780
0380
0300
0700
0700
1E00
7C00
7800
ENDCHAR
STARTCHAR 007A
ENCODING 122
SWIDTH 480 0
DWIDTH 12 0
BBX 11 14 1 0
BITMAP
7FC0
7FC0
01C0
0380
0700
0700
0E00
1C00
1C00
3800
7000
7000
FFE0
FFE0
ENDCHAR
STARTCHAR 007B
ENCODING 123
SWIDTH 360 0
DWIDTH 9 0
BBX 7 24 1 -4
BITMAP
1E
3E
38
30
30
30
30
38
38
38
30
F0
E0
30
38
38
38
30
30
30
30
38
3E
1E
ENDCHAR
STARTCHAR 007C
ENCODING 124
SWIDTH 280 0
DWIDTH 7 0
BBX 1 28 3 -7
BITMAP
80
80
80
80
80
80
80
80
80
80
80
80
80
80
80
80
80
80
80
80
80
80
80
80
80
80
80
80
ENDCHAR
STARTCHAR 007D
ENCODING 125
SWIDTH 360 0
DWIDTH 9 0
BBX 7 24 1 -4
BITMAP
F0
F0
38
38
38
38
38
38
38
38
38
1E
1E
18
38
38
38
38
38
38
38
38
F0
F0
ENDCHAR
STARTCHAR 007E
ENCODING 126
SWIDTH 560 0
DWIDTH 14 0
BBX 12 5 1 7
BITMAP
3800
7C30
E770
43E0
01C0
ENDCHAR
STARTCHAR 00A0
ENCODING 160
SWIDTH 240 0
DWIDTH 6 0
BBX 0 0 0 0
BITMAP
ENDCHAR
STARTCHAR 00A1
ENCODING 161
SWIDTH 360 0
DWIDTH 9 0
BBX 4 19 2 -5
BITMAP
70
F0
F0
70
00
00
60
60
60
60
60
60
70
70
70
70
70
70
70
ENDCHAR
STARTCHAR 00A2
ENCODING 162
SWIDTH 560 0
DWIDTH 14 0
BBX 11 20 2 -1
BITMAP
0600
0600
0600
0600
1FC0
3FC0
7E40
E600
E600
E600
E600
E600
E600
F600
7EE0
3FE0
0F80
0600
0600
0600
ENDCHAR
STARTCHAR 00A3
ENCODING 163
SWIDTH 560 0
DWIDTH 14 0
BBX 12 18 1 0
BITMAP
0FE0
1FF0
1C60
3800
3800
3800
3800
1800
FFC0
FFC0
1C00
1C00
1C00
1C00
3800
3000
FFF0
FFF0
ENDCHAR
STARTCHAR 00A4
ENCODING 164
SWIDTH 560 0
DWIDTH 14 0
BBX 12 13 1 3
BITMAP
4010
EF30
7FF0
78E0
7060
6070
E070
6070
7060
70E0
7FE0
EFF0
4030
ENDCHAR
STARTCHAR 00A5
ENCODING 165
SWIDTH 560 0
DWIDTH 14 0
BBX 13 18 1 0
BITMAP
E038
E070
7070
70E0
30E0
39C0
19C0
1D80
0F00
FFF0
FFF0
0700
FFF0
FFF0
0700
0700
0700
0700
ENDCHAR
STARTCHAR 00A6
ENCODING 166
SWIDTH 280 0
DWIDTH 7 0
BBX 1 28 3 -7
BITMAP
80
80
80
80
80
80
80
80
80
80
80
80
80
00
00
80
80
80
80
80
80
80
80
80
80
80
80
80
ENDCHAR
STARTCHAR 00A7
ENCODING 167
SWIDTH 1000 0
DWIDTH 25 0
BBX 13 22 6 -2
BITMAP
0FC0
1FE0
3820
3000
7000
3800
3E00
3FC0
63E0
60F0
E030
7038
7C30
3FB0
0FE0
01E0
0070
0070
0070
20E0
7FE0
1F80
ENDCHAR
STARTCHAR 00A8
ENCODING 168
SWIDTH 600 0
DWIDTH 15 0
BBX 9 3 3 16
BITMAP
6380
E380
6380
ENDCHAR
STARTCHAR 00A9
ENCODING 169
SWIDTH 840 0
DWIDTH 21 0
BBX 19 19 1 0
BITMAP
03F000
0F1E00
180300
300180
20F080
63F8C0
470840
C60040
C60060
C60060
C60060
460040
470840
63F8C0
21F080
300180
180700
0F1E00
03F000
ENDCHAR
STARTCHAR 00AA
ENCODING 170
SWIDTH 400 0
DWIDTH 10 0
BBX 8 9 1 11
BITMAP
3C
FE
06
1F
77
C7
C7
FF
7B
ENDCHAR
STARTCHAR 00AB
ENCODING 171
SWIDTH 520 0
DWIDTH 13 0
BBX 10 10 1 3
BITMAP
18C0
3180
7300
E700
C600
E600
6300
3180
19C0
0880
ENDCHAR
STARTCHAR 00AC
ENCODING 172
SWIDTH 560 0
DWIDTH 14 0
BBX 12 7 1 3
BITMAP
FFF0
FFF0
0030
0030
0030
0030
0030
ENDCHAR
STARTCHAR 00AD
ENCODING 173
SWIDTH 360 0
DWIDTH 9 0
BBX 7 2 1 6
BITMAP
FE
FE
ENDCHAR
STARTCHAR 00AE
ENCODING 174
SWIDTH 480 0
DWIDTH 12 0
BBX 10 11 1 9
BITMAP
1E00
6180
40C0
9E40
9240
9E40
9240
9240
C0C0
6180
1F00
ENDCHAR
STARTCHAR 00AF
ENCODING 175
SWIDTH 600 0
DWIDTH 15 0
BBX 8 2 4 17
BITMAP
FF
FF
ENDCHAR
STARTCHAR 00B0
ENCODING 176
SWIDTH 400 0
DWIDTH 10 0
BBX 7 7 1 12
BITMAP
7C
E6
C2
C2
C2
7E
3C
ENDCHAR
STARTCHAR 00B1
ENCODING 177
SWIDTH 1000 0
DWIDTH 25 0
BBX 19 21 3 0
BITMAP
00E000
00E000
00E000
00E000
00E000
00E000
00E000
FFFFC0
FFFFC0
00E000
00E000
00E000
00E000
00E000
00E000
00E000
000000
000000
000000
FFFFE0
FFFFE0
ENDCHAR
STARTCHAR 00B2
ENCODING 178
SWIDTH 400 0
DWIDTH 10 0
BBX 8 11 1 11
BITMAP
3C
7E
C6
07
06
06
0C
1C
38
7F
FF
ENDCHAR
STARTCHAR 00B3
ENCODING 179
SWIDTH 400 0
DWIDTH 10 0
BBX 8 12 1 11
BITMAP
18
7E
47
03
06
0E
1E
07
03
43
FF
3C
ENDCHAR
STARTCHAR 00B4
ENCODING 180
SWIDTH 600 0
DWIDTH 15 0
BBX 6 6 6 16
BITMAP
18
1C
38
70
E0
40
ENDCHAR
STARTCHAR 00B5
ENCODING 181
SWIDTH 640 0
DWIDTH 16 0
BBX 13 19 2 -5
BITMAP
E060
E060
E060
E060
E060
E060
E060
E060
E060
E0E0
E0E0
FBF0
FF78
FE38
E000
E000
E000
E000
E000
ENDCHAR
STARTCHAR 00B6
ENCODING 182
SWIDTH 1000 0
DWIDTH 25 0
BBX 11 22 6 -2
BITMAP
07E0
3FE0
7E20
7E20
FE20
FE20
FE20
FE20
FE20
7E20
7E20
3E20
0220
0220
0220
0220
0220
0220
0220
0220
0220
0220
ENDCHAR
STARTCHAR 00B7
ENCODING 183
SWIDTH 560 0
DWIDTH 14 0
BBX 4 4 5 7
BITMAP
60
F0
F0
60
ENDCHAR
STARTCHAR 00B8
ENCODING 184
SWIDTH 600 0
DWIDTH 15 0
BBX 5 6 5 -6
BITMAP
30
60
78
18
38
F0
ENDCHAR
STARTCHAR 00B9
ENCODING 185
SWIDTH 400 0
DWIDTH 10 0
BBX 5 11 2 11
BITMAP
38
F8
F8
18
18
18
18
18
18
18
18
ENDCHAR
STARTCHAR 00BA
ENCODING 186
SWIDTH 400 0
DWIDTH 10 0
BBX 8 9 1 11
BITMAP
3C
7E
C3
C3
C3
C3
C3
7E
3C
ENDCHAR
STARTCHAR 00BB
ENCODING 187
SWIDTH 520 0
DWIDTH 13 0
BBX 9 11 2 2
BITMAP
0400
CC00
E600
6300
3180
1180
3180
7380
6700
C600
8400
ENDCHAR
STARTCHAR 00BC
ENCODING 188
SWIDTH 880 0
DWIDTH 22 0
BBX 20 19 2 0
BITMAP
300600
F00C00
F00C00
301800
301800
303000
303000
306000
3061C0
30C3C0
3083C0
3186C0
010CC0
030CC0
0618C0
061FF0
0C00C0
0C00C0
1800C0
ENDCHAR
STARTCHAR 00BD
ENCODING 189
SWIDTH 920 0
DWIDTH 23 0
BBX 20 19 2 0
BITMAP
300C00
F00C00
F01800
301800
303000
303000
306000
306380
30CFC0
308CE0
318060
010060
030060
0600C0
0601C0
0C0380
0C0700
180FF0
180FF0
ENDCHAR
STARTCHAR 00BE
ENCODING 190
SWIDTH 920 0
DWIDTH 23 0
BBX 21 19 1 0
BITMAP
3C0180
7E0300
470300
070600
060600
1C0C00
0E0800
031860
0310E0
C731E0
7E21E0
186360
00C360
00C660
018660
018FF8
030060
030060
060060
ENDCHAR
STARTCHAR 00BF
ENCODING 191
SWIDTH 480 0
DWIDTH 12 0
BBX 10 19 1 -5
BITMAP
0E00
0E00
0E00
0E00
0000
0000
0E00
0E00
0E00
1C00
3C00
3800
7000
E000
E000
E000
71C0
7FC0
3F00
ENDCHAR
STARTCHAR 00C0
ENCODING 192
SWIDTH 640 0
DWIDTH 16 0
BBX 15 25 0 0
BITMAP
0400
0E00
0700
0380
0180
0000
03C0
03C0
07C0
06E0
06E0
0E60
0E70
0C70
1C70
1C38
1838
3FF8
3FF8
301C
701C
700C
700E
E00E
E00E
ENDCHAR
STARTCHAR 00C1
ENCODING 193
SWIDTH 640 0
DWIDTH 16 0
BBX 15 25 0 0
BITMAP
0060
00F0
01E0
0380
0100
0000
03C0
03C0
07C0
06E0
06E0
0E60
0E70
0C70
1C70
1C38
1838
3FF8
3FF8
301C
701C
700C
700E
E00E
E00E
ENDCHAR
STARTCHAR 00C2
ENCODING 194
SWIDTH 640 0
DWIDTH 16 0
BBX 15 24 0 0
BITMAP
03C0
07E0
0C70
0820
0000
03C0
03C0
07C0
06E0
06E0
0E60
0E70
0C70
1C70
1C38
1838
3FF8
3FF8
301C
701C
700C
700E
E00E
E00E
ENDCHAR
STARTCHAR 00C3
ENCODING 195
SWIDTH 640 0
DWIDTH 16 0
BBX 15 24 0 0
BITMAP
0E18
1F98
19F0
10F0
0000
03C0
03C0
07C0
06E0
06E0
0E60
0E70
0C70
1C70
1C38
1838
3FF8
3FF8
301C
701C
700C
700E
E00E
E00E
ENDCHAR
STARTCHAR 00C4
ENCODING 196
SWIDTH 640 0
DWIDTH 16 0
BBX 15 24 0 0
BITMAP
0C30
1C70
0C70
0000
0000
03C0
03C0
07C0
06E0
06E0
0E60
0E70
0C70
1C70
1C38
1838
3FF8
3FF8
301C
701C
700C
700E
E00E
E00E
ENDCHAR
STARTCHAR 00C5
ENCODING 197
SWIDTH 640 0
DWIDTH 16 0
BBX 15 25 0 0
BITMAP
03C0
0640
0460
0640
03C0
0000
03C0
03C0
07C0
06E0
06E0
0E60
0E70
0C70
1C70
1C38
1838
3FF8
3FF8
301C
701C
700C
700E
E00E
E00E
ENDCHAR
STARTCHAR 00C6
ENCODING 198
SWIDTH 920 0
DWIDTH 23 0
BBX 22 19 0 0
BITMAP
007FFC
007FFC
00FC00
00DC00
01DC00
01DC00
039C00
039C00
071FF0
071FF0
0E1C00
0E1C00
1FFC00
1FFC00
381C00
381C00
701C00
701FFC
E01FFC
ENDCHAR
STARTCHAR 00C7
ENCODING 199
SWIDTH 640 0
DWIDTH 16 0
BBX 14 25 1 -6
BITMAP
03E0
0FF8
1FFC
3C08
7800
7000
7000
7000
E000
E000
E000
7000
7000
7000
7800
3C0C
1FFC
0FF8
07F0
0080
0180
01E0
0060
00E0
03C0
ENDCHAR
STARTCHAR 00C8
ENCODING 200
SWIDTH 600 0
DWIDTH 15 0
BBX 12 25 2 0
BITMAP
1000
3C00
1E00
0F00
0200
0000
FFE0
FFE0
E000
E000
E000
E000
E000
E000
FFC0
FFC0
E000
E000
E000
E000
E000
E000
E000
FFF0
FFF0
ENDCHAR
STARTCHAR 00C9
ENCODING 201
SWIDTH 600 0
DWIDTH 15 0
BBX 12 25 2 0
BITMAP
0080
01C0
0380
0F00
0400
0000
FFE0
FFE0
E000
E000
E000
E000
E000
E000
FFC0
FFC0
E000
E000
E000
E000
E000
E000
E000
FFF0
FFF0
ENDCHAR
STARTCHAR 00CA
ENCODING 202
SWIDTH 600 0
DWIDTH 15 0
BBX 12 24 2 0
BITMAP
0F00
1F80
39C0
3040
0000
FFE0
FFE0
E000
E000
E000
E000
E000
E000
FFC0
FFC0
E000
E000
E000
E000
E000
E000
E000
FFF0
FFF0
ENDCHAR
STARTCHAR 00CB
ENCODING 203
SWIDTH 600 0
DWIDTH 15 0
BBX 12 24 2 0
BITMAP
30C0
38E0
30C0
0000
0000
FFE0
FFE0
E000
E000
E000
E000
E000
E000
FFC0
FFC0
E000
E000
E000
E000
E000
E000
E000
FFF0
FFF0
ENDCHAR
STARTCHAR 00CC
ENCODING 204
SWIDTH 320 0
DWIDTH 8 0
BBX 6 25 0 0
BITMAP
40
E0
70
3C
08
00
38
38
38
38
38
38
38
38
38
38
38
38
38
38
38
38
38
38
38
ENDCHAR
STARTCHAR 00CD
ENCODING 205
SWIDTH 320 0
DWIDTH 8 0
BBX 6 25 2 0
BITMAP
08
3C
78
F0
40
00
E0
E0
E0
E0
E0
E0
E0
E0
E0
E0
E0
E0
E0
E0
E0
E0
E0
E0
E0
ENDCHAR
STARTCHAR 00CE
ENCODING 206
SWIDTH 320 0
DWIDTH 8 0
BBX 8 24 0 0
BITMAP
3C
7E
E7
83
00
38
38
38
38
38
38
38
38
38
38
38
38
38
38
38
38
38
38
38
ENDCHAR
STARTCHAR 00CF
ENCODING 207
SWIDTH 320 0
DWIDTH 8 0
BBX 9 24 -1 0
BITMAP
6180
E380
6180
0000
0000
1C00
1C00
1C00
1C00
1C00
1C00
1C00
1C00
1C00
1C00
1C00
1C00
1C00
1C00
1C00
1C00
1C00
1C00
1C00
ENDCHAR
STARTCHAR 00D0
ENCODING 208
SWIDTH 720 0
DWIDTH 18 0
BBX 16 19 1 0
BITMAP
3FC0
3FF0
39F8
383C
381E
380E
380E
3807
3F87
FF87
3807
3807
380E
380E
381E
383C
39FC
3FF0
3FC0
ENDCHAR
STARTCHAR 00D1
ENCODING 209
SWIDTH 720 0
DWIDTH 18 0
BBX 14 24 2 0
BITMAP
0E18
1F30
3BF0
10E0
0000
F01C
F01C
F81C
F81C
FC1C
EC1C
EE1C
E61C
E71C
E39C
E39C
E1DC
E1DC
E0FC
E0FC
E07C
E03C
E03C
E01C
ENDCHAR
STARTCHAR 00D2
ENCODING 210
SWIDTH 760 0
DWIDTH 19 0
BBX 16 24 1 1
BITMAP
0600
0780
03C0
00C0
0000
03E0
0FF8
1FFC
3C1E
780E
7007
7007
7007
E007
E007
E007
7007
7007
7007
780E
3C1E
1FFC
0FF8
07E0
ENDCHAR
STARTCHAR 00D3
ENCODING 211
SWIDTH 760 0
DWIDTH 19 0
BBX 16 24 1 1
BITMAP
0070
00F0
01E0
0180
0000
03E0
0FF8
1FFC
3C1E
780E
7007
7007
7007
E007
E007
E007
7007
7007
7007
780E
3C1E
1FFC
0FF8
07E0
ENDCHAR
STARTCHAR 00D4
ENCODING 212
SWIDTH 760 0
DWIDTH 19 0
BBX 16 24 1 0
BITMAP
03C0
0360
0630
0C10
0000
03E0
0FF8
1FFC
3C1E
780E
7007
7007
7007
E007
E007
E007
7007
7007
7007
780E
3C1E
1FFC
0FF8
07E0
ENDCHAR
STARTCHAR 00D5
ENCODING 213
SWIDTH 760 0
DWIDTH 19 0
BBX 16 24 1 0
BITMAP
070C
0F98
1DF8
1870
0000
03E0
0FF8
1FFC
3C1E
780E
7007
7007
7007
E007
E007
E007
7007
7007
7007
780E
3C1E
1FFC
0FF8
07E0
ENDCHAR
STARTCHAR 00D6
ENCODING 214
SWIDTH 760 0
DWIDTH 19 0
BBX 16 23 1 0
BITMAP
0E38
0E38
0E38
0000
03E0
0FF8
1FFC
3C1E
780E
7007
7007
7007
E007
E007
E007
7007
7007
7007
780E
3C1E
1FFC
0FF8
07E0
ENDCHAR
STARTCHAR 00D7
ENCODING 215
SWIDTH 1000 0
DWIDTH 25 0
BBX 17 16 4 1
BITMAP
600300
700700
380E00
1C1C00
0E3800
077000
03E000
01C000
03E000
077000
0E3800
1C1C00
380E00
700700
E00380
400100
ENDCHAR
STARTCHAR 00D8
ENCODING 216
SWIDTH 760 0
DWIDTH 19 0
BBX 17 19 1 0
BITMAP
03E380
0FFB00
1FFE00
3C1E00
781F00
703F00
703700
706700
E0E700
E1C300
E18700
730700
760700
7E0700
7C0E00
3C1E00
3FFC00
7FF800
E3E000
ENDCHAR
STARTCHAR 00D9
ENCODING 217
SWIDTH 720 0
DWIDTH 18 0
BBX 14 25 2 0
BITMAP
0800
1E00
0F00
0780
0100
0000
E01C
E01C
E01C
E01C
E01C
E01C
E01C
E01C
E01C
E01C
E01C
E01C
E01C
601C
703C
7838
3FF8
1FF0
0FC0
ENDCHAR
STARTCHAR 00DA
ENCODING 218
SWIDTH 720 0
DWIDTH 18 0
BBX 14 25 2 0
BITMAP
0040
00E0
01C0
0780
0200
0000
E01C
E01C
E01C
E01C
E01C
E01C
E01C
E01C
E01C
E01C
E01C
E01C
E01C
601C
703C
7838
3FF8
1FF0
0FC0
ENDCHAR
STARTCHAR 00DB
ENCODING 219
SWIDTH 720 0
DWIDTH 18 0
BBX 14 24 2 0
BITMAP
0780
0FC0
1CE0
1820
0000
E01C
E01C
E01C
E01C
E01C
E01C
E01C
E01C
E01C
E01C
E01C
E01C
E01C
601C
703C
7838
3FF8
1FF0
0FC0
ENDCHAR
STARTCHAR 00DC
ENCODING 220
SWIDTH 720 0
DWIDTH 18 0
BBX 14 24 2 0
BITMAP
1860
1C70
1860
0000
0000
E01C
E01C
E01C
E01C
E01C
E01C
E01C
E01C
E01C
E01C
E01C
E01C
E01C
601C
703C
7838
3FF8
1FF0
0FC0
ENDCHAR
STARTCHAR 00DD
ENCODING 221
SWIDTH 560 0
DWIDTH 14 0
BBX 14 25 0 0
BITMAP
0040
00E0
03C0
0780
0200
0000
E01C
7038
7038
3870
3870
3860
1CE0
1CC0
0FC0
0F80
0780
0700
0700
0700
0700
0700
0700
0700
0700
ENDCHAR
STARTCHAR 00DE
ENCODING 222
SWIDTH 680 0
DWIDTH 17 0
BBX 13 19 2 0
BITMAP
E000
E000
E000
FFC0
FFF0
E0F0
E038
E038
E038
E038
E038
E038
E0F0
FFE0
FFC0
E000
E000
E000
E000
ENDCHAR
STARTCHAR 00DF
ENCODING 223
SWIDTH 680 0
DWIDTH 17 0
BBX 14 20 2 0
BITMAP
1F80
3FC0
71E0
E0E0
E0E0
E0E0
E1C0
E180
E380
E380
E380
E3E0
E1F0
E078
E01C
E01C
E01C
E33C
E7F8
E1F0
ENDCHAR
STARTCHAR 00E0
ENCODING 224
SWIDTH 560 0
DWIDTH 14 0
BBX 11 22 1 0
BITMAP
1800
3C00
1C00
0E00
0700
0200
0000
0000
0F80
7FC0
79E0
00E0
00E0
01E0
1FE0
3C60
7060
E060
E0E0
73E0
7F60
3E60
ENDCHAR
STARTCHAR 00E1
ENCODING 225
SWIDTH 560 0
DWIDTH 14 0
BBX 11 22 1 0
BITMAP
00C0
00E0
01C0
0380
0700
0200
0000
0000
0F80
7FC0
79E0
00E0
00E0
01E0
1FE0
3C60
7060
E060
E0E0
73E0
7F60
3E60
ENDCHAR
STARTCHAR 00E2
ENCODING 226
SWIDTH 560 0
DWIDTH 14 0
BBX 11 21 1 0
BITMAP
0700
0F80
1DC0
38E0
1060
0000
0000
0F80
7FC0
79E0
00E0
00E0
01E0
1FE0
3C60
7060
E060
E0E0
73E0
7F60
3E60
ENDCHAR
STARTCHAR 00E3
ENCODING 227
SWIDTH 560 0
DWIDTH 14 0
BBX 12 20 1 0
BITMAP
1C30
3F60
33E0
21C0
0000
0000
0F80
7FC0
79E0
00E0
00E0
01E0
1FE0
3C60
7060
E060
E0E0
73E0
7F60
3E60
ENDCHAR
STARTCHAR 00E4
ENCODING 228
SWIDTH 560 0
DWIDTH 14 0
BBX 11 19 1 0
BITMAP
38E0
38E0
18E0
0000
0000
0F80
7FC0
79E0
00E0
00E0
01E0
1FE0
3C60
7060
E060
E0E0
73E0
7F60
3E60
ENDCHAR
STARTCHAR 00E5
ENCODING 229
SWIDTH 560 0
DWIDTH 14 0
BBX 11 21 1 0
BITMAP
0F80
0CC0
18C0
1CC0
0F80
0000
0000
0F80
7FC0
79E0
00E0
00E0
01E0
1FE0
3C60
7060
E060
E0E0
73E0
7F60
3E60
ENDCHAR
STARTCHAR 00E6
ENCODING 230
SWIDTH 880 0
DWIDTH 22 0
BBX 19 14 2 0
BITMAP
1E0F00
7FBF80
F3F1C0
41E0E0
00E0E0
03C0E0
3FFFE0
78FFE0
E0C000
C0E000
C0E000
F7F9C0
FF3FC0
7C0F80
ENDCHAR
STARTCHAR 00E7
ENCODING 231
SWIDTH 520 0
DWIDTH 13 0
BBX 11 20 1 -6
BITMAP
0F80
1FE0
3EC0
7000
7000
E000
E000
E000
E000
F000
7000
7CE0
3FE0
0FC0
0600
0600
0700
0180
0380
0F00
ENDCHAR
STARTCHAR 00E8
ENCODING 232
SWIDTH 560 0
DWIDTH 14 0
BBX 12 22 1 0
BITMAP
1800
3800
1C00
0E00
0700
0200
0000
0000
0F80
1FC0
38E0
7070
6070
E030
FFF0
FFF0
E000
E000
7000
3C60
3FF0
0FC0
ENDCHAR
STARTCHAR 00E9
ENCODING 233
SWIDTH 560 0
DWIDTH 14 0
BBX 12 22 1 0
BITMAP
00C0
01E0
01C0
0380
0700
0200
0000
0000
0F80
1FC0
38E0
7070
6070
E030
FFF0
FFF0
E000
E000
7000
3C60
3FF0
0FC0
ENDCHAR
STARTCHAR 00EA
ENCODING 234
SWIDTH 560 0
DWIDTH 14 0
BBX 12 21 1 0
BITMAP
0700
0F80
1DC0
38E0
3060
0000
0000
0F80
1FC0
38E0
7070
6070
E030
FFF0
FFF0
E000
E000
7000
3C60
3FF0
0FC0
ENDCHAR
STARTCHAR 00EB
ENCODING 235
SWIDTH 560 0
DWIDTH 14 0
BBX 12 19 1 0
BITMAP
38E0
38E0
38C0
0000
0000
0F80
1FC0
38E0
7070
6070
E030
FFF0
FFF0
E000
E000
7000
3C60
3FF0
0FC0
ENDCHAR
STARTCHAR 00EC
ENCODING 236
SWIDTH 280 0
DWIDTH 7 0
BBX 6 22 -1 1
BITMAP
60
F0
78
3C
0C
00
00
00
1C
1C
1C
1C
1C
1C
1C
1C
1C
1C
1C
1C
1C
1C
ENDCHAR
STARTCHAR 00ED
ENCODING 237
SWIDTH 280 0
DWIDTH 7 0
BBX 6 22 2 1
BITMAP
18
3C
78
70
E0
40
00
00
E0
E0
E0
E0
E0
E0
E0
E0
E0
E0
E0
E0
E0
E0
ENDCHAR
STARTCHAR 00EE
ENCODING 238
SWIDTH 280 0
DWIDTH 7 0
BBX 9 21 -1 0
BITMAP
1C00
3E00
7700
E380
4000
0000
0000
1C00
1C00
1C00
1C00
1C00
1C00
1C00
1C00
1C00
1C00
1C00
1C00
1C00
1C00
ENDCHAR
STARTCHAR 00EF
ENCODING 239
SWIDTH 280 0
DWIDTH 7 0
BBX 9 20 -1 0
BITMAP
6380
E380
E380
0000
0000
0000
1C00
1C00
1C00
1C00
1C00
1C00
1C00
1C00
1C00
1C00
1C00
1C00
1C00
1C00
ENDCHAR
STARTCHAR 00F0
ENCODING 240
SWIDTH 600 0
DWIDTH 15 0
BBX 13 21 1 0
BITMAP
0800
1C30
0FE0
0780
0FC0
38E0
00E0
0070
0F70
3FF0
78F8
7038
6038
E038
E038
E038
6030
7070
3DE0
1FE0
0F80
ENDCHAR
STARTCHAR 00F1
ENCODING 241
SWIDTH 640 0
DWIDTH 16 0
BBX 12 20 2 0
BITMAP
1C60
3E60
33E0
61C0
0000
0000
E7C0
EFE0
FFE0
F0E0
E070
E070
E070
E070
E070
E070
E070
E070
E070
E070
ENDCHAR
STARTCHAR 00F2
ENCODING 242
SWIDTH 600 0
DWIDTH 15 0
BBX 13 22 1 0
BITMAP
1800
3C00
1E00
0E00
0700
0200
0000
0000
0F80
1FE0
3DF0
7070
7038
E038
E038
E038
E038
7038
7070
3DF0
3FE0
0F80
ENDCHAR
STARTCHAR 00F3
ENCODING 243
SWIDTH 600 0
DWIDTH 15 0
BBX 13 22 1 0
BITMAP
00C0
00E0
01C0
0380
0700
0200
0000
0000
0F80
1FE0
3DF0
7070
7038
E038
E038
E038
E038
7038
7070
3DF0
3FE0
0F80
ENDCHAR
STARTCHAR 00F4
ENCODING 244
SWIDTH 600 0
DWIDTH 15 0
BBX 13 21 1 0
BITMAP
0700
0F80
1DC0
38E0
1060
0000
0000
0F80
1FE0
3DF0
7070
7038
E038
E038
E038
E038
7038
7070
3DF0
3FE0
0F80
ENDCHAR
STARTCHAR 00F5
ENCODING 245
SWIDTH 600 0
DWIDTH 15 0
BBX 13 20 1 0
BITMAP
1E30
3F60
33E0
31C0
0000
0000
0F80
1FE0
3DF0
7070
7038
E038
E038
E038
E038
7038
7070
3DF0
3FE0
0F80
ENDCHAR
STARTCHAR 00F6
ENCODING 246
SWIDTH 600 0
DWIDTH 15 0
BBX 13 19 1 0
BITMAP
18E0
38E0
18E0
0000
0000
0F80
1FE0
3DF0
7070
7038
E038
E038
E038
E038
7038
7070
3DF0
3FE0
0F80
ENDCHAR
STARTCHAR 00F7
ENCODING 247
SWIDTH 1000 0
DWIDTH 25 0
BBX 18 17 3 1
BITMAP
00E000
00E000
00E000
00E000
000000
000000
000000
000000
FFFFC0
FFFFC0
000000
000000
000000
00E000
00E000
00E000
00E000
ENDCHAR
STARTCHAR 00F8
ENCODING 248
SWIDTH 600 0
DWIDTH 15 0
BBX 13 14 1 0
BITMAP
0F98
1FF0
3CF0
7070
60F8
E1B8
E338
E638
EC38
6C38
7870
38F0
7FE0
CF80
ENDCHAR
STARTCHAR 00F9
ENCODING 249
SWIDTH 640 0
DWIDTH 16 0
BBX 11 22 2 1
BITMAP
3000
7800
1C00
0E00
0600
0000
0000
0000
E0E0
E0E0
E0E0
E0E0
E0E0
E0E0
E0E0
E0E0
E0E0
E0E0
E0E0
FFE0
7F60
3C60
ENDCHAR
STARTCHAR 00FA
ENCODING 250
SWIDTH 640 0
DWIDTH 16 0
BBX 11 22 2 1
BITMAP
0180
03C0
0380
0700
0E00
0400
0000
0000
E0E0
E0E0
E0E0
E0E0
E0E0
E0E0
E0E0
E0E0
E0E0
E0E0
E0E0
FFE0
7F60
3C60
ENDCHAR
STARTCHAR 00FB
ENCODING 251
SWIDTH 640 0
DWIDTH 16 0
BBX 11 21 2 0
BITMAP
0F00
1F00
3B80
70C0
2040
0000
0000
E0E0
E0E0
E0E0
E0E0
E0E0
E0E0
E0E0
E0E0
E0E0
E0E0
E0E0
FFE0
7F60
3C60
ENDCHAR
STARTCHAR 00FC
ENCODING 252
SWIDTH 640 0
DWIDTH 16 0
BBX 11 20 2 0
BITMAP
31C0
71C0
31C0
0000
0000
0000
E0E0
E0E0
E0E0
E0E0
E0E0
E0E0
E0E0
E0E0
E0E0
E0E0
E0E0
FFE0
7F60
3C60
ENDCHAR
STARTCHAR 00FD
ENCODING 253
SWIDTH 560 0
DWIDTH 14 0
BBX 13 29 0 -6
BITMAP
0040
0060
00E0
01C0
0380
0300
0000
0000
0000
E038
7038
7030
3070
3870
3860
1CE0
1CE0
0CC0
0CC0
0FC0
0780
0780
0380
0300
0700
0700
1E00
7C00
7800
ENDCHAR
STARTCHAR 00FE
ENCODING 254
SWIDTH 640 0
DWIDTH 16 0
BBX 12 26 2 -6
BITMAP
E000
E000
E000
E000
E000
E000
E780
FFE0
FDE0
F070
E070
E070
E070
E070
E070
E070
E0F0
F9E0
FFC0
EF80
E000
E000
E000
E000
E000
E000
ENDCHAR
STARTCHAR 00FF
ENCODING 255
SWIDTH 560 0
DWIDTH 14 0
BBX 13 26 0 -6
BITMAP
1860
1CE0
1C60
0000
0000
0000
E038
7038
7030
3070
3870
3860
1CE0
1CE0
0CC0
0CC0
0FC0
0780
0780
0380
0300
0700
0700
1E00
7C00
7800
ENDCHAR
STARTCHAR 0100
ENCODING 256
SWIDTH 640 0
DWIDTH 16 0
BBX 15 23 0 0
BITMAP
0FF0
0FF0
0000
0000
03C0
03C0
07C0
06E0
06E0
0E60
0E70
0C70
1C70
1C38
1838
3FF8
3FF8
301C
701C
700C
700E
E00E
E00E
ENDCHAR
STARTCHAR 0101
ENCODING 257
SWIDTH 560 0
DWIDTH 14 0
BBX 11 19 1 0
BITMAP
1FC0
1FC0
0000
0000
0000
0F80
7FC0
79E0
00E0
00E0
01E0
1FE0
3C60
7060
E060
E0E0
73E0
7F60
3E60
ENDCHAR
STARTCHAR 0102
ENCODING 258
SWIDTH 640 0
DWIDTH 16 0
BBX 15 24 0 0
BITMAP
0830
0C70
0FE0
03C0
0000
03C0
03C0
07C0
06E0
06E0
0E60
0E70
0C70
1C70
1C38
1838
3FF8
3FF8
301C
701C
700C
700E
E00E
E00E
ENDCHAR
STARTCHAR 0103
ENCODING 259
SWIDTH 560 0
DWIDTH 14 0
BBX 11 21 1 0
BITMAP
1040
3060
38E0
1FC0
0F80
0000
0000
0F80
7FC0
79E0
00E0
00E0
01E0
1FE0
3C60
7060
E060
E0E0
73E0
7F60
3E60
ENDCHAR
STARTCHAR 0110
ENCODING 272
SWIDTH 720 0
DWIDTH 18 0
BBX 16 19 1 0
BITMAP
3FC0
3FF0
39F8
383C
381E
380E
380E
3807
3F87
FF87
3807
3807
380E
380E
381E
383C
39FC
3FF0
3FC0
ENDCHAR
STARTCHAR 0111
ENCODING 273
SWIDTH 640 0
DWIDTH 16 0
BBX 15 20 1 0
BITMAP
0038
0038
07FE
07F8
0038
0038
0038
1FB8
3FF8
7878
7038
F038
E038
E038
E038
F038
7078
7DF8
3FF8
1F38
ENDCHAR
STARTCHAR 0112
ENCODING 274
SWIDTH 600 0
DWIDTH 15 0
BBX 12 23 2 0
BITMAP
3FC0
3FC0
0000
0000
FFE0
FFE0
E000
E000
E000
E000
E000
E000
FFC0
FFC0
E000
E000
E000
E000
E000
E000
E000
FFF0
FFF0
ENDCHAR
STARTCHAR 0113
ENCODING 275
SWIDTH 560 0
DWIDTH 14 0
BBX 12 19 1 0
BITMAP
1FC0
1FC0
0000
0000
0000
0F80
1FC0
38E0
7070
6070
E030
FFF0
FFF0
E000
E000
7000
3C60
3FF0
0FC0
ENDCHAR
STARTCHAR 011A
ENCODING 282
SWIDTH 600 0
DWIDTH 15 0
BBX 12 24 2 1
BITMAP
30C0
1980
0F80
0000
0000
FFE0
FFE0
E000
E000
E000
E000
E000
E000
FFC0
FFC0
E000
E000
E000
E000
E000
E000
E000
FFF0
FFF0
ENDCHAR
STARTCHAR 011B
ENCODING 283
SWIDTH 560 0
DWIDTH 14 0
BBX 12 21 1 0
BITMAP
3040
38E0
1DC0
0F80
0700
0000
0000
0F80
1FC0
38E0
7070
6070
E030
FFF0
FFF0
E000
E000
7000
3C60
3FF0
0FC0
ENDCHAR
STARTCHAR 0128
ENCODING 296
SWIDTH 320 0
DWIDTH 8 0
BBX 10 24 -1 0
BITMAP
70C0
FCC0
CFC0
C780
0000
1C00
1C00
1C00
1C00
1C00
1C00
1C00
1C00
1C00
1C00
1C00
1C00
1C00
1C00
1C00
1C00
1C00
1C00
1C00
ENDCHAR
STARTCHAR 0129
ENCODING 297
SWIDTH 280 0
DWIDTH 7 0
BBX 10 20 -1 1
BITMAP
F0C0
DD80
CF80
0700
0000
0000
1C00
1C00
1C00
1C00
1C00
1C00
1C00
1C00
1C00
1C00
1C00
1C00
1C00
1C00
ENDCHAR
STARTCHAR 012A
ENCODING 298
SWIDTH 320 0
DWIDTH 8 0
BBX 8 23 0 0
BITMAP
FF
FF
00
00
38
38
38
38
38
38
38
38
38
38
38
38
38
38
38
38
38
38
38
ENDCHAR
STARTCHAR 012B
ENCODING 299
SWIDTH 280 0
DWIDTH 7 0
BBX 7 19 0 0
BITMAP
FE
FE
00
00
00
38
38
38
38
38
38
38
38
38
38
38
38
38
38
ENDCHAR
STARTCHAR 0143
ENCODING 323
SWIDTH 720 0
DWIDTH 18 0
BBX 14 25 2 0
BITMAP
0060
00E0
01C0
0380
0100
0000
F01C
F01C
F81C
F81C
FC1C
EC1C
EE1C
E61C
E71C
E39C
E39C
E1DC
E1DC
E0FC
E0FC
E07C
E03C
E03C
E01C
ENDCHAR
STARTCHAR 0144
ENCODING 324
SWIDTH 640 0
DWIDTH 16 0
BBX 12 22 2 1
BITMAP
00C0
01E0
03C0
0780
0700
0000
0000
0000
E7C0
EFE0
FFE0
F0E0
E070
E070
E070
E070
E070
E070
E070
E070
E070
E070
ENDCHAR
STARTCHAR 0147
ENCODING 327
SWIDTH 720 0
DWIDTH 18 0
BBX 14 25 2 0
BITMAP
0020
1C70
0EE0
07C0
0000
0000
F01C
F01C
F81C
F81C
FC1C
EC1C
EE1C
E61C
E71C
E39C
E39C
E1DC
E1DC
E0FC
E0FC
E07C
E03C
E03C
E01C
ENDCHAR
STARTCHAR 0148
ENCODING 328
SWIDTH 640 0
DWIDTH 16 0
BBX 12 21 2 0
BITMAP
3040
38E0
1DC0
0F80
0700
0000
0000
E7C0
EFE0
FFE0
F0E0
E070
E070
E070
E070
E070
E070
E070
E070
E070
E070
ENDCHAR
STARTCHAR 014C
ENCODING 332
SWIDTH 760 0
DWIDTH 19 0
BBX 16 23 1 0
BITMAP
0FF0
0FF0
0000
0000
03E0
0FF8
1FFC
3C1E
780E
7007
7007
7007
E007
E007
E007
7007
7007
7007
780E
3C1E
1FFC
0FF8
07E0
ENDCHAR
STARTCHAR 014D
ENCODING 333
SWIDTH 600 0
DWIDTH 15 0
BBX 13 19 1 0
BITMAP
1FE0
1FE0
0000
0000
0000
0F80
1FE0
3DF0
7070
7038
E038
E038
E038
E038
7038
7070
3DF0
3FE0
0F80
ENDCHAR
STARTCHAR 014E
ENCODING 334
SWIDTH 760 0
DWIDTH 19 0
BBX 16 24 1 0
BITMAP
0C18
0E30
07F0
03E0
0000
03E0
0FF8
1FFC
3C1E
780E
7007
7007
7007
E007
E007
E007
7007
7007
7007
780E
3C1E
1FFC
0FF8
07E0
ENDCHAR
STARTCHAR 014F
ENCODING 335
SWIDTH 600 0
DWIDTH 15 0
BBX 13 21 1 0
BITMAP
1040
3060
18E0
1FC0
0F80
0000
0000
0F80
1FE0
3DF0
7070
7038
E038
E038
E038
E038
7038
7070
3DF0
3FE0
0F80
ENDCHAR
STARTCHAR 0152
ENCODING 338
SWIDTH 960 0
DWIDTH 24 0
BBX 22 19 1 0
BITMAP
03FFF8
0FFFF8
1F9C00
3C1C00
781C00
701C00
701C00
701C00
E01FF0
E01FF0
E01C00
701C00
701C00
701C00
781C00
3C1C00
1F9C00
0FFFFC
03FFFC
ENDCHAR
STARTCHAR 0153
ENCODING 339
SWIDTH 920 0
DWIDTH 23 0
BBX 21 14 1 0
BITMAP
0F83C0
3FCFF0
3DEE70
707838
707818
E03818
E03FF8
E03FF8
E03800
F07800
707C00
7DEE30
3FC7F8
0F83E0
ENDCHAR
STARTCHAR 0168
ENCODING 360
SWIDTH 720 0
DWIDTH 18 0
BBX 14 24 2 0
BITMAP
1E30
3F30
33F0
31E0
0000
E01C
E01C
E01C
E01C
E01C
E01C
E01C
E01C
E01C
E01C
E01C
E01C
E01C
601C
703C
7838
3FF8
1FF0
0FC0
ENDCHAR
STARTCHAR 0169
ENCODING 361
SWIDTH 640 0
DWIDTH 16 0
BBX 11 20 2 1
BITMAP
7C60
6EE0
67C0
0380
0000
0000
E0E0
E0E0
E0E0
E0E0
E0E0
E0E0
E0E0
E0E0
E0E0
E0E0
E0E0
FFE0
7F60
3C60
ENDCHAR
STARTCHAR 016A
ENCODING 362
SWIDTH 720 0
DWIDTH 18 0
BBX 14 23 2 0
BITMAP
1FE0
1FE0
0000
0000
E01C
E01C
E01C
E01C
E01C
E01C
E01C
E01C
E01C
E01C
E01C
E01C
E01C
601C
703C
7838
3FF8
1FF0
0FC0
ENDCHAR
STARTCHAR 016B
ENCODING 363
SWIDTH 640 0
DWIDTH 16 0
BBX 11 19 2 0
BITMAP
3FC0
3FC0
0000
0000
0000
E0E0
E0E0
E0E0
E0E0
E0E0
E0E0
E0E0
E0E0
E0E0
E0E0
E0E0
FFE0
7F60
3C60
ENDCHAR
STARTCHAR 016C
ENCODING 364
SWIDTH 720 0
DWIDTH 18 0
BBX 14 24 2 0
BITMAP
1860
1C60
0FC0
0780
0000
E01C
E01C
E01C
E01C
E01C
E01C
E01C
E01C
E01C
E01C
E01C
E01C
E01C
601C
703C
7838
3FF8
1FF0
0FC0
ENDCHAR
STARTCHAR 016D
ENCODING 365
SWIDTH 640 0
DWIDTH 16 0
BBX 11 21 2 0
BITMAP
20C0
60C0
31C0
3F80
0F00
0000
0000
E0E0
E0E0
E0E0
E0E0
E0E0
E0E0
E0E0
E0E0
E0E0
E0E0
E0E0
FFE0
7F60
3C60
ENDCHAR
STARTCHAR 0192
ENCODING 402
SWIDTH 560 0
DWIDTH 14 0
BBX 12 22 1 -3
BITMAP
00F0
03F0
0390
0700
0700
0700
0700
3FE0
3FE0
0600
0E00
0E00
0E00
0E00
0E00
0E00
0E00
0C00
1C00
BC00
F800
F000
ENDCHAR
STARTCHAR 01A0
ENCODING 416
SWIDTH 760 0
DWIDTH 19 0
BBX 17 23 1 0
BITMAP
000100
000380
000380
000380
03E700
0FFE00
1FFC00
3C1E00
780F00
700700
700700
700700
E00700
E00300
E00700
700700
700700
700700
780E00
3C1E00
1FFC00
0FF800
03E000
ENDCHAR
STARTCHAR 01A1
ENCODING 417
SWIDTH 600 0
DWIDTH 15 0
BBX 14 19 1 0
BITMAP
000C
001C
000C
000C
001C
0FB8
1FE0
3DF0
7070
7038
E038
E038
E038
E038
7038
7070
3DF0
3FE0
0F80
ENDCHAR
STARTCHAR 01AF
ENCODING 431
SWIDTH 760 0
DWIDTH 19 0
BBX 17 24 2 0
BITMAP
000080
000180
000180
000180
000380
E01F00
E01C00
E01C00
E01C00
E01C00
E01C00
E01C00
E01C00
E01C00
E01C00
E01C00
E01C00
E01C00
601C00
703C00
783800
3FF800
1FF000
0FC000
ENDCHAR
STARTCHAR 01B0
ENCODING 432
SWIDTH 640 0
DWIDTH 16 0
BBX 14 19 2 0
BITMAP
000C
001C
000C
001C
0018
E0F0
E0E0
E0E0
E0E0
E0E0
E0E0
E0E0
E0E0
E0E0
E0E0
E0E0
FFE0
7F60
3C60
ENDCHAR
STARTCHAR 01CD
ENCODING 461
SWIDTH 640 0
DWIDTH 16 0
BBX 15 24 0 1
BITMAP
0C30
0EE0
07C0
0000
0000
03C0
03C0
07C0
06E0
06E0
0E60
0E70
0C70
1C70
1C38
1838
3FF8
3FF8
301C
701C
700C
700E
E00E
E00E
ENDCHAR
STARTCHAR 01CE
ENCODING 462
SWIDTH 560 0
DWIDTH 14 0
BBX 11 21 1 0
BITMAP
1060
38E0
1DC0
0F80
0700
0000
0000
0F80
7FC0
79E0
00E0
00E0
01E0
1FE0
3C60
7060
E060
E0E0
73E0
7F60
3E60
ENDCHAR
STARTCHAR 01CF
ENCODING 463
SWIDTH 320 0
DWIDTH 8 0
BBX 8 24 0 1
BITMAP
C3
66
7C
00
00
38
38
38
38
38
38
38
38
38
38
38
38
38
38
38
38
38
38
38
ENDCHAR
STARTCHAR 01D0
ENCODING 464
SWIDTH 280 0
DWIDTH 7 0
BBX 9 21 -1 0
BITMAP
4180
E380
7700
3E00
1C00
0000
0000
1C00
1C00
1C00
1C00
1C00
1C00
1C00
1C00
1C00
1C00
1C00
1C00
1C00
1C00
ENDCHAR
STARTCHAR 01D1
ENCODING 465
SWIDTH 760 0
DWIDTH 19 0
BBX 16 24 1 0
BITMAP
0410
0630
03E0
03C0
0000
03E0
0FF8
1FFC
3C1E
780E
7007
7007
7007
E007
E007
E007
7007
7007
7007
780E
3C1E
1FFC
0FF8
07E0
ENDCHAR
STARTCHAR 01D2
ENCODING 466
SWIDTH 600 0
DWIDTH 15 0
BBX 13 21 1 0
BITMAP
1020
38E0
1DC0
0F80
0700
0000
0000
0F80
1FE0
3DF0
7070
7038
E038
E038
E038
E038
7038
7070
3DF0
3FE0
0F80
ENDCHAR
STARTCHAR 01D3
ENCODING 467
SWIDTH 720 0
DWIDTH 18 0
BBX 14 24 2 1
BITMAP
1860
0CC0
07C0
0000
0000
E01C
E01C
E01C
E01C
E01C
E01C
E01C
E01C
E01C
E01C
E01C
E01C
E01C
601C
703C
7838
3FF8
1FF0
0FC0
ENDCHAR
STARTCHAR 01D4
ENCODING 468
SWIDTH 640 0
DWIDTH 16 0
BBX 11 21 2 0
BITMAP
2040
71C0
3B80
1F00
0F00
0000
0000
E0E0
E0E0
E0E0
E0E0
E0E0
E0E0
E0E0
E0E0
E0E0
E0E0
E0E0
FFE0
7F60
3C60
ENDCHAR
STARTCHAR 01D5
ENCODING 469
SWIDTH 720 0
DWIDTH 18 0
BBX 14 26 2 0
BITMAP
1FE0
0000
0000
1860
1C70
1860
0000
E01C
E01C
E01C
E01C
E01C
E01C
E01C
E01C
E01C
E01C
E01C
E01C
E01C
601C
703C
7838
3FF8
1FF0
0FC0
ENDCHAR
STARTCHAR 01D6
ENCODING 470
SWIDTH 640 0
DWIDTH 16 0
BBX 11 23 2 0
BITMAP
3FC0
3FC0
0000
3080
71C0
31C0
0000
0000
0000
E0E0
E0E0
E0E0
E0E0
E0E0
E0E0
E0E0
E0E0
E0E0
E0E0
E0E0
FFE0
7F60
3C60
ENDCHAR
STARTCHAR 01D7
ENCODING 471
SWIDTH 720 0
DWIDTH 18 0
BBX 14 28 2 0
BITMAP
0080
00C0
0180
0300
0000
1860
1C70
1860
0000
E01C
E01C
E01C
E01C
E01C
E01C
E01C
E01C
E01C
E01C
E01C
E01C
E01C
601C
703C
7838
3FF8
1FF0
0FC0
ENDCHAR
STARTCHAR 01D8
ENCODING 472
SWIDTH 640 0
DWIDTH 16 0
BBX 11 24 2 1
BITMAP
0300
0600
0600
0000
3080
71C0
31C0
0000
0000
0000
E0E0
E0E0
E0E0
E0E0
E0E0
E0E0
E0E0
E0E0
E0E0
E0E0
E0E0
FFE0
7F60
3C60
ENDCHAR
STARTCHAR 01D9
ENCODING 473
SWIDTH 720 0
DWIDTH 18 0
BBX 14 28 2 0
BITMAP
0860
0CC0
0780
0300
0000
1860
1C70
1860
0000
E01C
E01C
E01C
E01C
E01C
E01C
E01C
E01C
E01C
E01C
E01C
E01C
E01C
601C
703C
7838
3FF8
1FF0
0FC0
ENDCHAR
STARTCHAR 01DA
ENCODING 474
SWIDTH 640 0
DWIDTH 16 0
BBX 11 24 2 0
BITMAP
3080
1B80
0F00
0600
3080
71C0
31C0
0000
0000
0000
E0E0
E0E0
E0E0
E0E0
E0E0
E0E0
E0E0
E0E0
E0E0
E0E0
E0E0
FFE0
7F60
3C60
ENDCHAR
STARTCHAR 01DB
ENCODING 475
SWIDTH 720 0
DWIDTH 18 0
BBX 14 28 2 0
BITMAP
0400
0E00
0600
0300
0000
1860
1C70
1860
0000
E01C
E01C
E01C
E01C
E01C
E01C
E01C
E01C
E01C
E01C
E01C
E01C
E01C
601C
703C
7838
3FF8
1FF0
0FC0
ENDCHAR
STARTCHAR 01DC
ENCODING 476
SWIDTH 640 0
DWIDTH 16 0
BBX 11 25 2 0
BITMAP
0800
1800
0C00
0600
0000
3080
71C0
31C0
0000
0000
0000
E0E0
E0E0
E0E0
E0E0
E0E0
E0E0
E0E0
E0E0
E0E0
E0E0
E0E0
FFE0
7F60
3C60
ENDCHAR
STARTCHAR 01F8
ENCODING 504
SWIDTH 720 0
DWIDTH 18 0
BBX 14 25 2 0
BITMAP
0C00
1E00
0F00
0380
0100
0000
F01C
F01C
F81C
F81C
FC1C
EC1C
EE1C
E61C
E71C
E39C
E39C
E1DC
E1DC
E0FC
E0FC
E07C
E03C
E03C
E01C
ENDCHAR
STARTCHAR 01F9
ENCODING 505
SWIDTH 640 0
DWIDTH 16 0
BBX 12 22 2 1
BITMAP
1800
3C00
1E00
0E00
0700
0200
0000
0000
E7C0
EFE0
FFE0
F0E0
E070
E070
E070
E070
E070
E070
E070
E070
E070
E070
ENDCHAR
STARTCHAR 0251
ENCODING 593
SWIDTH 640 0
DWIDTH 16 0
BBX 14 14 1 0
BITMAP
0F38
3FF8
3DF8
7038
7038
E038
E038
E038
E038
F038
7078
7DF8
3FFC
1F1C
ENDCHAR
STARTCHAR 0261
ENCODING 609
SWIDTH 640 0
DWIDTH 16 0
BBX 13 20 1 -6
BITMAP
0F38
3FF8
3DF8
7078
7038
E038
E038
E038
E038
F038
7078
7DF8
3FF8
1F38
0038
0030
0070
30F0
7FE0
1F80
ENDCHAR
STARTCHAR 02BB
ENCODING 699
SWIDTH 280 0
DWIDTH 7 0
BBX 3 8 2 11
BITMAP
20
60
C0
C0
80
E0
E0
E0
ENDCHAR
STARTCHAR 02C7
ENCODING 711
SWIDTH 600 0
DWIDTH 15 0
BBX 13 10 1 11
BITMAP
E038
7070
7060
38E0
1DC0
1DC0
0F80
0700
0700
0200
ENDCHAR
STARTCHAR 02C9
ENCODING 713
SWIDTH 1000 0
DWIDTH 25 0
BBX 9 1 8 17
BITMAP
FF80
ENDCHAR
STARTCHAR 02CA
ENCODING 714
SWIDTH 600 0
DWIDTH 15 0
BBX 9 9 3 12
BITMAP
0180
0380
0700
0E00
3C00
7800
F000
E000
4000
ENDCHAR
STARTCHAR 02CB
ENCODING 715
SWIDTH 600 0
DWIDTH 15 0
BBX 9 9 3 12
BITMAP
4000
E000
F000
7800
1C00
0E00
0700
0380
0180
ENDCHAR
STARTCHAR 02D9
ENCODING 729
SWIDTH 520 0
DWIDTH 13 0
BBX 5 5 4 7
BITMAP
70
F0
F8
F0
70
ENDCHAR
STARTCHAR 02EA
ENCODING 746
SWIDTH 600 0
DWIDTH 15 0
BBX 8 13 4 9
BITMAP
C0
C0
C0
C0
C0
C0
C0
C0
C0
C0
C0
FF
FF
ENDCHAR
STARTCHAR 02EB
ENCODING 747
SWIDTH 600 0
DWIDTH 15 0
BBX 8 13 4 8
BITMAP
C0
C0
C0
C0
C0
FF
FF
C0
C0
C0
C0
C0
C0
ENDCHAR
STARTCHAR 0300
ENCODING 768
SWIDTH 0 0
DWIDTH 0 0
BBX 10 9 3 9
BITMAP
4000
E000
F000
3800
1C00
0E00
0700
03C0
0180
ENDCHAR
STARTCHAR 0301
ENCODING 769
SWIDTH 0 0
DWIDTH 0 0
BBX 9 9 3 10
BITMAP
0100
0380
0700
0E00
1C00
3800
7000
E000
4000
ENDCHAR
STARTCHAR 0304
ENCODING 772
SWIDTH 0 0
DWIDTH 0 0
BBX 8 2 -4 17
BITMAP
FF
FF
ENDCHAR
STARTCHAR 0307
ENCODING 775
SWIDTH 0 0
DWIDTH 0 0
BBX 5 5 5 17
BITMAP
70
F8
F8
F8
70
ENDCHAR
STARTCHAR 030C
ENCODING 780
SWIDTH 0 0
DWIDTH 0 0
BBX 13 10 1 8
BITMAP
E038
7070
3060
38E0
1DC0
0D80
0F80
0700
0600
0200
ENDCHAR
STARTCHAR 0391
ENCODING 913
SWIDTH 640 0
DWIDTH 16 0
BBX 15 19 0 0
BITMAP
03C0
03C0
07C0
06E0
06E0
0E60
0E70
0C70
1C70
1C38
1838
3FF8
3FF8
301C
701C
700C
700E
E00E
E00E
ENDCHAR
STARTCHAR 0392
ENCODING 914
SWIDTH 680 0
DWIDTH 17 0
BBX 14 19 2 0
BITMAP
FFC0
FFE0
E0F0
E070
E038
E038
E070
E0F0
FFE0
FFE0
E078
E038
E01C
E01C
E01C
E038
E0F8
FFF0
FFC0
ENDCHAR
STARTCHAR 0393
ENCODING 915
SWIDTH 560 0
DWIDTH 14 0
BBX 11 19 2 0
BITMAP
FFE0
FFE0
E000
E000
E000
E000
E000
E000
E000
E000
E000
E000
E000
E000
E000
E000
E000
E000
E000
ENDCHAR
STARTCHAR 0394
ENCODING 916
SWIDTH 680 0
DWIDTH 17 0
BBX 15 19 1 0
BITMAP
0380
07C0
07C0
06C0
0EE0
0CE0
0C60
1C70
1C70
1830
3838
3838
7018
701C
701C
E00E
E00E
FFFE
FFFE
ENDCHAR
STARTCHAR 0395
ENCODING 917
SWIDTH 600 0
DWIDTH 15 0
BBX 12 19 2 0
BITMAP
FFE0
FFE0
E000
E000
E000
E000
E000
E000
FFC0
FFC0
E000
E000
E000
E000
E000
E000
E000
FFF0
FFF0
ENDCHAR
STARTCHAR 0396
ENCODING 918
SWIDTH 600 0
DWIDTH 15 0
BBX 13 19 1 0
BITMAP
7FF8
7FF8
0078
0070
00E0
01E0
01C0
0380
0380
0700
0F00
0E00
1C00
1C00
3800
7000
7000
FFF8
FFF8
ENDCHAR
STARTCHAR 0397
ENCODING 919
SWIDTH 760 0
DWIDTH 19 0
BBX 14 19 2 0
BITMAP
E01C
E01C
E01C
E01C
E01C
E01C
E01C
E01C
FFFC
FFFC
FFFC
E01C
E01C
E01C
E01C
E01C
E01C
E01C
E01C
ENDCHAR
STARTCHAR 0398
ENCODING 920
SWIDTH 760 0
DWIDTH 19 0
BBX 16 19 1 0
BITMAP
03E0
0FF8
1FFC
3C1E
780E
7007
7007
7007
E7E7
E7E7
F7E7
7007
7007
7007
780E
3C1E
1FFC
0FF8
07E0
ENDCHAR
STARTCHAR 0399
ENCODING 921
SWIDTH 320 0
DWIDTH 8 0
BBX 3 19 2 0
BITMAP
E0
E0
E0
E0
E0
E0
E0
E0
E0
E0
E0
E0
E0
E0
E0
E0
E0
E0
E0
ENDCHAR
STARTCHAR 039A
ENCODING 922
SWIDTH 680 0
DWIDTH 17 0
BBX 14 19 2 0
BITMAP
E038
E070
E0F0
E0E0
E1C0
E380
E780
E700
EF80
FF80
FDC0
F9C0
F0E0
E0E0
E070
E078
E038
E03C
E01C
ENDCHAR
STARTCHAR 039B
ENCODING 923
SWIDTH 600 0
DWIDTH 15 0
BBX 15 19 0 0
BITMAP
0380
07C0
07C0
06C0
0EC0
0EE0
0CE0
1C60
1C70
1C70
1870
3838
3838
3038
701C
701C
701C
E01C
E00E
ENDCHAR
STARTCHAR 039C
ENCODING 924
SWIDTH 840 0
DWIDTH 21 0
BBX 16 19 2 0
BITMAP
F007
F00F
F80F
F80F
F81F
FC1B
EC1B
EC3B
EE33
E633
E673
E763
E363
E3C3
E1C3
E1C3
E183
E003
E003
ENDCHAR
STARTCHAR 039D
ENCODING 925
SWIDTH 720 0
DWIDTH 18 0
BBX 14 19 2 0
BITMAP
F01C
F01C
F81C
F81C
FC1C
EC1C
EE1C
E61C
E71C
E39C
E39C
E1DC
E1DC
E0FC
E0FC
E07C
E03C
E03C
E01C
ENDCHAR
STARTCHAR 039E
ENCODING 926
SWIDTH 600 0
DWIDTH 15 0
BBX 13 19 1 0
BITMAP
7FF8
7FF8
0000
0000
0000
0000
0000
0000
3FE0
3FE0
0000
0000
0000
0000
0000
0000
0000
FFF8
FFF8
ENDCHAR
STARTCHAR 039F
ENCODING 927
SWIDTH 760 0
DWIDTH 19 0
BBX 16 19 1 0
BITMAP
03E0
0FF8
1FFC
3C1E
780E
7007
7007
7007
E007
E007
E007
7007
7007
7007
780E
3C1E
1FFC
0FF8
07E0
ENDCHAR
STARTCHAR 03A0
ENCODING 928
SWIDTH 720 0
DWIDTH 18 0
BBX 14 19 2 0
BITMAP
FFFC
FFFC
E01C
E01C
E01C
E01C
E01C
E01C
E01C
E01C
E01C
E01C
E01C
E01C
E01C
E01C
E01C
E01C
E01C
ENDCHAR
STARTCHAR 03A1
ENCODING 929
SWIDTH 640 0
DWIDTH 16 0
BBX 13 19 2 0
BITMAP
FF80
FFE0
E1F0
E078
E038
E038
E038
E038
E078
E1F0
FFE0
FF80
E000
E000
E000
E000
E000
E000
E000
ENDCHAR
STARTCHAR 03A3
ENCODING 931
SWIDTH 600 0
DWIDTH 15 0
BBX 13 19 1 0
BITMAP
FFF0
FFF0
7000
3800
3C00
1C00
0E00
0700
0380
0380
0700
0700
0E00
1C00
3800
3800
7000
FFF8
FFF8
ENDCHAR
STARTCHAR 03A4
ENCODING 932
SWIDTH 600 0
DWIDTH 15 0
BBX 13 19 1 0
BITMAP
FFF8
FFF8
0700
0700
0700
0700
0700
0700
0700
0700
0700
0700
0700
0700
0700
0700
0700
0700
0700
ENDCHAR
STARTCHAR 03A5
ENCODING 933
SWIDTH 560 0
DWIDTH 14 0
BBX 14 19 0 0
BITMAP
E01C
7038
7038
3870
3870
3860
1CE0
1CC0
0FC0
0F80
0780
0700
0700
0700
0700
0700
0700
0700
0700
ENDCHAR
STARTCHAR 03A6
ENCODING 934
SWIDTH 840 0
DWIDTH 21 0
BBX 18 20 1 -1
BITMAP
00E000
00E000
00E000
07FC00
1FFF00
3CE780
70E380
70E1C0
E0E1C0
E0E1C0
E0E1C0
E0E1C0
70E1C0
78E380
3EEF80
1FFE00
07F800
00E000
00E000
00E000
ENDCHAR
STARTCHAR 03A7
ENCODING 935
SWIDTH 600 0
DWIDTH 15 0
BBX 13 19 1 0
BITMAP
E038
7070
7070
38E0
38E0
1DC0
1DC0
0F80
0F80
0700
0F80
1F80
1DC0
39E0
38E0
70F0
7070
E038
E038
ENDCHAR
STARTCHAR 03A8
ENCODING 936
SWIDTH 800 0
DWIDTH 20 0
BBX 16 19 2 0
BITMAP
E183
E183
E183
E183
E183
E187
E187
E187
F18F
7D9E
3FFC
1FF8
0180
0180
0180
0180
0180
0180
0180
ENDCHAR
STARTCHAR 03A9
ENCODING 937
SWIDTH 760 0
DWIDTH 19 0
BBX 17 19 1 0
BITMAP
03F000
0FF800
1FFC00
3C1E00
380F00
700700
700700
700380
700380
700380
700380
700700
700700
380700
380E00
1C0C00
0E1C00
FE3F80
FE3F80
ENDCHAR
STARTCHAR 03B1
ENCODING 945
SWIDTH 640 0
DWIDTH 16 0
BBX 15 14 1 0
BITMAP
0F1C
3F98
3DD8
7078
7078
E038
E038
E030
E070
E070
70F0
7DF8
3FBE
1F1E
ENDCHAR
STARTCHAR 03B2
ENCODING 946
SWIDTH 640 0
DWIDTH 16 0
BBX 13 25 2 -5
BITMAP
1F80
3FC0
70E0
F0E0
E060
E060
E0E0
E0E0
E3C0
E7C0
E7F0
E070
E038
E038
E038
E038
F078
FCF0
FFE0
E7C0
E000
E000
E000
E000
E000
ENDCHAR
STARTCHAR 03B3
ENCODING 947
SWIDTH 560 0
DWIDTH 14 0
BBX 12 19 1 -5
BITMAP
C030
E070
E070
7070
7060
38E0
38E0
18C0
1DC0
1D80
0F80
0F00
0F00
0E00
0E00
0600
0600
0600
0E00
ENDCHAR
STARTCHAR 03B4
ENCODING 948
SWIDTH 600 0
DWIDTH 15 0
BBX 13 20 1 0
BITMAP
1FE0
3FF0
3830
3800
3800
1C00
0F00
0780
0FC0
3CE0
7870
7070
E038
E038
E038
6038
7070
7DF0
3FE0
0F80
ENDCHAR
STARTCHAR 03B5
ENCODING 949
SWIDTH 520 0
DWIDTH 13 0
BBX 11 14 1 0
BITMAP
1F80
3FE0
78C0
7000
7000
7000
3F00
3F00
7000
E000
E000
78E0
7FE0
1F80
ENDCHAR
STARTCHAR 03B6
ENCODING 950
SWIDTH 480 0
DWIDTH 12 0
BBX 11 25 1 -5
BITMAP
7FE0
7FE0
01C0
0380
0700
0E00
1C00
1C00
3800
7000
7000
7000
E000
E000
E000
F000
7000
7C00
3F80
1FE0
01E0
00E0
00E0
00C0
00C0
ENDCHAR
STARTCHAR 03B7
ENCODING 951
SWIDTH 600 0
DWIDTH 15 0
BBX 11 19 2 -5
BITMAP
E780
EFE0
FFE0
F0E0
E060
E060
E060
E060
E060
E060
E060
E060
E060
E060
0060
0060
0060
0060
00E0
ENDCHAR
STARTCHAR 03B8
ENCODING 952
SWIDTH 600 0
DWIDTH 15 0
BBX 11 20 2 0
BITMAP
1F00
3F80
71C0
61C0
E0E0
E0E0
E0E0
C0E0
C0E0
FFE0
FFE0
C060
C0E0
E0E0
E0E0
E0E0
61C0
7BC0
3F80
1F00
ENDCHAR
STARTCHAR 03B9
ENCODING 953
SWIDTH 320 0
DWIDTH 8 0
BBX 5 14 2 0
BITMAP
E0
E0
E0
E0
E0
E0
E0
E0
E0
E0
E0
E0
78
78
ENDCHAR
STARTCHAR 03BA
ENCODING 954
SWIDTH 560 0
DWIDTH 14 0
BBX 12 14 2 0
BITMAP
E020
E0E0
E1E0
E3C0
E700
EE00
EE00
FF00
F700
F380
E1C0
E1C0
E0E0
E070
ENDCHAR
STARTCHAR 03BB
ENCODING 955
SWIDTH 560 0
DWIDTH 14 0
BBX 13 20 1 0
BITMAP
F800
FC00
0E00
0E00
0700
0700
0700
0780
0F80
0DC0
1DC0
1DC0
18E0
38E0
38E0
7070
7070
E070
E038
E038
ENDCHAR
STARTCHAR 03BC
ENCODING 956
SWIDTH 640 0
DWIDTH 16 0
BBX 13 19 2 -5
BITMAP
E060
E060
E060
E060
E060
E060
E060
E060
E060
E0E0
E0E0
FBF0
FF78
FE38
E000
E000
E000
E000
E000
ENDCHAR
STARTCHAR 03BD
ENCODING 957
SWIDTH 560 0
DWIDTH 14 0
BBX 12 14 1 0
BITMAP
C070
E070
E070
7070
7060
38E0
38E0
38C0
1DC0
1D80
1D80
0F00
0F00
0E00
ENDCHAR
STARTCHAR 03BE
ENCODING 958
SWIDTH 480 0
DWIDTH 12 0
BBX 11 26 1 -6
BITMAP
FFE0
FFE0
1E00
3800
3800
3800
3800
3800
1C00
0FC0
1FC0
3800
7000
6000
E000
E000
F000
7800
7F00
1FC0
07E0
00E0
0060
00E0
01C0
0040
ENDCHAR
STARTCHAR 03BF
ENCODING 959
SWIDTH 600 0
DWIDTH 15 0
BBX 13 14 1 0
BITMAP
0F80
3FE0
3DF0
7070
7038
E038
E038
E038
E038
7038
7070
3DF0
3FE0
0F80
ENDCHAR
STARTCHAR 03C0
ENCODING 960
SWIDTH 680 0
DWIDTH 17 0
BBX 15 14 1 0
BITMAP
FFFE
FFFE
1830
1830
1830
1830
1830
3830
3830
3830
3830
3838
383E
381E
ENDCHAR
STARTCHAR 03C1
ENCODING 961
SWIDTH 640 0
DWIDTH 16 0
BBX 12 19 2 -5
BITMAP
0F80
3FC0
7DE0
7070
E070
E070
E070
E070
E070
E070
E0F0
F9E0
FFC0
EF80
E000
E000
E000
E000
E000
ENDCHAR
STARTCHAR 03C2
ENCODING 962
SWIDTH 480 0
DWIDTH 12 0
BBX 10 19 1 -5
BITMAP
0F80
3FC0
7DC0
7000
F000
E000
E000
E000
E000
7000
7800
3E00
1F80
07C0
01C0
01C0
01C0
0380
0380
ENDCHAR
STARTCHAR 03C3
ENCODING 963
SWIDTH 640 0
DWIDTH 16 0
BBX 14 14 1 0
BITMAP
0FFC
3FFC
7DC0
7060
7070
E030
E038
E038
E030
F070
7070
7DE0
3FE0
0F80
ENDCHAR
STARTCHAR 03C4
ENCODING 964
SWIDTH 520 0
DWIDTH 13 0
BBX 11 14 1 0
BITMAP
FFE0
FFE0
0E00
0E00
0E00
0E00
0E00
0E00
0E00
0E00
0E00
0F00
07C0
07C0
ENDCHAR
STARTCHAR 03C5
ENCODING 965
SWIDTH 600 0
DWIDTH 15 0
BBX 11 14 2 0
BITMAP
C0C0
E1C0
E0E0
E0E0
E0E0
C0E0
C0E0
C0E0
C0E0
C0E0
E1C0
F3C0
7F80
3F00
ENDCHAR
STARTCHAR 03C6
ENCODING 966
SWIDTH 800 0
DWIDTH 20 0
BBX 17 23 1 -5
BITMAP
01C000
01C000
01C000
01C000
07F800
1FFE00
3DCF00
71C700
71C380
E1C380
E1C380
E1C380
E1C380
71C380
71C700
3DCF00
1FFE00
07F800
01C000
01C000
01C000
01C000
01C000
ENDCHAR
STARTCHAR 03C7
ENCODING 967
SWIDTH 560 0
DWIDTH 14 0
BBX 13 19 1 -5
BITMAP
C070
E070
F0E0
70E0
39C0
39C0
1F80
1F00
0F00
0700
0F00
0F80
1F80
39C0
38E0
70E0
7070
E070
E038
ENDCHAR
STARTCHAR 03C8
ENCODING 968
SWIDTH 800 0
DWIDTH 20 0
BBX 16 22 2 -5
BITMAP
0180
0180
0180
C186
E187
E187
E187
E187
E187
C183
C187
E187
E187
E18F
79BE
3FFC
0FF0
0180
0180
0180
0180
0180
ENDCHAR
STARTCHAR 03C9
ENCODING 969
SWIDTH 800 0
DWIDTH 20 0
BBX 18 14 1 0
BITMAP
300300
380700
780380
700380
700380
E1C1C0
E0C1C0
E0C1C0
E0C1C0
60C1C0
71E380
7BF780
3F3F00
1E1E00
ENDCHAR
STARTCHAR 0401
ENCODING 1025
SWIDTH 600 0
DWIDTH 15 0
BBX 12 24 2 0
BITMAP
30C0
38E0
30C0
0000
0000
FFE0
FFE0
E000
E000
E000
E000
E000
E000
FFC0
FFC0
E000
E000
E000
E000
E000
E000
E000
FFF0
FFF0
ENDCHAR
STARTCHAR 0410
ENCODING 1040
SWIDTH 640 0
DWIDTH 16 0
BBX 15 19 0 0
BITMAP
03C0
03C0
07C0
06E0
06E0
0E60
0E70
0C70
1C70
1C38
1838
3FF8
3FF8
301C
701C
700C
700E
E00E
E00E
ENDCHAR
STARTCHAR 0411
ENCODING 1041
SWIDTH 640 0
DWIDTH 16 0
BBX 13 19 2 0
BITMAP
FFF0
FFF0
E000
E000
E000
E000
E000
E000
FFC0
FFF0
E078
E038
E038
E038
E038
E038
E0F0
FFF0
FFC0
ENDCHAR
STARTCHAR 0412
ENCODING 1042
SWIDTH 680 0
DWIDTH 17 0
BBX 14 19 2 0
BITMAP
FFC0
FFE0
E0F0
E070
E038
E038
E070
E0F0
FFE0
FFE0
E078
E038
E01C
E01C
E01C
E038
E0F8
FFF0
FFC0
ENDCHAR
STARTCHAR 0413
ENCODING 1043
SWIDTH 560 0
DWIDTH 14 0
BBX 11 19 2 0
BITMAP
FFE0
FFE0
E000
E000
E000
E000
E000
E000
E000
E000
E000
E000
E000
E000
E000
E000
E000
E000
E000
ENDCHAR
STARTCHAR 0414
ENCODING 1044
SWIDTH 720 0
DWIDTH 18 0
BBX 17 24 1 -5
BITMAP
07FC00
0FFC00
0E0C00
0E0C00
0E0C00
0C0C00
0C0C00
1C0C00
1C0C00
1C0C00
1C0C00
180C00
380C00
380C00
380C00
700C00
700C00
FFFF80
FFFF80
C00380
C00300
C00300
C00300
C00300
ENDCHAR
STARTCHAR 0415
ENCODING 1045
SWIDTH 600 0
DWIDTH 15 0
BBX 12 19 2 0
BITMAP
FFE0
FFE0
E000
E000
E000
E000
E000
E000
FFC0
FFC0
E000
E000
E000
E000
E000
E000
E000
FFF0
FFF0
ENDCHAR
STARTCHAR 0416
ENCODING 1046
SWIDTH 920 0
DWIDTH 23 0
BBX 23 19 0 0
BITMAP
F0380E
78383E
78383C
1C3870
0C3870
0E38E0
0638E0
0739C0
07FFC0
07FFC0
0739C0
0E38E0
0E38E0
1C3870
1C3838
383838
38381C
70381C
F0380E
ENDCHAR
STARTCHAR 0417
ENCODING 1047
SWIDTH 640 0
DWIDTH 16 0
BBX 14 19 1 0
BITMAP
0FC0
3FE0
7FF0
2070
0038
0038
0030
00F0
0FE0
0FE0
0078
0038
001C
001C
0038
6038
FFF8
7FF0
0FC0
ENDCHAR
STARTCHAR 0418
ENCODING 1048
SWIDTH 760 0
DWIDTH 19 0
BBX 14 19 2 0
BITMAP
E01C
E03C
E03C
E07C
E06C
E0EC
E0DC
E1DC
E39C
E39C
E71C
E71C
EE1C
EE1C
FC1C
F81C
F81C
F01C
F01C
ENDCHAR
STARTCHAR 0419
ENCODING 1049
SWIDTH 760 0
DWIDTH 19 0
BBX 14 24 2 0
BITMAP
1C70
1C60
0FE0
0180
0000
E01C
E03C
E03C
E07C
E06C
E0EC
E0DC
E1DC
E39C
E39C
E71C
E71C
EE1C
EE1C
FC1C
F81C
F81C
F01C
F01C
ENDCHAR
STARTCHAR 041A
ENCODING 1050
SWIDTH 680 0
DWIDTH 17 0
BBX 14 19 2 0
BITMAP
E01C
E03C
E07C
E070
E0E0
E1C0
E1C0
E380
FF80
FF80
E380
E1C0
E1E0
E0E0
E070
E070
E038
E01C
E01C
ENDCHAR
STARTCHAR 041B
ENCODING 1051
SWIDTH 720 0
DWIDTH 18 0
BBX 16 19 0 0
BITMAP
03FF
03FF
0707
0707
0707
0707
0607
0607
0E07
0E07
0E07
0E07
0C07
1C07
1C07
1C07
F807
F807
F007
ENDCHAR
STARTCHAR 041C
ENCODING 1052
SWIDTH 840 0
DWIDTH 21 0
BBX 16 19 2 0
BITMAP
F007
F00F
F80F
F80F
F81F
FC1B
EC1B
EC3B
EE33
E633
E673
E763
E363
E3C3
E1C3
E1C3
E183
E003
E003
ENDCHAR
STARTCHAR 041D
ENCODING 1053
SWIDTH 760 0
DWIDTH 19 0
BBX 14 19 2 0
BITMAP
E01C
E01C
E01C
E01C
E01C
E01C
E01C
E01C
FFFC
FFFC
FFFC
E01C
E01C
E01C
E01C
E01C
E01C
E01C
E01C
ENDCHAR
STARTCHAR 041E
ENCODING 1054
SWIDTH 760 0
DWIDTH 19 0
BBX 16 19 1 0
BITMAP
03E0
0FF8
1FFC
3C1E
780E
7007
7007
7007
E007
E007
E007
7007
7007
7007
780E
3C1E
1FFC
0FF8
07E0
ENDCHAR
STARTCHAR 041F
ENCODING 1055
SWIDTH 720 0
DWIDTH 18 0
BBX 14 19 2 0
BITMAP
FFFC
FFFC
E01C
E01C
E01C
E01C
E01C
E01C
E01C
E01C
E01C
E01C
E01C
E01C
E01C
E01C
E01C
E01C
E01C
ENDCHAR
STARTCHAR 0420
ENCODING 1056
SWIDTH 640 0
DWIDTH 16 0
BBX 13 19 2 0
BITMAP
FF80
FFE0
E1F0
E078
E038
E038
E038
E038
E078
E1F0
FFE0
FF80
E000
E000
E000
E000
E000
E000
E000
ENDCHAR
STARTCHAR 0421
ENCODING 1057
SWIDTH 640 0
DWIDTH 16 0
BBX 14 19 1 0
BITMAP
03E0
0FF8
1FFC
3C08
7800
7000
7000
7000
E000
E000
E000
7000
7000
7000
7800
3C0C
1FFC
0FF8
03E0
ENDCHAR
STARTCHAR 0422
ENCODING 1058
SWIDTH 600 0
DWIDTH 15 0
BBX 13 19 1 0
BITMAP
FFF8
FFF8
0700
0700
0700
0700
0700
0700
0700
0700
0700
0700
0700
0700
0700
0700
0700
0700
0700
ENDCHAR
STARTCHAR 0423
ENCODING 1059
SWIDTH 600 0
DWIDTH 15 0
BBX 15 19 0 0
BITMAP
E00E
701C
701C
3818
3838
1838
1C70
1C70
0E60
0EE0
06E0
07C0
03C0
03C0
0380
0380
1F00
3E00
3C00
ENDCHAR
STARTCHAR 0424
ENCODING 1060
SWIDTH 840 0
DWIDTH 21 0
BBX 19 19 1 0
BITMAP
00E000
00E000
00E000
0FFC00
1FFF00
38E380
70E1C0
60E1C0
E0E0E0
E0E0E0
E0E0C0
60E1C0
70E1C0
38E380
1FFF00
0FFC00
00E000
00E000
00E000
ENDCHAR
STARTCHAR 0425
ENCODING 1061
SWIDTH 600 0
DWIDTH 15 0
BBX 13 19 1 0
BITMAP
E038
7070
7070
38E0
38E0
1DC0
1DC0
0F80
0F80
0700
0F80
1F80
1DC0
39E0
38E0
70F0
7070
E038
E038
ENDCHAR
STARTCHAR 0426
ENCODING 1062
SWIDTH 720 0
DWIDTH 18 0
BBX 16 24 2 -5
BITMAP
E01C
E01C
E01C
E01C
E01C
E01C
E01C
E01C
E01C
E01C
E01C
E01C
E01C
E01C
E01C
E01C
E01C
FFFF
FFFF
0007
0007
0007
0006
0006
ENDCHAR
STARTCHAR 0427
ENCODING 1063
SWIDTH 680 0
DWIDTH 17 0
BBX 13 19 2 0
BITMAP
E038
E038
E038
E038
E038
E038
E038
E038
F038
7FF8
3FF8
0038
0038
0038
0038
0038
0038
0038
0038
ENDCHAR
STARTCHAR 0428
ENCODING 1064
SWIDTH 1000 0
DWIDTH 25 0
BBX 20 19 2 0
BITMAP
E07070
E07070
E07070
E07070
E07070
E07070
E07070
E07070
E07070
E07070
E07070
E07070
E07070
E07070
E07070
E07070
E07070
FFFFF0
FFFFF0
ENDCHAR
STARTCHAR 0429
ENCODING 1065
SWIDTH 1000 0
DWIDTH 25 0
BBX 22 24 2 -5
BITMAP
E07070
E07070
E07070
E07070
E07070
E07070
E07070
E07070
E07070
E07070
E07070
E07070
E07070
E07070
E07070
E07070
E07070
FFFFFC
FFFFFC
00000C
00000C
00000C
00000C
00000C
ENDCHAR
STARTCHAR 042A
ENCODING 1066
SWIDTH 800 0
DWIDTH 20 0
BBX 18 19 1 0
BITMAP
FF0000
FF0000
030000
030000
030000
030000
030000
030000
03FE00
03FF80
030380
0301C0
0301C0
0301C0
0301C0
0301C0
030780
03FF00
03FE00
ENDCHAR
STARTCHAR 042B
ENCODING 1067
SWIDTH 920 0
DWIDTH 23 0
BBX 18 19 2 0
BITMAP
E000C0
E000C0
E000C0
E000C0
E000C0
E000C0
E000C0
E000C0
FFC0C0
FFE0C0
E0F0C0
E078C0
E038C0
E038C0
E038C0
E070C0
E1F0C0
FFE0C0
FF80C0
ENDCHAR
STARTCHAR 042C
ENCODING 1068
SWIDTH 640 0
DWIDTH 16 0
BBX 13 19 2 0
BITMAP
E000
E000
E000
E000
E000
E000
E000
E000
FFE0
FFF0
E078
E038
E038
E038
E038
E038
E0F0
FFF0
FFC0
ENDCHAR
STARTCHAR 042D
ENCODING 1069
SWIDTH 640 0
DWIDTH 16 0
BBX 14 19 1 0
BITMAP
1F80
7FE0
FFF0
6070
0038
0038
0038
001C
1FFC
1FFC
001C
001C
0018
0038
0038
4070
FFF0
7FE0
1F80
ENDCHAR
STARTCHAR 042E
ENCODING 1070
SWIDTH 1040 0
DWIDTH 26 0
BBX 22 19 2 0
BITMAP
E00F80
E03FE0
E07FF0
E0F078
E0E03C
E0E01C
E1C01C
E1C01C
FFC01C
FFC01C
FFC01C
E1C01C
E1C01C
E0E01C
E0E03C
E0F078
E07FF0
E03FE0
E00FC0
ENDCHAR
STARTCHAR 042F
ENCODING 1071
SWIDTH 680 0
DWIDTH 17 0
BBX 13 19 1 0
BITMAP
0FF8
3FF8
7C38
7038
7038
6038
7038
7038
7838
3FF8
1FF8
0E38
0E38
1C38
3C38
3838
7038
F038
E038
ENDCHAR
STARTCHAR 0430
ENCODING 1072
SWIDTH 560 0
DWIDTH 14 0
BBX 11 14 1 0
BITMAP
0F80
7FC0
79E0
00E0
00E0
01E0
1FE0
3C60
7060
E060
E0E0
73E0
7F60
3E60
ENDCHAR
STARTCHAR 0431
ENCODING 1073
SWIDTH 600 0
DWIDTH 15 0
BBX 13 20 1 0
BITMAP
00F0
07F0
1FF0
3E00
3800
7000
7000
67C0
6FF0
F870
F038
E038
E038
E038
6038
7038
7070
3CF0
1FE0
0F80
ENDCHAR
STARTCHAR 0432
ENCODING 1074
SWIDTH 560 0
DWIDTH 14 0
BBX 11 14 2 0
BITMAP
FF80
FFC0
E1E0
E0E0
E0E0
E1C0
FF80
FFC0
E0E0
E060
E060
E0E0
FFE0
FF80
ENDCHAR
STARTCHAR 0433
ENCODING 1075
SWIDTH 480 0
DWIDTH 12 0
BBX 9 14 2 0
BITMAP
FF80
FF80
E000
E000
E000
E000
E000
E000
E000
E000
E000
E000
E000
E000
ENDCHAR
STARTCHAR 0434
ENCODING 1076
SWIDTH 600 0
DWIDTH 15 0
BBX 15 19 0 -5
BITMAP
0FF8
0FF8
1C38
1C38
1C38
1C38
1C38
1838
1838
3838
3838
7038
FFFE
FFFE
600E
600E
600E
600E
600E
ENDCHAR
STARTCHAR 0435
ENCODING 1077
SWIDTH 560 0
DWIDTH 14 0
BBX 12 14 1 0
BITMAP
0F80
1FC0
38E0
7070
6070
E030
FFF0
FFF0
E000
E000
7000
3C60
3FF0
0FC0
ENDCHAR
STARTCHAR 0436
ENCODING 1078
SWIDTH 800 0
DWIDTH 20 0
BBX 18 14 1 0
BITMAP
E0C1C0
F0C3C0
F0C7C0
38C700
18C600
1CCE00
1FFC00
1FFE00
18CE00
38C700
70C700
70C380
E0C1C0
E0C1C0
ENDCHAR
STARTCHAR 0437
ENCODING 1079
SWIDTH 520 0
DWIDTH 13 0
BBX 11 14 1 0
BITMAP
3F00
FF80
63C0
01C0
00C0
01C0
1F80
1F80
01E0
00E0
00E0
E3E0
FFC0
3F00
ENDCHAR
STARTCHAR 0438
ENCODING 1080
SWIDTH 640 0
DWIDTH 16 0
BBX 12 14 2 0
BITMAP
E070
E0F0
E0F0
E1F0
E3F0
E370
E770
EE70
EC70
FC70
F870
F070
F070
E070
ENDCHAR
STARTCHAR 0439
ENCODING 1081
SWIDTH 640 0
DWIDTH 16 0
BBX 12 21 2 0
BITMAP
30E0
30C0
38C0
1F80
0600
0000
0000
E070
E0F0
E0F0
E1F0
E3F0
E370
E770
EE70
EC70
FC70
F870
F070
F070
E070
ENDCHAR
STARTCHAR 043A
ENCODING 1082
SWIDTH 560 0
DWIDTH 14 0
BBX 12 14 2 0
BITMAP
E0E0
E1E0
E1E0
E380
E300
E700
FF00
FF00
E380
E380
E1C0
E1E0
E0E0
E070
ENDCHAR
STARTCHAR 043B
ENCODING 1083
SWIDTH 600 0
DWIDTH 15 0
BBX 13 14 0 0
BITMAP
0FF8
0FF8
0C38
0C38
0C38
1C38
1C38
1C38
1C38
1C38
1838
7838
F838
E038
ENDCHAR
STARTCHAR 043C
ENCODING 1084
SWIDTH 720 0
DWIDTH 18 0
BBX 14 14 2 0
BITMAP
F03C
F03C
F03C
D86C
D87C
FCFC
ECDC
ECDC
E79C
E79C
E79C
E31C
E01C
E01C
ENDCHAR
STARTCHAR 043D
ENCODING 1085
SWIDTH 640 0
DWIDTH 16 0
BBX 12 14 2 0
BITMAP
E070
E070
E070
E070
E070
FFF0
FFF0
FFF0
E070
E070
E070
E070
E070
E070
ENDCHAR
STARTCHAR 043E
ENCODING 1086
SWIDTH 600 0
DWIDTH 15 0
BBX 13 14 1 0
BITMAP
0F80
1FE0
3DF0
7070
7038
E038
E038
E038
E038
7038
7070
3DF0
3FE0
0F80
ENDCHAR
STARTCHAR 043F
ENCODING 1087
SWIDTH 640 0
DWIDTH 16 0
BBX 12 14 2 0
BITMAP
FFF0
FFF0
E070
E070
E070
E070
E070
E070
E070
E070
E070
E070
E070
E070
ENDCHAR
STARTCHAR 0440
ENCODING 1088
SWIDTH 640 0
DWIDTH 16 0
BBX 12 20 2 -6
BITMAP
E780
FFE0
FDE0
F070
E070
E070
E070
E070
E070
E070
E0F0
F9E0
FFC0
EF80
E000
E000
E000
E000
E000
E000
ENDCHAR
STARTCHAR 0441
ENCODING 1089
SWIDTH 520 0
DWIDTH 13 0
BBX 11 14 1 0
BITMAP
0F80
1FE0
3EC0
7000
7000
E000
E000
E000
E000
7000
7000
3CE0
3FE0
0F80
ENDCHAR
STARTCHAR 0442
ENCODING 1090
SWIDTH 520 0
DWIDTH 13 0
BBX 11 14 1 0
BITMAP
FFE0
FFE0
0E00
0E00
0E00
0E00
0E00
0E00
0E00
0E00
0E00
0E00
0E00
0E00
ENDCHAR
STARTCHAR 0443
ENCODING 1091
SWIDTH 560 0
DWIDTH 14 0
BBX 13 20 0 -6
BITMAP
E038
7038
7030
3070
3870
3860
1CE0
1CE0
0CC0
0CC0
0FC0
0780
0780
0380
0300
0700
0700
1E00
7C00
7800
ENDCHAR
STARTCHAR 0444
ENCODING 1092
SWIDTH 840 0
DWIDTH 21 0
BBX 19 26 1 -6
BITMAP
00E000
00E000
00E000
00E000
00E000
00E000
1EEF00
3FFF80
7DF7C0
70E1C0
70E1E0
E0E0E0
E0E0E0
E0E0E0
E0E0E0
F0E1C0
70E1C0
7DF7C0
3FFF80
1EEF00
00E000
00E000
00E000
00E000
00E000
00E000
ENDCHAR
STARTCHAR 0445
ENCODING 1093
SWIDTH 520 0
DWIDTH 13 0
BBX 11 14 1 0
BITMAP
E0E0
70E0
71C0
3980
3B80
1F00
0F00
1F00
1F00
3B80
73C0
71C0
E0E0
E0E0
ENDCHAR
STARTCHAR 0446
ENCODING 1094
SWIDTH 640 0
DWIDTH 16 0
BBX 13 19 2 -5
BITMAP
E060
E060
E060
E060
E060
E060
E060
E060
E060
E060
E060
E060
FFF8
FFF8
0018
0018
0018
0018
0018
ENDCHAR
STARTCHAR 0447
ENCODING 1095
SWIDTH 600 0
DWIDTH 15 0
BBX 11 14 2 0
BITMAP
C0E0
C0E0
C0E0
C0E0
C0E0
E0E0
F1E0
7FE0
3FE0
00E0
00E0
00E0
00E0
00E0
ENDCHAR
STARTCHAR 0448
ENCODING 1096
SWIDTH 880 0
DWIDTH 22 0
BBX 17 14 2 0
BITMAP
E1C180
E1C180
E1C180
E1C180
E1C180
E1C180
E1C180
E1C180
E1C180
E1C180
E1C180
E1C180
FFFF80
FFFF80
ENDCHAR
STARTCHAR 0449
ENCODING 1097
SWIDTH 880 0
DWIDTH 22 0
BBX 19 19 2 -5
BITMAP
E1C180
E1C180
E1C180
E1C180
E1C180
E1C180
E1C180
E1C180
E1C180
E1C180
E1C180
E1C180
FFFFE0
FFFFE0
000060
000060
000060
000060
000060
ENDCHAR
STARTCHAR 044A
ENCODING 1098
SWIDTH 680 0
DWIDTH 17 0
BBX 15 14 1 0
BITMAP
FE00
FE00
0E00
0E00
0E00
0FF0
0FFC
0E1C
0E0E
0E0E
0E0E
0E1C
0FFC
0FF0
ENDCHAR
STARTCHAR 044B
ENCODING 1099
SWIDTH 800 0
DWIDTH 20 0
BBX 15 14 2 0
BITMAP
E00E
E00E
E00E
E00E
E00E
FF0E
FF8E
E3CE
E1CE
E1CE
E1CE
E3CE
FF8E
FF0E
ENDCHAR
STARTCHAR 044C
ENCODING 1100
SWIDTH 560 0
DWIDTH 14 0
BBX 11 14 2 0
BITMAP
E000
E000
E000
E000
E000
FF00
FFC0
E1E0
E0E0
E0E0
E0E0
E1C0
FFC0
FF00
ENDCHAR
STARTCHAR 044D
ENCODING 1101
SWIDTH 520 0
DWIDTH 13 0
BBX 11 14 1 0
BITMAP
3E00
FF00
6380
01C0
01C0
00E0
3FE0
3FE0
00E0
00C0
01C0
C380
FF80
7E00
ENDCHAR
STARTCHAR 044E
ENCODING 1102
SWIDTH 840 0
DWIDTH 21 0
BBX 18 14 2 0
BITMAP
E07C00
E0FF00
E1EF80
E38380
E383C0
FF01C0
FF01C0
FF01C0
E381C0
E38380
E38380
E1EF80
E0FF00
E07C00
ENDCHAR
STARTCHAR 044F
ENCODING 1103
SWIDTH 600 0
DWIDTH 15 0
BBX 12 14 1 0
BITMAP
1FF0
3FF0
7870
7070
7070
7070
7870
3FF0
0FF0
1C70
3870
3870
7070
E070
ENDCHAR
STARTCHAR 0451
ENCODING 1105
SWIDTH 560 0
DWIDTH 14 0
BBX 12 19 1 0
BITMAP
38E0
38E0
38C0
0000
0000
0F80
1FC0
38E0
7070
6070
E030
FFF0
FFF0
E000
E000
7000
3C60
3FF0
0FC0
ENDCHAR
STARTCHAR 1E3E
ENCODING 7742
SWIDTH 840 0
DWIDTH 21 0
BBX 16 25 2 0
BITMAP
0020
0070
00E0
01C0
0180
0000
F007
F00F
F80F
F80F
F81F
FC1B
EC1B
EC3B
EE33
E633
E673
E763
E363
E3C3
E1C3
E1C3
E183
E003
E003
ENDCHAR
STARTCHAR 1E3F
ENCODING 7743
SWIDTH 960 0
DWIDTH 24 0
BBX 20 23 2 0
BITMAP
000800
000C00
001C00
003800
007000
006000
000000
000000
000000
E78780
EFCFE0
FFFFE0
F0F0E0
E0E070
E0E070
E0E070
E0E070
E0E070
E0E070
E0E070
E0E070
E0E070
E0E070
ENDCHAR
STARTCHAR 1EA0
ENCODING 7840
SWIDTH 640 0
DWIDTH 16 0
BBX 15 25 0 -6
BITMAP
03C0
03C0
07C0
06E0
06E0
0E60
0E70
0C70
1C70
1C38
1838
3FF8
3FF8
301C
701C
700C
700E
E00E
E00E
0000
0000
0000
0380
0380
0380
ENDCHAR
STARTCHAR 1EA1
ENCODING 7841
SWIDTH 560 0
DWIDTH 14 0
BBX 11 20 1 -6
BITMAP
0F80
7FC0
79E0
00E0
00E0
01E0
1FE0
3C60
7060
E060
E0E0
73E0
7F60
3E60
0000
0000
0000
0F00
0F00
0600
ENDCHAR
STARTCHAR 1EA2
ENCODING 7842
SWIDTH 640 0
DWIDTH 16 0
BBX 15 25 0 0
BITMAP
0380
03C0
00C0
01C0
0100
0000
03C0
03C0
07C0
06E0
06E0
0E60
0E70
0C70
1C70
1C38
1838
3FF8
3FF8
301C
701C
700C
700E
E00E
E00E
ENDCHAR
STARTCHAR 1EA3
ENCODING 7843
SWIDTH 560 0
DWIDTH 14 0
BBX 11 22 1 0
BITMAP
0600
0700
0380
0180
0380
0600
0000
0000
0F80
7FC0
79E0
00E0
00E0
01E0
1FE0
3C60
7060
E060
E0E0
73E0
7F60
3E60
ENDCHAR
STARTCHAR 1EA4
ENCODING 7844
SWIDTH 640 0
DWIDTH 16 0
BBX 15 25 0 1
BITMAP
000C
0018
07D0
0EE0
0C20
0000
03C0
03C0
07C0
06E0
06E0
0E60
0E70
0C70
1C70
1C38
1838
3FF8
3FF8
301C
701C
700C
700E
E00E
E00E
ENDCHAR
STARTCHAR 1EA5
ENCODING 7845
SWIDTH 560 0
DWIDTH 14 0
BBX 13 22 1 0
BITMAP
0018
0018
0730
0FA0
1DC0
1040
0000
0000
0F80
7FC0
79E0
00E0
00E0
01E0
1FE0
3C60
7060
E060
E0E0
73E0
7F60
3E60
ENDCHAR
STARTCHAR 1EA6
ENCODING 7846
SWIDTH 640 0
DWIDTH 16 0
BBX 15 25 0 1
BITMAP
3000
3000
1FC0
0EE0
0C20
0000
03C0
03C0
07C0
06E0
06E0
0E60
0E70
0C70
1C70
1C38
1838
3FF8
3FF8
301C
701C
700C
700E
E00E
E00E
ENDCHAR
STARTCHAR 1EA7
ENCODING 7847
SWIDTH 560 0
DWIDTH 14 0
BBX 11 22 1 0
BITMAP
C000
C000
6700
2F80
1DC0
1040
0000
0000
0F80
7FC0
79E0
00E0
00E0
01E0
1FE0
3C60
7060
E060
E0E0
73E0
7F60
3E60
ENDCHAR
STARTCHAR 1EA8
ENCODING 7848
SWIDTH 640 0
DWIDTH 16 0
BBX 15 26 0 0
BITMAP
0038
001C
000C
07D8
0EE0
0C20
0000
03C0
03C0
07C0
06E0
06E0
0E60
0E70
0C70
1C70
1C38
1838
3FF8
3FF8
301C
701C
700C
700E
E00E
E00E
ENDCHAR
STARTCHAR 1EA9
ENCODING 7849
SWIDTH 560 0
DWIDTH 14 0
BBX 13 22 1 0
BITMAP
0070
0018
0718
0FB0
1DC0
1040
0000
0000
0F80
7FC0
79E0
00E0
00E0
01E0
1FE0
3C60
7060
E060
E0E0
73E0
7F60
3E60
ENDCHAR
STARTCHAR 1EAA
ENCODING 7850
SWIDTH 640 0
DWIDTH 16 0
BBX 15 27 0 0
BITMAP
0F30
0FF0
08E0
0000
07C0
0EE0
0420
0000
03C0
03C0
07C0
06E0
06E0
0E60
0E70
0C70
1C70
1C38
1838
3FF8
3FF8
301C
701C
700C
700E
E00E
E00E
ENDCHAR
STARTCHAR 1EAB
ENCODING 7851
SWIDTH 560 0
DWIDTH 14 0
BBX 11 23 1 0
BITMAP
0C60
1FC0
11C0
0700
0F80
1DC0
1040
0000
0000
0F80
7FC0
79E0
00E0
00E0
01E0
1FE0
3C60
7060
E060
E0E0
73E0
7F60
3E60
ENDCHAR
STARTCHAR 1EAC
ENCODING 7852
SWIDTH 640 0
DWIDTH 16 0
BBX 15 30 0 -6
BITMAP
03C0
07E0
0C70
0820
0000
03C0
03C0
07C0
06E0
06E0
0E60
0E70
0C70
1C70
1C38
1838
3FF8
3FF8
301C
701C
700C
700E
E00E
E00E
0000
0000
0000
0380
0380
0380
ENDCHAR
STARTCHAR 1EAD
ENCODING 7853
SWIDTH 560 0
DWIDTH 14 0
BBX 11 27 1 -6
BITMAP
0700
0F80
1DC0
38E0
1060
0000
0000
0F80
7FC0
79E0
00E0
00E0
01E0
1FE0
3C60
7060
E060
E0E0
73E0
7F60
3E60
0000
0000
0000
0F00
0F00
0600
ENDCHAR
STARTCHAR 1EAE
ENCODING 7854
SWIDTH 640 0
DWIDTH 16 0
BBX 15 27 0 1
BITMAP
00E0
00C0
0180
0830
0C70
07E0
0380
0000
03C0
03C0
07C0
06E0
06E0
0E60
0E70
0C70
1C70
1C38
1838
3FF8
3FF8
301C
701C
700C
700E
E00E
E00E
ENDCHAR
STARTCHAR 1EAF
ENCODING 7855
SWIDTH 560 0
DWIDTH 14 0
BBX 11 23 1 1
BITMAP
0180
0380
1340
3260
3860
1FC0
0F80
0000
0000
0F80
7FC0
79E0
00E0
00E0
01E0
1FE0
3C60
7060
E060
E0E0
73E0
7F60
3E60
ENDCHAR
STARTCHAR 1EB0
ENCODING 7856
SWIDTH 640 0
DWIDTH 16 0
BBX 15 27 0 1
BITMAP
0600
0700
0380
0930
0C70
07E0
0380
0000
03C0
03C0
07C0
06E0
06E0
0E60
0E70
0C70
1C70
1C38
1838
3FF8
3FF8
301C
701C
700C
700E
E00E
E00E
ENDCHAR
STARTCHAR 1EB1
ENCODING 7857
SWIDTH 560 0
DWIDTH 14 0
BBX 11 24 1 0
BITMAP
0400
0C00
0600
1740
3260
3860
1FC0
0F80
0000
0000
0F80
7FC0
79E0
00E0
00E0
01E0
1FE0
3C60
7060
E060
E0E0
73E0
7F60
3E60
ENDCHAR
STARTCHAR 1EB2
ENCODING 7858
SWIDTH 640 0
DWIDTH 16 0
BBX 15 27 0 0
BITMAP
0380
00C0
00C0
09B0
0C70
07E0
0380
0000
03C0
03C0
07C0
06E0
06E0
0E60
0E70
0C70
1C70
1C38
1838
3FF8
3FF8
301C
701C
700C
700E
E00E
E00E
ENDCHAR
STARTCHAR 1EB3
ENCODING 7859
SWIDTH 560 0
DWIDTH 14 0
BBX 11 24 1 0
BITMAP
0600
0780
0180
0300
3260
3860
1FC0
0F80
0000
0000
0F80
7FC0
79E0
00E0
00E0
01E0
1FE0
3C60
7060
E060
E0E0
73E0
7F60
3E60
ENDCHAR
STARTCHAR 1EB4
ENCODING 7860
SWIDTH 640 0
DWIDTH 16 0
BBX 15 27 0 0
BITMAP
0F30
0FF0
08E0
0820
0C30
07E0
0100
0000
03C0
03C0
07C0
06E0
06E0
0E60
0E70
0C70
1C70
1C38
1838
3FF8
3FF8
301C
701C
700C
700E
E00E
E00E
ENDCHAR
STARTCHAR 1EB5
ENCODING 7861
SWIDTH 560 0
DWIDTH 14 0
BBX 11 23 1 0
BITMAP
0C60
1FC0
11C0
0000
1060
1FC0
0F80
0000
0000
0F80
7FC0
79E0
00E0
00E0
01E0
1FE0
3C60
7060
E060
E0E0
73E0
7F60
3E60
ENDCHAR
STARTCHAR 1EB6
ENCODING 7862
SWIDTH 640 0
DWIDTH 16 0
BBX 15 30 0 -6
BITMAP
0830
0C70
0FE0
03C0
0000
03C0
03C0
07C0
06E0
06E0
0E60
0E70
0C70
1C70
1C38
1838
3FF8
3FF8
301C
701C
700C
700E
E00E
E00E
0000
0000
0000
0380
0380
0380
ENDCHAR
STARTCHAR 1EB7
ENCODING 7863
SWIDTH 560 0
DWIDTH 14 0
BBX 11 27 1 -6
BITMAP
1040
3060
38E0
1FC0
0F80
0000
0000
0F80
7FC0
79E0
00E0
00E0
01E0
1FE0
3C60
7060
E060
E0E0
73E0
7F60
3E60
0000
0000
0000
0F00
0F00
0600
ENDCHAR
STARTCHAR 1EB8
ENCODING 7864
SWIDTH 600 0
DWIDTH 15 0
BBX 12 25 2 -6
BITMAP
FFE0
FFE0
E000
E000
E000
E000
E000
E000
FFC0
FFC0
E000
E000
E000
E000
E000
E000
E000
FFF0
FFF0
0000
0000
0000
0700
0700
0700
ENDCHAR
STARTCHAR 1EB9
ENCODING 7865
SWIDTH 560 0
DWIDTH 14 0
BBX 12 20 1 -6
BITMAP
0F80
1FC0
38E0
7070
6070
E030
FFF0
FFF0
E000
E000
7000
3C60
3FF0
0FC0
0000
0000
0000
0700
0700
0700
ENDCHAR
STARTCHAR 1EBA
ENCODING 7866
SWIDTH 600 0
DWIDTH 15 0
BBX 12 25 2 0
BITMAP
0E00
0F00
0380
0700
0600
0000
FFE0
FFE0
E000
E000
E000
E000
E000
E000
FFC0
FFC0
E000
E000
E000
E000
E000
E000
E000
FFF0
FFF0
ENDCHAR
STARTCHAR 1EBB
ENCODING 7867
SWIDTH 560 0
DWIDTH 14 0
BBX 12 22 1 0
BITMAP
0E00
0F00
0380
0180
0700
0600
0000
0000
0F80
1FC0
38E0
7070
6070
E030
FFF0
FFF0
E000
E000
7000
3C60
3FF0
0FC0
ENDCHAR
STARTCHAR 1EBC
ENCODING 7868
SWIDTH 600 0
DWIDTH 15 0
BBX 12 24 2 0
BITMAP
3C60
7E60
67E0
63C0
0000
FFE0
FFE0
E000
E000
E000
E000
E000
E000
FFC0
FFC0
E000
E000
E000
E000
E000
E000
E000
FFF0
FFF0
ENDCHAR
STARTCHAR 1EBD
ENCODING 7869
SWIDTH 560 0
DWIDTH 14 0
BBX 12 20 1 0
BITMAP
1C20
3E60
33E0
61C0
0000
0000
0F80
1FC0
38E0
7070
6070
E030
FFF0
FFF0
E000
E000
7000
3C60
3FF0
0FC0
ENDCHAR
STARTCHAR 1EBE
ENCODING 7870
SWIDTH 600 0
DWIDTH 15 0
BBX 12 25 2 1
BITMAP
0030
0070
0F60
1980
1080
0000
FFE0
FFE0
E000
E000
E000
E000
E000
E000
FFC0
FFC0
E000
E000
E000
E000
E000
E000
E000
FFF0
FFF0
ENDCHAR
STARTCHAR 1EBF
ENCODING 7871
SWIDTH 560 0
DWIDTH 14 0
BBX 13 22 1 0
BITMAP
0018
0018
0730
0FA0
1DC0
1040
0000
0000
0F80
1FC0
38E0
7070
6070
E030
FFF0
FFF0
E000
E000
7000
3C60
3FF0
0FC0
ENDCHAR
STARTCHAR 1EC0
ENCODING 7872
SWIDTH 600 0
DWIDTH 15 0
BBX 12 25 2 1
BITMAP
C000
6000
2F00
1980
1080
0000
FFE0
FFE0
E000
E000
E000
E000
E000
E000
FFC0
FFC0
E000
E000
E000
E000
E000
E000
E000
FFF0
FFF0
ENDCHAR
STARTCHAR 1EC1
ENCODING 7873
SWIDTH 560 0
DWIDTH 14 0
BBX 12 22 1 0
BITMAP
8000
C000
6700
2F80
1DC0
1040
0000
0000
0F80
1FC0
38E0
7070
6070
E030
FFF0
FFF0
E000
E000
7000
3C60
3FF0
0FC0
ENDCHAR
STARTCHAR 1EC2
ENCODING 7874
SWIDTH 600 0
DWIDTH 15 0
BBX 12 26 2 0
BITMAP
0060
0070
0030
0F70
1980
1080
0000
FFE0
FFE0
E000
E000
E000
E000
E000
E000
FFC0
FFC0
E000
E000
E000
E000
E000
E000
E000
FFF0
FFF0
ENDCHAR
STARTCHAR 1EC3
ENCODING 7875
SWIDTH 560 0
DWIDTH 14 0
BBX 13 22 1 0
BITMAP
0070
0018
0738
0FA0
1DC0
1040
0000
0000
0F80
1FC0
38E0
7070
6070
E030
FFF0
FFF0
E000
E000
7000
3C60
3FF0
0FC0
ENDCHAR
STARTCHAR 1EC4
ENCODING 7876
SWIDTH 600 0
DWIDTH 15 0
BBX 12 27 2 0
BITMAP
1E40
3FC0
3180
0000
0F00
1980
1080
0000
FFE0
FFE0
E000
E000
E000
E000
E000
E000
FFC0
FFC0
E000
E000
E000
E000
E000
E000
E000
FFF0
FFF0
ENDCHAR
STARTCHAR 1EC5
ENCODING 7877
SWIDTH 560 0
DWIDTH 14 0
BBX 12 23 1 0
BITMAP
0C40
1FC0
13C0
0000
0700
0F80
18C0
0000
0000
0F80
1FC0
38E0
7070
6070
E030
FFF0
FFF0
E000
E000
7000
3C60
3FF0
0FC0
ENDCHAR
STARTCHAR 1EC6
ENCODING 7878
SWIDTH 600 0
DWIDTH 15 0
BBX 12 30 2 -6
BITMAP
0F00
1F80
39C0
3040
0000
FFE0
FFE0
E000
E000
E000
E000
E000
E000
FFC0
FFC0
E000
E000
E000
E000
E000
E000
E000
FFF0
FFF0
0000
0000
0000
0700
0700
0700
ENDCHAR
STARTCHAR 1EC7
ENCODING 7879
SWIDTH 560 0
DWIDTH 14 0
BBX 12 27 1 -6
BITMAP
0700
0F80
1DC0
38E0
3060
0000
0000
0F80
1FC0
38E0
7070
6070
E030
FFF0
FFF0
E000
E000
7000
3C60
3FF0
0FC0
0000
0000
0000
0700
0700
0700
ENDCHAR
STARTCHAR 1EC8
ENCODING 7880
SWIDTH 320 0
DWIDTH 8 0
BBX 4 25 2 0
BITMAP
E0
F0
30
70
60
00
E0
E0
E0
E0
E0
E0
E0
E0
E0
E0
E0
E0
E0
E0
E0
E0
E0
E0
E0
ENDCHAR
STARTCHAR 1EC9
ENCODING 7881
SWIDTH 280 0
DWIDTH 7 0
BBX 4 22 2 0
BITMAP
C0
E0
70
30
E0
40
00
00
E0
E0
E0
E0
E0
E0
E0
E0
E0
E0
E0
E0
E0
E0
ENDCHAR
STARTCHAR 1ECA
ENCODING 7882
SWIDTH 320 0
DWIDTH 8 0
BBX 4 25 2 -6
BITMAP
E0
E0
E0
E0
E0
E0
E0
E0
E0
E0
E0
E0
E0
E0
E0
E0
E0
E0
E0
00
00
00
E0
F0
60
ENDCHAR
STARTCHAR 1ECB
ENCODING 7883
SWIDTH 280 0
DWIDTH 7 0
BBX 3 26 2 -6
BITMAP
E0
E0
E0
00
00
00
E0
E0
E0
E0
E0
E0
E0
E0
E0
E0
E0
E0
E0
E0
00
00
00
E0
E0
E0
ENDCHAR
STARTCHAR 1ECC
ENCODING 7884
SWIDTH 760 0
DWIDTH 19 0
BBX 16 25 1 -6
BITMAP
03E0
0FF8
1FFC
3C1E
780E
7007
7007
7007
E007
E007
E007
7007
7007
7007
780E
3C1E
1FFC
0FF8
07E0
0000
0000
0000
01C0
01C0
01C0
ENDCHAR
STARTCHAR 1ECD
ENCODING 7885
SWIDTH 600 0
DWIDTH 15 0
BBX 13 20 1 -6
BITMAP
0F80
1FE0
3DF0
7070
7038
E038
E038
E038
E038
7038
7070
3DF0
3FE0
0F80
0000
0000
0000
0700
0700
0700
ENDCHAR
STARTCHAR 1ECE
ENCODING 7886
SWIDTH 760 0
DWIDTH 19 0
BBX 16 25 1 0
BITMAP
0180
03E0
0060
00E0
01C0
0000
03E0
0FF8
1FFC
3C1E
780E
7007
7007
7007
E007
E007
E007
7007
7007
7007
780E
3C1E
1FFC
0FF8
07E0
ENDCHAR
STARTCHAR 1ECF
ENCODING 7887
SWIDTH 600 0
DWIDTH 15 0
BBX 13 22 1 0
BITMAP
0600
0780
0380
0180
0380
0200
0000
0000
0F80
1FE0
3DF0
7070
7038
E038
E038
E038
E038
7038
7070
3DF0
3FE0
0F80
ENDCHAR
STARTCHAR 1ED0
ENCODING 7888
SWIDTH 760 0
DWIDTH 19 0
BBX 16 25 1 0
BITMAP
0004
000E
01D8
03E0
0630
0000
03E0
0FF8
1FFC
3C1E
780E
7007
7007
7007
E007
E007
E007
7007
7007
7007
780E
3C1E
1FFC
0FF8
07E0
ENDCHAR
STARTCHAR 1ED1
ENCODING 7889
SWIDTH 600 0
DWIDTH 15 0
BBX 13 22 1 0
BITMAP
0018
0018
0730
0FA0
1DC0
1040
0000
0000
0F80
1FE0
3DF0
7070
7038
E038
E038
E038
E038
7038
7070
3DF0
3FE0
0F80
ENDCHAR
STARTCHAR 1ED2
ENCODING 7890
SWIDTH 760 0
DWIDTH 19 0
BBX 16 25 1 0
BITMAP
1000
3800
0DC0
03E0
0630
0000
03E0
0FF8
1FFC
3C1E
780E
7007
7007
7007
E007
E007
E007
7007
7007
7007
780E
3C1E
1FFC
0FF8
07E0
ENDCHAR
STARTCHAR 1ED3
ENCODING 7891
SWIDTH 600 0
DWIDTH 15 0
BBX 13 22 1 0
BITMAP
C000
E000
6700
2F80
1DC0
1040
0000
0000
0F80
1FE0
3DF0
7070
7038
E038
E038
E038
E038
7038
7070
3DF0
3FE0
0F80
ENDCHAR
STARTCHAR 1ED4
ENCODING 7892
SWIDTH 760 0
DWIDTH 19 0
BBX 16 26 1 0
BITMAP
0018
001C
0006
01CC
03E8
0630
0000
03E0
0FF8
1FFC
3C1E
780E
7007
7007
7007
E007
E007
E007
7007
7007
7007
780E
3C1E
1FFC
0FF8
07E0
ENDCHAR
STARTCHAR 1ED5
ENCODING 7893
SWIDTH 600 0
DWIDTH 15 0
BBX 13 22 1 0
BITMAP
0070
0018
0718
0FB0
1DC0
1040
0000
0000
0F80
1FE0
3DF0
7070
7038
E038
E038
E038
E038
7038
7070
3DF0
3FE0
0F80
ENDCHAR
STARTCHAR 1ED6
ENCODING 7894
SWIDTH 760 0
DWIDTH 19 0
BBX 16 27 1 0
BITMAP
0718
07F0
0CF0
0000
01C0
03E0
0630
0000
03E0
0FF8
1FFC
3C1E
780E
7007
7007
7007
E007
E007
E007
7007
7007
7007
780E
3C1E
1FFC
0FF8
07E0
ENDCHAR
STARTCHAR 1ED7
ENCODING 7895
SWIDTH 600 0
DWIDTH 15 0
BBX 13 23 1 0
BITMAP
0C60
1FC0
11C0
0700
0F80
1DC0
1040
0000
0000
0F80
1FE0
3DF0
7070
7038
E038
E038
E038
E038
7038
7070
3DF0
3FE0
0F80
ENDCHAR
STARTCHAR 1ED8
ENCODING 7896
SWIDTH 760 0
DWIDTH 19 0
BBX 16 30 1 -6
BITMAP
03C0
0360
0630
0C10
0000
03E0
0FF8
1FFC
3C1E
780E
7007
7007
7007
E007
E007
E007
7007
7007
7007
780E
3C1E
1FFC
0FF8
07E0
0000
0000
0000
01C0
01C0
01C0
ENDCHAR
STARTCHAR 1ED9
ENCODING 7897
SWIDTH 600 0
DWIDTH 15 0
BBX 13 27 1 -6
BITMAP
0700
0F80
1DC0
38E0
1060
0000
0000
0F80
1FE0
3DF0
7070
7038
E038
E038
E038
E038
7038
7070
3DF0
3FE0
0F80
0000
0000
0000
0700
0700
0700
ENDCHAR
STARTCHAR 1EDA
ENCODING 7898
SWIDTH 760 0
DWIDTH 19 0
BBX 17 24 1 1
BITMAP
007000
00F100
01E380
018380
000380
03E700
0FFE00
1FFC00
3C1E00
780F00
700700
700700
700700
E00700
E00300
E00700
700700
700700
700700
780E00
3C1E00
1FFC00
0FF800
03E000
ENDCHAR
STARTCHAR 1EDB
ENCODING 7899
SWIDTH 600 0
DWIDTH 15 0
BBX 14 22 1 1
BITMAP
00C0
01E0
01C0
038C
071C
020C
000C
001C
0FB8
1FE0
3DF0
7070
7038
E038
E038
E038
E038
7038
7070
3DF0
3FE0
0F80
ENDCHAR
STARTCHAR 1EDC
ENCODING 7900
SWIDTH 760 0
DWIDTH 19 0
BBX 17 24 1 1
BITMAP
070000
078100
03C380
00C380
000380
03E700
0FFE00
1FFC00
3C1E00
780F00
700700
700700
700700
E00700
E00300
E00700
700700
700700
700700
780E00
3C1E00
1FFC00
0FF800
03E000
ENDCHAR
STARTCHAR 1EDD
ENCODING 7901
SWIDTH 600 0
DWIDTH 15 0
BBX 14 22 1 1
BITMAP
1800
1C00
0E00
070C
031C
000C
000C
001C
0FB8
1FE0
3DF0
7070
7038
E038
E038
E038
E038
7038
7070
3DF0
3FE0
0F80
ENDCHAR
STARTCHAR 1EDE
ENCODING 7902
SWIDTH 760 0
DWIDTH 19 0
BBX 17 25 1 0
BITMAP
018000
03E000
006100
00E380
01C380
000380
03E700
0FFE00
1FFC00
3C1E00
780F00
700700
700700
700700
E00700
E00300
E00700
700700
700700
700700
780E00
3C1E00
1FFC00
0FF800
03E000
ENDCHAR
STARTCHAR 1EDF
ENCODING 7903
SWIDTH 600 0
DWIDTH 15 0
BBX 14 22 1 0
BITMAP
0600
0780
0180
018C
079C
020C
000C
001C
0FB8
1FE0
3DF0
7070
7038
E038
E038
E038
E038
7038
7070
3DF0
3FE0
0F80
ENDCHAR
STARTCHAR 1EE0
ENCODING 7904
SWIDTH 760 0
DWIDTH 19 0
BBX 17 24 1 0
BITMAP
0F1800
0F9900
19FB80
18F380
000380
03E700
0FFE00
1FFC00
3C1E00
780F00
700700
700700
700700
E00700
E00300
E00700
700700
700700
700700
780E00
3C1E00
1FFC00
0FF800
03E000
ENDCHAR
STARTCHAR 1EE1
ENCODING 7905
SWIDTH 600 0
DWIDTH 15 0
BBX 14 20 1 1
BITMAP
3C60
666C
63FC
01CC
000C
001C
0FB8
1FE0
3DF0
7070
7038
E038
E038
E038
E038
7038
7070
3DF0
3FE0
0F80
ENDCHAR
STARTCHAR 1EE2
ENCODING 7906
SWIDTH 760 0
DWIDTH 19 0
BBX 17 29 1 -6
BITMAP
000100
000380
000380
000380
03E700
0FFE00
1FFC00
3C1E00
780F00
700700
700700
700700
E00700
E00300
E00700
700700
700700
700700
780E00
3C1E00
1FFC00
0FF800
03E000
000000
000000
000000
01C000
01C000
01C000
ENDCHAR
STARTCHAR 1EE3
ENCODING 7907
SWIDTH 600 0
DWIDTH 15 0
BBX 14 25 1 -6
BITMAP
000C
001C
000C
000C
001C
0FB8
1FE0
3DF0
7070
7038
E038
E038
E038
E038
7038
7070
3DF0
3FE0
0F80
0000
0000
0000
0700
0700
0700
ENDCHAR
STARTCHAR 1EE4
ENCODING 7908
SWIDTH 720 0
DWIDTH 18 0
BBX 14 25 2 -6
BITMAP
E01C
E01C
E01C
E01C
E01C
E01C
E01C
E01C
E01C
E01C
E01C
E01C
E01C
601C
703C
7838
3FF8
1FF0
0FC0
0000
0000
0000
0380
0780
0300
ENDCHAR
STARTCHAR 1EE5
ENCODING 7909
SWIDTH 640 0
DWIDTH 16 0
BBX 11 20 2 -6
BITMAP
E0E0
E0E0
E0E0
E0E0
E0E0
E0E0
E0E0
E0E0
E0E0
E0E0
E0E0
FFE0
7F60
3C60
0000
0000
0000
0E00
0E00
0E00
ENDCHAR
STARTCHAR 1EE6
ENCODING 7910
SWIDTH 720 0
DWIDTH 18 0
BBX 14 25 2 0
BITMAP
0700
0780
01C0
0380
0300
0000
E01C
E01C
E01C
E01C
E01C
E01C
E01C
E01C
E01C
E01C
E01C
E01C
E01C
601C
703C
7838
3FF8
1FF0
0FC0
ENDCHAR
STARTCHAR 1EE7
ENCODING 7911
SWIDTH 640 0
DWIDTH 16 0
BBX 11 22 2 0
BITMAP
0C00
0F00
0300
0300
0F00
0400
0000
0000
E0E0
E0E0
E0E0
E0E0
E0E0
E0E0
E0E0
E0E0
E0E0
E0E0
E0E0
FFE0
7F60
3C60
ENDCHAR
STARTCHAR 1EE8
ENCODING 7912
SWIDTH 760 0
DWIDTH 19 0
BBX 17 25 2 0
BITMAP
004000
00E080
01C180
078180
020180
000380
E01F00
E01C00
E01C00
E01C00
E01C00
E01C00
E01C00
E01C00
E01C00
E01C00
E01C00
E01C00
E01C00
601C00
703C00
783800
3FF800
1FF000
0FC000
ENDCHAR
STARTCHAR 1EE9
ENCODING 7913
SWIDTH 640 0
DWIDTH 16 0
BBX 14 22 2 1
BITMAP
0180
03C0
0780
070C
0E1C
040C
001C
0018
E0F0
E0E0
E0E0
E0E0
E0E0
E0E0
E0E0
E0E0
E0E0
E0E0
E0E0
FFE0
7F60
3C60
ENDCHAR
STARTCHAR 1EEA
ENCODING 7914
SWIDTH 760 0
DWIDTH 19 0
BBX 17 25 2 0
BITMAP
080000
1E0080
0F0180
038180
010180
000380
E01F00
E01C00
E01C00
E01C00
E01C00
E01C00
E01C00
E01C00
E01C00
E01C00
E01C00
E01C00
E01C00
601C00
703C00
783800
3FF800
1FF000
0FC000
ENDCHAR
STARTCHAR 1EEB
ENCODING 7915
SWIDTH 640 0
DWIDTH 16 0
BBX 14 22 2 1
BITMAP
3000
7800
3C00
0E0C
061C
000C
001C
0018
E0F0
E0E0
E0E0
E0E0
E0E0
E0E0
E0E0
E0E0
E0E0
E0E0
E0E0
FFE0
7F60
3C60
ENDCHAR
STARTCHAR 1EEC
ENCODING 7916
SWIDTH 760 0
DWIDTH 19 0
BBX 17 25 2 0
BITMAP
070000
078080
01C180
018180
030180
000380
E01F00
E01C00
E01C00
E01C00
E01C00
E01C00
E01C00
E01C00
E01C00
E01C00
E01C00
E01C00
E01C00
601C00
703C00
783800
3FF800
1FF000
0FC000
ENDCHAR
STARTCHAR 1EED
ENCODING 7917
SWIDTH 640 0
DWIDTH 16 0
BBX 14 22 2 0
BITMAP
0C00
0F00
0700
030C
0F1C
040C
001C
0018
E0F0
E0E0
E0E0
E0E0
E0E0
E0E0
E0E0
E0E0
E0E0
E0E0
E0E0
FFE0
7F60
3C60
ENDCHAR
STARTCHAR 1EEE
ENCODING 7918
SWIDTH 760 0
DWIDTH 19 0
BBX 17 24 2 0
BITMAP
1E3080
3F3180
33F180
30E180
000380
E01F00
E01C00
E01C00
E01C00
E01C00
E01C00
E01C00
E01C00
E01C00
E01C00
E01C00
E01C00
E01C00
601C00
703C00
783800
3FF800
1FF000
0FC000
ENDCHAR
STARTCHAR 1EEF
ENCODING 7919
SWIDTH 640 0
DWIDTH 16 0
BBX 14 20 2 1
BITMAP
7860
6EDC
47CC
038C
001C
0018
E0F0
E0E0
E0E0
E0E0
E0E0
E0E0
E0E0
E0E0
E0E0
E0E0
E0E0
FFE0
7F60
3C60
ENDCHAR
STARTCHAR 1EF0
ENCODING 7920
SWIDTH 760 0
DWIDTH 19 0
BBX 17 30 2 -6
BITMAP
000080
000180
000180
000180
000380
E01F00
E01C00
E01C00
E01C00
E01C00
E01C00
E01C00
E01C00
E01C00
E01C00
E01C00
E01C00
E01C00
601C00
703C00
783800
3FF800
1FF000
0FC000
000000
000000
000000
038000
078000
030000
ENDCHAR
STARTCHAR 1EF1
ENCODING 7921
SWIDTH 640 0
DWIDTH 16 0
BBX 14 25 2 -6
BITMAP
000C
001C
000C
001C
0018
E0F0
E0E0
E0E0
E0E0
E0E0
E0E0
E0E0
E0E0
E0E0
E0E0
E0E0
FFE0
7F60
3C60
0000
0000
0000
0F00
0F00
0600
ENDCHAR
STARTCHAR 1EF2
ENCODING 7922
SWIDTH 560 0
DWIDTH 14 0
BBX 14 25 0 0
BITMAP
0800
1C00
0E00
0780
0100
0000
E01C
7038
7038
3870
3870
3860
1CE0
1CC0
0FC0
0F80
0780
0700
0700
0700
0700
0700
0700
0700
0700
ENDCHAR
STARTCHAR 1EF3
ENCODING 7923
SWIDTH 560 0
DWIDTH 14 0
BBX 13 29 0 -6
BITMAP
0800
1C00
1C00
0E00
0700
0300
0000
0000
0000
E038
7038
7030
3070
3870
3860
1CE0
1CE0
0CC0
0CC0
0FC0
0780
0780
0380
0300
0700
0700
1E00
7C00
7800
ENDCHAR
STARTCHAR 1EF4
ENCODING 7924
SWIDTH 560 0
DWIDTH 14 0
BBX 14 25 0 -6
BITMAP
E01C
7038
7038
3870
3870
3860
1CE0
1CC0
0FC0
0F80
0780
0700
0700
0700
0700
0700
0700
0700
0700
0000
0000
0000
0780
0780
0300
ENDCHAR
STARTCHAR 1EF5
ENCODING 7925
SWIDTH 560 0
DWIDTH 14 0
BBX 13 20 0 -6
BITMAP
E038
7038
7030
3870
3870
3860
1CE0
1CE0
0CC0
0CC0
0FC0
0780
0780
0380
0300
0700
0700
1E38
7C38
7838
ENDCHAR
STARTCHAR 1EF6
ENCODING 7926
SWIDTH 560 0
DWIDTH 14 0
BBX 14 25 0 0
BITMAP
0700
0780
0180
0380
0300
0000
E01C
7038
7038
3870
3870
3860
1CE0
1CC0
0FC0
0F80
0780
0700
0700
0700
0700
0700
0700
0700
0700
ENDCHAR
STARTCHAR 1EF7
ENCODING 7927
SWIDTH 560 0
DWIDTH 14 0
BBX 13 28 0 -6
BITMAP
0600
0780
0180
0180
0380
0200
0000
0000
E038
7038
7030
3070
3870
3860
1CE0
1CE0
0CC0
0CC0
0FC0
0780
0780
0380
0300
0700
0700
1E00
7C00
7800
ENDCHAR
STARTCHAR 1EF8
ENCODING 7928
SWIDTH 560 0
DWIDTH 14 0
BBX 14 24 0 0
BITMAP
1C30
3F30
33F0
31E0
0000
E01C
7038
7038
3870
3870
3860
1CE0
1CC0
0FC0
0F80
0780
0700
0700
0700
0700
0700
0700
0700
0700
ENDCHAR
STARTCHAR 1EF9
ENCODING 7929
SWIDTH 560 0
DWIDTH 14 0
BBX 13 26 0 -5
BITMAP
1E30
3330
31E0
0040
0000
0000
E038
7038
7030
3070
3870
3860
1CE0
1CE0
0CC0
0CC0
0FC0
0780
0780
0380
0300
0700
0700
1E00
7C00
7800
ENDCHAR
STARTCHAR 2002
ENCODING 8194
SWIDTH 520 0
DWIDTH 13 0
BBX 0 0 0 0
BITMAP
ENDCHAR
STARTCHAR 2003
ENCODING 8195
SWIDTH 1000 0
DWIDTH 25 0
BBX 0 0 0 0
BITMAP
ENDCHAR
STARTCHAR 2010
ENCODING 8208
SWIDTH 1000 0
DWIDTH 25 0
BBX 7 1 9 9
BITMAP
FE
ENDCHAR
STARTCHAR 2011
ENCODING 8209
SWIDTH 360 0
DWIDTH 9 0
BBX 7 2 1 6
BITMAP
FE
FE
ENDCHAR
STARTCHAR 2012
ENCODING 8210
SWIDTH 560 0
DWIDTH 14 0
BBX 11 2 1 6
BITMAP
FFE0
FFE0
ENDCHAR
STARTCHAR 2013
ENCODING 8211
SWIDTH 560 0
DWIDTH 14 0
BBX 11 2 1 6
BITMAP
FFE0
FFE0
ENDCHAR
STARTCHAR 2014
ENCODING 8212
SWIDTH 920 0
DWIDTH 23 0
BBX 20 2 1 6
BITMAP
FFFFF0
FFFFF0
ENDCHAR
STARTCHAR 2015
ENCODING 8213
SWIDTH 1000 0
DWIDTH 25 0
BBX 21 1 2 9
BITMAP
FFFFF8
ENDCHAR
STARTCHAR 2016
ENCODING 8214
SWIDTH 1000 0
DWIDTH 25 0
BBX 5 25 10 -3
BITMAP
88
88
88
88
88
88
88
88
88
88
88
88
88
88
88
88
88
88
88
88
88
88
88
88
88
ENDCHAR
STARTCHAR 2018
ENCODING 8216
SWIDTH 280 0
DWIDTH 7 0
BBX 3 8 2 11
BITMAP
20
60
C0
C0
80
E0
E0
E0
ENDCHAR
STARTCHAR 2019
ENCODING 8217
SWIDTH 280 0
DWIDTH 7 0
BBX 4 8 2 11
BITMAP
E0
F0
70
30
30
60
C0
80
ENDCHAR
STARTCHAR 201A
ENCODING 8218
SWIDTH 280 0
DWIDTH 7 0
BBX 4 8 2 -4
BITMAP
60
F0
F0
30
30
60
E0
C0
ENDCHAR
STARTCHAR 201C
ENCODING 8220
SWIDTH 520 0
DWIDTH 13 0
BBX 9 8 2 11
BITMAP
2180
6380
C300
C600
8600
E780
E780
E300
ENDCHAR
STARTCHAR 201D
ENCODING 8221
SWIDTH 520 0
DWIDTH 13 0
BBX 9 8 2 11
BITMAP
E380
F380
7380
3080
3180
6180
C700
8200
ENDCHAR
STARTCHAR 201E
ENCODING 8222
SWIDTH 520 0
DWIDTH 13 0
BBX 9 8 2 -4
BITMAP
6380
F380
F380
3080
3180
6180
E300
C200
ENDCHAR
STARTCHAR 2020
ENCODING 8224
SWIDTH 1000 0
DWIDTH 25 0
BBX 13 21 6 -2
BITMAP
0700
0700
0700
0700
0700
0700
FFF8
FFF8
0700
0700
0700
0700
0700
0700
0700
0700
0700
0700
0700
0700
0700
ENDCHAR
STARTCHAR 2021
ENCODING 8225
SWIDTH 1000 0
DWIDTH 25 0
BBX 13 22 6 -2
BITMAP
0700
0700
0700
0700
0700
0700
FFF8
FFF8
0700
0700
0700
0700
0700
0700
FFF8
FFF8
0700
0700
0700
0700
0700
0700
ENDCHAR
STARTCHAR 2022
ENCODING 8226
SWIDTH 360 0
DWIDTH 9 0
BBX 7 7 1 4
BITMAP
38
7C
FE
FE
FE
7C
38
ENDCHAR
STARTCHAR 2025
ENCODING 8229
SWIDTH 1000 0
DWIDTH 25 0
BBX 16 4 4 8
BITMAP
2002
7007
F007
7007
ENDCHAR
STARTCHAR 2026
ENCODING 8230
SWIDTH 1000 0
DWIDTH 25 0
BBX 21 4 2 8
BITMAP
202020
F07070
F07078
607030
ENDCHAR
STARTCHAR 2027
ENCODING 8231
SWIDTH 1000 0
DWIDTH 25 0
BBX 5 6 10 7
BITMAP
70
F8
F8
F8
F8
70
ENDCHAR
STARTCHAR 2030
ENCODING 8240
SWIDTH 1000 0
DWIDTH 25 0
BBX 23 20 1 -1
BITMAP
381800
781000
CC3000
CC2000
CC6000
C44000
C4C000
CC8000
CD9C38
CD3E3C
796666
026266
026246
046246
046246
0C6246
086666
182666
103C3C
300000
ENDCHAR
STARTCHAR 2032
ENCODING 8242
SWIDTH 280 0
DWIDTH 7 0
BBX 4 7 2 12
BITMAP
70
60
60
60
60
E0
C0
ENDCHAR
STARTCHAR 2033
ENCODING 8243
SWIDTH 520 0
DWIDTH 13 0
BBX 9 7 2 12
BITMAP
7380
6380
6380
6380
6300
E300
C300
ENDCHAR
STARTCHAR 2035
ENCODING 8245
SWIDTH 1000 0
DWIDTH 25 0
BBX 5 3 9 21
BITMAP
E0
70
38
ENDCHAR
STARTCHAR 2039
ENCODING 8249
SWIDTH 320 0
DWIDTH 8 0
BBX 5 10 1 3
BITMAP
18
30
70
E0
C0
E0
60
30
18
08
ENDCHAR
STARTCHAR 203A
ENCODING 8250
SWIDTH 320 0
DWIDTH 8 0
BBX 4 10 2 3
BITMAP
C0
E0
60
30
10
30
70
60
C0
80
ENDCHAR
STARTCHAR 203B
ENCODING 8251
SWIDTH 1000 0
DWIDTH 25 0
BBX 17 19 4 0
BITMAP
008000
81C080
41C100
21C200
100400
080800
041000
022000
E34380
E1C380
E1C380
036000
063000
0C1800
180C00
31C600
61C300
81C180
008080
ENDCHAR
STARTCHAR 203C
ENCODING 8252
SWIDTH 640 0
DWIDTH 16 0
BBX 12 19 2 0
BITMAP
70E0
70E0
70E0
70E0
70E0
70E0
60E0
6060
6060
6060
6060
6060
6060
0000
0000
70E0
F0F0
F0F0
70E0
ENDCHAR
STARTCHAR 2042
ENCODING 8258
SWIDTH 1000 0
DWIDTH 25 0
BBX 21 20 2 0
BITMAP
002000
002000
032600
03AE00
007000
00F800
03AE00
032600
002000
002000
0C0180
0C0180
4C8990
E9DDB8
3B0760
0C0180
7B0770
6D8DB0
0C0180
0C0180
ENDCHAR
STARTCHAR 2047
ENCODING 8263
SWIDTH 920 0
DWIDTH 23 0
BBX 20 19 2 0
BITMAP
7E0FC0
FF1FE0
C798F0
038070
038070
038070
0700E0
0700E0
0E01C0
1C0380
180380
380300
380300
000000
000000
380300
3C0780
3C0780
380300
ENDCHAR
STARTCHAR 2048
ENCODING 8264
SWIDTH 800 0
DWIDTH 20 0
BBX 15 19 2 0
BITMAP
7E0E
FF0E
C78E
038E
038E
038E
070E
070E
0E0E
1C0E
180C
380C
380C
0000
0000
380E
3C0E
3C0E
380E
ENDCHAR
STARTCHAR 2049
ENCODING 8265
SWIDTH 800 0
DWIDTH 20 0
BBX 16 19 2 0
BITMAP
70FE
71FF
7187
7007
7003
7007
6007
600E
601C
6038
6038
6030
6030
0000
0000
7038
F078
F078
7038
ENDCHAR
STARTCHAR 2051
ENCODING 8273
SWIDTH 1000 0
DWIDTH 25 0
BBX 9 21 8 -1
BITMAP
0800
0800
C980
6B00
1C00
3E00
EB80
8880
0800
0800
0000
0800
0800
C980
EB80
3E00
1C00
EB80
C980
0800
0800
ENDCHAR
STARTCHAR 2074
ENCODING 8308
SWIDTH 400 0
DWIDTH 10 0
BBX 9 11 1 11
BITMAP
0E00
0E00
1E00
3600
3600
6600
6600
FF80
FF80
0600
0600
ENDCHAR
STARTCHAR 20A9
ENCODING 8361
SWIDTH 560 0
DWIDTH 14 0
BBX 15 18 0 0
BITMAP
E00C
E31C
639C
639C
6398
6798
6798
7698
FFFE
74D8
34D8
34D8
34D0
3CF0
3CF0
3CF0
3C70
3C70
ENDCHAR
STARTCHAR 20AB
ENCODING 8363
SWIDTH 560 0
DWIDTH 14 0
BBX 12 19 2 0
BITMAP
01C0
01C0
1FF0
01C0
01C0
1DC0
7FC0
73C0
E1C0
C1C0
C1C0
C1C0
E1C0
E3C0
7FC0
3CC0
0000
FFE0
FFE0
ENDCHAR
STARTCHAR 20AC
ENCODING 8364
SWIDTH 560 0
DWIDTH 14 0
BBX 13 18 1 0
BITMAP
07E0
0FF0
1E30
3800
3800
3000
FFE0
FFE0
7000
FFC0
FFC0
7000
3800
3800
3C10
1E78
0FF0
03C0
ENDCHAR
STARTCHAR 20DD
ENCODING 8413
SWIDTH 0 0
DWIDTH 0 0
BBX 23 25 -24 -3
BITMAP
007C00
038380
040040
180020
100010
200008
400004
400004
800002
800002
800002
800002
800002
800002
800002
800002
800002
400004
400004
200008
100010
180020
040040
030180
00FE00
ENDCHAR
STARTCHAR 20DE
ENCODING 8414
SWIDTH 0 0
DWIDTH 0 0
BBX 23 23 -24 -2
BITMAP
FFFFFE
800002
800002
800002
800002
800002
800002
800002
800002
800002
800002
800002
800002
800002
800002
800002
800002
800002
800002
800002
800002
800002
FFFFFE
ENDCHAR
STARTCHAR 2100
ENCODING 8448
SWIDTH 1000 0
DWIDTH 25 0
BBX 21 20 2 -1
BITMAP
1E80C0
3F8080
718180
618300
618200
C30600
C30C00
E70800
7F1800
303000
006070
0061F8
00C380
018300
018300
030600
060700
040300
0C03F0
1800C0
ENDCHAR
STARTCHAR 2103
ENCODING 8451
SWIDTH 1000 0
DWIDTH 25 0
BBX 23 21 1 -1
BITMAP
100000
7C01F0
C607FC
C20FFE
C21E0C
C63C00
7E3800
3C3800
007000
007000
007000
007000
007000
007800
003800
003800
003C04
001E0E
000FFE
0007F8
0000E0
ENDCHAR
STARTCHAR 2105
ENCODING 8453
SWIDTH 1000 0
DWIDTH 25 0
BBX 22 20 2 -1
BITMAP
0E00C0
3F0080
700180
600300
600200
C00600
C00C00
E00800
7C1800
3C3000
0020F0
0061F8
00C38C
01830C
01830C
03060C
060718
040338
0C03F0
180080
ENDCHAR
STARTCHAR 2109
ENCODING 8457
SWIDTH 1000 0
DWIDTH 25 0
BBX 22 20 2 0
BITMAP
100000
7C1FFC
C61FFC
861FFC
861C00
C61C00
FC1C00
781C00
001C00
001C00
001FF0
001FF0
001C00
001C00
001C00
001C00
001C00
001C00
001C00
001C00
ENDCHAR
STARTCHAR 210A
ENCODING 8458
SWIDTH 1000 0
DWIDTH 25 0
BBX 14 21 5 -7
BITMAP
03CC
0FEC
1E3C
3C1C
3818
3038
7038
7038
7038
7070
78F0
3FB0
1F70
1C70
7070
6060
E0E0
E0E0
F3C0
7F80
3F00
ENDCHAR
STARTCHAR 210F
ENCODING 8463
SWIDTH 1000 0
DWIDTH 25 0
BBX 13 20 6 0
BITMAP
0C00
1C00
1CE0
3FE0
7C00
1800
3800
39F0
3FF0
3C78
3838
3030
7030
7070
7070
6070
6060
E060
E0E0
E0E0
ENDCHAR
STARTCHAR 2113
ENCODING 8467
SWIDTH 480 0
DWIDTH 12 0
BBX 12 21 0 0
BITMAP
0780
0FE0
0EE0
1C60
1C60
1C60
1C60
1CE0
1CE0
1DC0
1D80
1F80
1F00
1E00
3C00
FC00
7C00
1C00
0F70
0FF0
03C0
ENDCHAR
STARTCHAR 2116
ENCODING 8470
SWIDTH 1040 0
DWIDTH 26 0
BBX 23 18 2 0
BITMAP
703800
703878
7831FC
78318E
7C3186
6C3386
6E3186
66318E
6631FC
673078
633000
63B000
61B1FE
61B1FE
60F000
E0F000
E0F000
C07000
ENDCHAR
STARTCHAR 2121
ENCODING 8481
SWIDTH 1000 0
DWIDTH 25 0
BBX 23 19 1 0
BITMAP
FF0000
FF0000
380000
380000
387E60
387E60
386060
386060
386060
386060
386060
387C60
387C60
386060
386060
386060
386060
387F7E
387F7E
ENDCHAR
STARTCHAR 2122
ENCODING 8482
SWIDTH 720 0
DWIDTH 18 0
BBX 18 9 0 10
BITMAP
FE61C0
FE73C0
1853C0
187AC0
187EC0
186EC0
186CC0
1860C0
1860C0
ENDCHAR
STARTCHAR 2126
ENCODING 8486
SWIDTH 1000 0
DWIDTH 25 0
BBX 19 19 3 0
BITMAP
03F800
0FFE00
1FFF00
3C0780
380380
7803C0
7001C0
7001C0
7001C0
7001C0
7001C0
7001C0
7001C0
300380
380380
1C0700
0E0E00
FF1FE0
FF1FE0
ENDCHAR
STARTCHAR 2127
ENCODING 8487
SWIDTH 1000 0
DWIDTH 25 0
BBX 17 20 4 -1
BITMAP
FE3F80
FE3F80
0E3800
1C1C00
380E00
300600
700700
700700
700700
F00700
F00780
F00700
700700
700700
700F00
380E00
3C1E00
1FFC00
0FF800
01C000
ENDCHAR
STARTCHAR 212B
ENCODING 8491
SWIDTH 1000 0
DWIDTH 25 0
BBX 15 24 5 0
BITMAP
07C0
0C60
0C60
0C60
0C60
07C0
07C0
07C0
06C0
0EE0
0EE0
0CE0
1C70
1C70
1C70
1830
3838
3FF8
3FF8
701C
701C
701C
E00E
E00E
ENDCHAR
STARTCHAR 212E
ENCODING 8494
SWIDTH 920 0
DWIDTH 23 0
BBX 20 19 1 0
BITMAP
01F800
060700
180080
300040
300060
700060
700070
F00070
F00070
FFFFF0
F00000
700000
700000
700000
300000
1000C0
080180
060300
01FC00
ENDCHAR
STARTCHAR 2135
ENCODING 8501
SWIDTH 1000 0
DWIDTH 25 0
BBX 17 19 4 1
BITMAP
603000
603F00
600F80
700680
380C00
3C1800
1E1000
1F1000
3B9000
61D000
E0F000
E07000
E03800
601C00
700E00
300600
380700
300700
700600
ENDCHAR
STARTCHAR 213B
ENCODING 8507
SWIDTH 1000 0
DWIDTH 25 0
BBX 23 19 1 0
BITMAP
FE38C6
FE38C6
C078C6
C07864
C0686C
C06C6C
C06C6C
C04C28
C0CC38
FCCC38
FCCC38
C0C638
C0FE6C
C1FE6C
C1866C
C18644
C187C6
C183C6
C183C6
ENDCHAR
STARTCHAR 2160
ENCODING 8544
SWIDTH 1000 0
DWIDTH 25 0
BBX 3 19 11 0
BITMAP
E0
E0
E0
E0
E0
E0
E0
E0
E0
E0
E0
E0
E0
E0
E0
E0
E0
E0
E0
ENDCHAR
STARTCHAR 2161
ENCODING 8545
SWIDTH 1000 0
DWIDTH 25 0
BBX 11 19 7 0
BITMAP
E0E0
E0E0
E0E0
E0E0
E0E0
E0E0
E0E0
E0E0
E0E0
E0E0
E0E0
E0E0
E0E0
E0E0
E0E0
E0E0
E0E0
E0E0
E0E0
ENDCHAR
STARTCHAR 2162
ENCODING 8546
SWIDTH 1000 0
DWIDTH 25 0
BBX 19 19 3 0
BITMAP
E0E0E0
E0E0E0
E0E0E0
E0E0E0
E0E0E0
E0E0E0
E0E0E0
E0E0E0
E0E0E0
E0E0E0
E0E0E0
E0E0E0
E0E0E0
E0E0E0
E0E0E0
E0E0E0
E0E0E0
E0E0E0
E0E0E0
ENDCHAR
STARTCHAR 2163
ENCODING 8547
SWIDTH 1000 0
DWIDTH 25 0
BBX 20 19 4 0
BITMAP
E70070
E700E0
E380E0
E380E0
E380E0
E1C1C0
E1C1C0
E1C1C0
E1C180
E0E380
E0E380
E0E300
E06700
E07700
E07600
E03600
E03E00
E03E00
E03C00
ENDCHAR
STARTCHAR 2164
ENCODING 8548
SWIDTH 1000 0
DWIDTH 25 0
BBX 15 19 5 0
BITMAP
E00E
F00E
701C
701C
701C
3838
3838
3838
1830
1C70
1C70
1C70
0E60
0EE0
0EE0
06C0
07C0
07C0
0380
ENDCHAR
STARTCHAR 2165
ENCODING 8549
SWIDTH 1000 0
DWIDTH 25 0
BBX 20 19 1 0
BITMAP
E00E70
700E70
701C70
701C70
701C70
381870
383870
383870
1C3870
1C7070
1C7070
0C7070
0E6070
0EE070
0EE070
06C070
07C070
07C070
03C070
ENDCHAR
STARTCHAR 2166
ENCODING 8550
SWIDTH 1000 0
DWIDTH 25 0
BBX 23 19 0 0
BITMAP
E039CE
7039CE
7031CE
7071CE
7071CE
3071CE
3861CE
3861CE
38E1CE
38E1CE
18E1CE
1CC1CE
1CC1CE
1DC1CE
0DC1CE
0D81CE
0F81CE
0F81CE
0781CE
ENDCHAR
STARTCHAR 2167
ENCODING 8551
SWIDTH 1000 0
DWIDTH 25 0
BBX 23 19 0 0
BITMAP
E1CCE6
E1CCE6
61CCE6
618CE6
618CE6
718CE6
718CE6
318CE6
338CE6
330CE6
330CE6
330CE6
3B0CE6
1B0CE6
1F0CE6
1E0CE6
1E0CE6
1E0CE6
0E0CE6
ENDCHAR
STARTCHAR 2168
ENCODING 8552
SWIDTH 1000 0
DWIDTH 25 0
BBX 19 19 4 0
BITMAP
C380E0
C3C1C0
C1C1C0
C1E380
C0E380
C07700
C07700
C03E00
C03E00
C03C00
C03E00
C07E00
C07700
C0E700
C0E380
C1C3C0
C1C1C0
C381E0
C380E0
ENDCHAR
STARTCHAR 2169
ENCODING 8553
SWIDTH 1000 0
DWIDTH 25 0
BBX 13 19 6 0
BITMAP
E038
7070
7070
38E0
38E0
1DC0
1DC0
0F80
0F80
0F00
0F80
1F80
1DC0
39E0
38E0
70F0
7070
E078
E038
ENDCHAR
STARTCHAR 216A
ENCODING 8554
SWIDTH 1000 0
DWIDTH 25 0
BBX 19 19 2 0
BITMAP
E038E0
7038E0
7070E0
3870E0
38E0E0
1CC0E0
1DC0E0
0F80E0
0F80E0
0780E0
0F80E0
0DC0E0
1DC0E0
38E0E0
38E0E0
7070E0
7070E0
E038E0
E038E0
ENDCHAR
STARTCHAR 216B
ENCODING 8555
SWIDTH 1000 0
DWIDTH 25 0
BBX 23 19 0 0
BITMAP
703186
707186
386186
38E186
18C186
1DC186
0D8186
0F8186
070186
070186
0F8186
0F8186
1DC186
19C186
38E186
38E186
707186
707186
E03986
ENDCHAR
STARTCHAR 2170
ENCODING 8560
SWIDTH 1000 0
DWIDTH 25 0
BBX 3 20 11 0
BITMAP
E0
E0
E0
00
00
00
E0
E0
E0
E0
E0
E0
E0
E0
E0
E0
E0
E0
E0
E0
ENDCHAR
STARTCHAR 2171
ENCODING 8561
SWIDTH 1000 0
DWIDTH 25 0
BBX 11 20 7 0
BITMAP
60C0
F1E0
F1E0
0000
0000
0000
E0E0
E0E0
E0E0
E0E0
E0E0
E0E0
E0E0
E0E0
E0E0
E0E0
E0E0
E0E0
E0E0
E0E0
ENDCHAR
STARTCHAR 2172
ENCODING 8562
SWIDTH 1000 0
DWIDTH 25 0
BBX 19 20 3 0
BITMAP
70E1C0
F0E1E0
70E1C0
000000
000000
000000
70E1C0
70E1C0
70E1C0
70E1C0
70E1C0
70E1C0
70E1C0
70E1C0
70E1C0
70E1C0
70E1C0
70E1C0
70E1C0
70E1C0
ENDCHAR
STARTCHAR 2173
ENCODING 8563
SWIDTH 1000 0
DWIDTH 25 0
BBX 18 20 4 0
BITMAP
E00000
F00000
E00000
000000
000000
000000
E380C0
E381C0
E381C0
E1C180
E1C380
E1C380
E0E300
E0E700
E06700
E06600
E07600
E03E00
E03C00
E03C00
ENDCHAR
STARTCHAR 2174
ENCODING 8564
SWIDTH 1000 0
DWIDTH 25 0
BBX 13 14 6 0
BITMAP
E038
E030
7070
7070
3060
38E0
38E0
18C0
1CC0
1DC0
0D80
0D80
0F80
0700
ENDCHAR
STARTCHAR 2175
ENCODING 8565
SWIDTH 1000 0
DWIDTH 25 0
BBX 18 20 3 0
BITMAP
0001C0
0003C0
0001C0
000000
000000
000000
E071C0
E071C0
E071C0
60E1C0
70E1C0
70E1C0
31C1C0
39C1C0
39C1C0
1981C0
1F81C0
1F81C0
0F01C0
0F01C0
ENDCHAR
STARTCHAR 2176
ENCODING 8566
SWIDTH 1000 0
DWIDTH 25 0
BBX 24 20 0 0
BITMAP
00038E
00038F
00038E
000000
000000
000000
E0738E
70738E
70738E
70638E
30E38E
38E38E
38C38E
19C38E
19C38E
1D838E
0D838E
0F838E
0F838E
0F038E
ENDCHAR
STARTCHAR 2177
ENCODING 8567
SWIDTH 1000 0
DWIDTH 25 0
BBX 24 20 0 0
BITMAP
000CE7
001CE7
001CE7
000000
000000
000000
E1CCE7
618CE7
618CE7
718CE7
738CE7
338CE7
330CE7
330CE7
330CE7
1B0CE7
1E0CE7
1E0CE7
1E0CE7
1E0CE7
ENDCHAR
STARTCHAR 2178
ENCODING 8568
SWIDTH 1000 0
DWIDTH 25 0
BBX 18 20 4 0
BITMAP
600000
F00000
F00000
000000
000000
000000
E3C1C0
E1C380
E0E380
E0E700
E07600
E03E00
E03C00
E03C00
E07E00
E06E00
E0E700
E1C380
E1C380
E381C0
ENDCHAR
STARTCHAR 2179
ENCODING 8569
SWIDTH 1000 0
DWIDTH 25 0
BBX 11 14 7 0
BITMAP
E0E0
70E0
71C0
3980
3B80
1F00
0F00
1F00
1F00
3B80
73C0
71C0
E0E0
E0E0
ENDCHAR
STARTCHAR 217A
ENCODING 8570
SWIDTH 1000 0
DWIDTH 25 0
BBX 18 20 3 0
BITMAP
000180
0003C0
0003C0
000000
000000
000000
E0F1C0
70E1C0
39C1C0
39C1C0
1F81C0
1F81C0
0F01C0
0F01C0
1F81C0
3B81C0
39C1C0
71E1C0
70E1C0
E071C0
ENDCHAR
STARTCHAR 217B
ENCODING 8571
SWIDTH 1000 0
DWIDTH 25 0
BBX 23 20 1 0
BITMAP
00071C
00071E
00071C
000000
000000
000000
E0E71C
71C71C
71C71C
39871C
3B871C
1F071C
0F071C
1F071C
1F071C
3B871C
33871C
71C71C
E1E71C
E0E71C
ENDCHAR
STARTCHAR 2190
ENCODING 8592
SWIDTH 1000 0
DWIDTH 25 0
BBX 23 12 1 4
BITMAP
020000
070000
0E0000
1C0000
380000
7FFFFE
FFFFFE
380000
1C0000
0E0000
070000
030000
ENDCHAR
STARTCHAR 2191
ENCODING 8593
SWIDTH 1000 0
DWIDTH 25 0
BBX 11 23 7 -2
BITMAP
0400
0E00
0E00
1F00
3F80
7FC0
EEE0
CE60
0E00
0E00
0E00
0E00
0E00
0E00
0E00
0E00
0E00
0E00
0E00
0E00
0E00
0E00
0E00
ENDCHAR
STARTCHAR 2192
ENCODING 8594
SWIDTH 1000 0
DWIDTH 25 0
BBX 23 12 1 4
BITMAP
000080
0001C0
0000E0
000070
000038
FFFFFC
FFFFFE
000038
000070
0000E0
0001C0
000180
ENDCHAR
STARTCHAR 2193
ENCODING 8595
SWIDTH 1000 0
DWIDTH 25 0
BBX 11 23 7 -2
BITMAP
0E00
0E00
0E00
0E00
0E00
0E00
0E00
0E00
0E00
0E00
0E00
0E00
0E00
0E00
0E00
8E60
EEE0
7FC0
3F80
1F00
0E00
0E00
0400
ENDCHAR
STARTCHAR 2194
ENCODING 8596
SWIDTH 1000 0
DWIDTH 25 0
BBX 23 12 1 3
BITMAP
030180
0701C0
0E00E0
1C0070
380038
FFFFFC
7FFFFE
380038
1C0070
0E00E0
0701C0
020080
ENDCHAR
STARTCHAR 2195
ENCODING 8597
SWIDTH 1000 0
DWIDTH 25 0
BBX 11 23 7 -2
BITMAP
0400
0E00
1F00
1F00
3F80
EFC0
CEE0
8E20
0E00
0E00
0E00
0E00
0E00
0E00
0E00
CE60
EEE0
7FC0
3F80
1F00
0E00
0E00
0400
ENDCHAR
STARTCHAR 2196
ENCODING 8598
SWIDTH 1000 0
DWIDTH 25 0
BBX 17 17 4 0
BITMAP
800000
FF8000
7F8000
780000
7C0000
6E0000
670000
638000
61C000
20E000
007000
003800
001C00
000E00
000700
000380
000180
ENDCHAR
STARTCHAR 2197
ENCODING 8599
SWIDTH 1000 0
DWIDTH 25 0
BBX 17 17 4 0
BITMAP
000080
00FF00
00FF00
000F00
001F00
003B00
007300
00E300
01C300
038300
070000
0E0000
1C0000
380000
700000
E00000
C00000
ENDCHAR
STARTCHAR 2198
ENCODING 8600
SWIDTH 1000 0
DWIDTH 25 0
BBX 17 17 4 2
BITMAP
C00000
E00000
700000
380000
1C0000
0E0000
070000
038200
01C300
00E300
007300
003B00
001F00
000F00
00FF00
00FF00
000080
ENDCHAR
STARTCHAR 2199
ENCODING 8601
SWIDTH 1000 0
DWIDTH 25 0
BBX 17 17 4 2
BITMAP
000180
000380
000700
000E00
001C00
003800
007000
60E000
61C000
638000
670000
6E0000
7C0000
780000
7F8000
FF8000
800000
ENDCHAR
STARTCHAR 21B8
ENCODING 8632
SWIDTH 1000 0
DWIDTH 25 0
BBX 21 20 2 0
BITMAP
FFFFF8
FFFFF8
000000
200000
1FE000
1FF000
1E0000
1F0000
1B8000
19C000
18E000
187000
083800
001C00
000E00
000700
000380
0001C0
0000E0
000060
ENDCHAR
STARTCHAR 21B9
ENCODING 8633
SWIDTH 1000 0
DWIDTH 25 0
BBX 23 23 1 -2
BITMAP
C18000
C38000
C70000
CE0000
DC0000
FFFFFE
FFFFFE
DC0000
CE0000
C70000
C38000
C10106
000386
000186
0000E6
000076
FFFFFE
FFFFFE
000076
0000E6
0001C6
000386
000306
ENDCHAR
STARTCHAR 21C4
ENCODING 8644
SWIDTH 1000 0
DWIDTH 25 0
BBX 23 23 1 -2
BITMAP
000180
0001C0
0000E0
000070
000038
FFFFFC
FFFFFE
000038
000070
0000E0
0001C0
020080
070000
0E0000
1C0000
380000
7FFFFE
FFFFFE
380000
1C0000
0E0000
070000
030000
ENDCHAR
STARTCHAR 21C5
ENCODING 8645
SWIDTH 1000 0
DWIDTH 25 0
BBX 23 23 1 -2
BITMAP
0400C0
0600C0
0F00C0
1F80C0
3FC0C0
76E0C0
E670C0
4620C0
0600C0
0600C0
0600C0
0600C0
0600C0
0600C0
0600C0
0608C4
061CCE
060EDC
0607F8
0603F0
0601E0
0600C0
060080
ENDCHAR
STARTCHAR 21C6
ENCODING 8646
SWIDTH 1000 0
DWIDTH 25 0
BBX 23 23 1 -2
BITMAP
030000
070000
0E0000
1C0000
380000
FFFFFE
7FFFFE
380000
1C0000
0E0000
070000
020080
0001C0
0000E0
000070
000038
FFFFFC
FFFFFE
000038
000070
0000E0
0001C0
000180
ENDCHAR
STARTCHAR 21CB
ENCODING 8651
SWIDTH 1000 0
DWIDTH 25 0
BBX 23 21 1 -1
BITMAP
030000
070000
060000
0E0000
1C0000
3FFFFE
7FFFFE
000000
000000
000000
000000
000000
000000
000000
FFFFFC
FFFFF8
000070
0000E0
0000C0
0001C0
000180
ENDCHAR
STARTCHAR 21CC
ENCODING 8652
SWIDTH 1000 0
DWIDTH 25 0
BBX 23 21 1 -1
BITMAP
000180
000180
0000C0
0000E0
000070
FFFFF8
FFFFFC
000000
000000
000000
000000
000000
000000
000000
7FFFFE
3FFFFE
1C0000
0E0000
060000
070000
030000
ENDCHAR
STARTCHAR 21D0
ENCODING 8656
SWIDTH 1000 0
DWIDTH 25 0
BBX 23 17 1 1
BITMAP
018000
018000
038000
070000
0FFFFE
1FFFFE
380000
700000
E00000
700000
380000
1FFFFE
0FFFFE
070000
038000
018000
018000
ENDCHAR
STARTCHAR 21D2
ENCODING 8658
SWIDTH 1000 0
DWIDTH 25 0
BBX 23 17 1 1
BITMAP
000300
000300
000380
0001C0
FFFFE0
FFFFF0
000038
00001C
00000E
00001C
000038
FFFFF0
FFFFE0
0001C0
000380
000300
000300
ENDCHAR
STARTCHAR 21D4
ENCODING 8660
SWIDTH 1000 0
DWIDTH 25 0
BBX 23 17 1 1
BITMAP
010100
038380
0701C0
0600C0
0FFFE0
1FFFF0
380038
70001C
E0000E
70001C
380038
1FFFF0
0FFFE0
0600C0
0701C0
030180
010100
ENDCHAR
STARTCHAR 21E6
ENCODING 8678
SWIDTH 1000 0
DWIDTH 25 0
BBX 23 17 1 1
BITMAP
004000
01C000
034000
064000
0C7FFE
180002
300002
400002
800002
400002
300002
180002
0C7FFE
064000
034000
01C000
004000
ENDCHAR
STARTCHAR 21E7
ENCODING 8679
SWIDTH 1000 0
DWIDTH 25 0
BBX 17 24 4 -2
BITMAP
008000
008000
014000
022000
063000
0C1800
080800
100400
200200
600300
F80F80
080800
080800
080800
080800
080800
080800
080800
080800
080800
080800
080800
080800
0FF800
ENDCHAR
STARTCHAR 21E8
ENCODING 8680
SWIDTH 1000 0
DWIDTH 25 0
BBX 23 17 1 1
BITMAP
000400
000600
000580
0004C0
FFFC60
800030
800018
80000C
800002
800004
800018
800030
FFFC60
0004C0
000580
000700
000400
ENDCHAR
STARTCHAR 21E9
ENCODING 8681
SWIDTH 1000 0
DWIDTH 25 0
BBX 17 24 4 -3
BITMAP
0FF800
080800
080800
080800
080800
080800
080800
080800
080800
080800
080800
080800
080800
F80F80
600300
200200
100400
080800
0C1800
063000
022000
014000
008000
008000
ENDCHAR
STARTCHAR 21F5
ENCODING 8693
SWIDTH 1000 0
DWIDTH 25 0
BBX 23 23 1 -2
BITMAP
060080
0600C0
0601E0
0603F0
0607F8
060EDC
061CCE
0608C4
0600C0
0600C0
0600C0
0600C0
0600C0
0600C0
0600C0
4620C0
E670C0
76E0C0
3FC0C0
1F80C0
0F00C0
0600C0
0400C0
ENDCHAR
STARTCHAR 2200
ENCODING 8704
SWIDTH 1000 0
DWIDTH 25 0
BBX 19 21 3 -1
BITMAP
400000
C00060
E000E0
6000C0
7001C0
300180
380380
1FFF00
1FFF00
0C0600
0E0E00
060C00
071C00
031800
03B800
01B000
01F000
00E000
00E000
004000
004000
ENDCHAR
STARTCHAR 2202
ENCODING 8706
SWIDTH 1000 0
DWIDTH 25 0
BBX 15 20 5 -1
BITMAP
03E0
0FF8
1C3C
081C
000E
000E
000E
0F8E
1FEE
387E
703E
601C
E01C
E01C
E038
E038
6070
78E0
3FC0
1F80
ENDCHAR
STARTCHAR 2203
ENCODING 8707
SWIDTH 1000 0
DWIDTH 25 0
BBX 15 19 5 0
BITMAP
FFFE
FFFE
0006
0006
0006
0006
0006
0006
0006
FFFE
FFFE
0006
0006
0006
0006
0006
0006
FFFE
FFFE
ENDCHAR
STARTCHAR 2205
ENCODING 8709
SWIDTH 1000 0
DWIDTH 25 0
BBX 19 19 3 0
BITMAP
03F800
0FFE80
1E0FC0
380380
300780
600FC0
601CC0
E038E0
C07060
C0E060
C1C060
E380E0
6700C0
6E00C0
3C0180
380380
7E0F00
2FFE00
03F800
ENDCHAR
STARTCHAR 2206
ENCODING 8710
SWIDTH 1000 0
DWIDTH 25 0
BBX 17 18 4 0
BITMAP
03E000
03E000
036000
077000
067000
0E3800
0E3800
1C1C00
1C1C00
1C1C00
380E00
380E00
700700
700700
700700
E00380
FFFF80
FFFF80
ENDCHAR
STARTCHAR 2207
ENCODING 8711
SWIDTH 1000 0
DWIDTH 25 0
BBX 17 19 4 -1
BITMAP
FFFF80
FFFF80
E00380
700700
700700
700700
380E00
380E00
181C00
1C1C00
1C1C00
0E3800
0E3800
063000
077000
077000
036000
03E000
01C000
ENDCHAR
STARTCHAR 2208
ENCODING 8712
SWIDTH 1000 0
DWIDTH 25 0
BBX 19 17 3 1
BITMAP
03FFE0
0FFFE0
3C0000
380000
700000
600000
E00000
C00000
FFFFE0
FFFFE0
C00000
E00000
600000
700000
3C0000
1FFFE0
03FFE0
ENDCHAR
STARTCHAR 2209
ENCODING 8713
SWIDTH 1000 0
DWIDTH 25 0
BBX 19 21 3 -1
BITMAP
006000
006000
03FFE0
0FFFE0
3C6000
386000
706000
606000
E06000
C06000
FFFFE0
FFFFE0
C06000
E06000
606000
706000
3C6000
1FFFE0
03FFE0
006000
006000
ENDCHAR
STARTCHAR 220A
ENCODING 8714
SWIDTH 1000 0
DWIDTH 25 0
BBX 12 15 6 -1
BITMAP
03F0
0FF0
3C00
3800
7000
6000
FFC0
FFC0
E000
E000
E000
7000
7820
3FE0
0FE0
ENDCHAR
STARTCHAR 220B
ENCODING 8715
SWIDTH 1000 0
DWIDTH 25 0
BBX 19 17 3 1
BITMAP
FFF800
FFFE00
000700
000380
0001C0
0000C0
0000E0
000060
FFFFE0
FFFFE0
000060
0000C0
0000C0
0001C0
000780
FFFE00
FFF800
ENDCHAR
STARTCHAR 220F
ENCODING 8719
SWIDTH 1000 0
DWIDTH 25 0
BBX 15 22 5 -4
BITMAP
FFFE
FFFE
FFFE
E00E
E00E
E00E
E00E
E00E
E00E
E00E
E00E
E00E
E00E
E00E
E00E
E00E
E00E
E00E
E00E
E00E
E00E
E00E
ENDCHAR
STARTCHAR 2211
ENCODING 8721
SWIDTH 1000 0
DWIDTH 25 0
BBX 15 18 5 0
BITMAP
FFFC
FFFC
7800
3800
1C00
0E00
0700
0780
03C0
0380
0780
0700
0E00
1C00
3800
7000
FFFE
FFFE
ENDCHAR
STARTCHAR 2212
ENCODING 8722
SWIDTH 560 0
DWIDTH 14 0
BBX 12 2 1 8
BITMAP
FFF0
FFF0
ENDCHAR
STARTCHAR 2213
ENCODING 8723
SWIDTH 1000 0
DWIDTH 25 0
BBX 19 20 3 -1
BITMAP
FFFFE0
FFFFE0
000000
000000
00E000
00E000
00E000
00E000
00E000
00E000
00E000
FFFFE0
FFFFE0
00E000
00E000
00E000
00E000
00E000
00E000
00E000
ENDCHAR
STARTCHAR 2215
ENCODING 8725
SWIDTH 1000 0
DWIDTH 25 0
BBX 23 23 1 -2
BITMAP
000002
000004
000008
000010
000020
000040
000080
000100
000200
000400
000800
001000
002000
004000
008000
010000
020000
040000
080000
100000
200000
400000
800000
ENDCHAR
STARTCHAR 221A
ENCODING 8730
SWIDTH 1000 0
DWIDTH 25 0
BBX 24 25 1 -3
BITMAP
0007FF
000C00
000800
000800
001800
001000
001000
002000
002000
002000
004000
004000
004000
008000
008000
108000
310000
710000
590000
9A0000
1E0000
0E0000
0C0000
0C0000
040000
ENDCHAR
STARTCHAR 221D
ENCODING 8733
SWIDTH 1000 0
DWIDTH 25 0
BBX 20 11 1 4
BITMAP
1F01F0
7F83F0
61CF00
C0EE00
C07C00
C03800
C07C00
C0EE00
E1EF00
7F83F0
1F01F0
ENDCHAR
STARTCHAR 221E
ENCODING 8734
SWIDTH 1000 0
DWIDTH 25 0
BBX 23 11 1 4
BITMAP
1F01F0
7F83FC
61CF0C
C0EE06
C07C06
C03806
C07C06
C0EE06
E1EF0C
7F83FC
1F01F0
ENDCHAR
STARTCHAR 221F
ENCODING 8735
SWIDTH 1000 0
DWIDTH 25 0
BBX 18 19 4 0
BITMAP
C00000
C00000
C00000
C00000
C00000
C00000
C00000
C00000
C00000
C00000
C00000
C00000
C00000
C00000
C00000
C00000
C00000
FFFFC0
FFFFC0
ENDCHAR
STARTCHAR 2220
ENCODING 8736
SWIDTH 1000 0
DWIDTH 25 0
BBX 19 17 3 1
BITMAP
000180
000380
000700
000E00
001C00
003800
007000
00E000
01C000
038000
038000
070000
0E0000
1C0000
380000
7FFFE0
FFFFE0
ENDCHAR
STARTCHAR 2223
ENCODING 8739
SWIDTH 1000 0
DWIDTH 25 0
BBX 3 18 11 1
BITMAP
E0
E0
E0
E0
E0
E0
E0
E0
E0
E0
E0
E0
E0
E0
E0
E0
E0
E0
ENDCHAR
STARTCHAR 2225
ENCODING 8741
SWIDTH 1000 0
DWIDTH 25 0
BBX 15 19 5 -1
BITMAP
0080
01C0
0180
0386
030E
070C
061C
0E18
0C38
1C30
1870
3860
30E0
70C0
61C0
E180
4380
0300
0700
ENDCHAR
STARTCHAR 2226
ENCODING 8742
SWIDTH 1000 0
DWIDTH 25 0
BBX 15 19 5 -1
BITMAP
0080
01C0
0180
1386
330E
1F0C
1E1C
0E18
0F38
1FB0
19F0
38E0
30E0
70F0
61F8
E190
4380
0300
0700
ENDCHAR
STARTCHAR 2227
ENCODING 8743
SWIDTH 1000 0
DWIDTH 25 0
BBX 19 20 3 0
BITMAP
004000
004000
00E000
00E000
01F000
01B000
03B800
031800
071C00
060C00
0C0E00
0C0600
180700
180300
300180
300180
6000C0
6000C0
C00060
400040
ENDCHAR
STARTCHAR 2228
ENCODING 8744
SWIDTH 1000 0
DWIDTH 25 0
BBX 19 20 3 -1
BITMAP
400040
C00060
6000C0
6000C0
300180
300180
180300
180700
0C0600
0E0E00
060C00
071C00
031800
03B800
01B000
01F000
00E000
00E000
004000
004000
ENDCHAR
STARTCHAR 2229
ENCODING 8745
SWIDTH 1000 0
DWIDTH 25 0
BBX 17 19 4 0
BITMAP
03E000
0FF800
1C1C00
380E00
700700
600300
600300
E00300
E00380
E00380
E00380
E00380
E00380
E00380
E00380
E00380
E00380
E00380
E00380
ENDCHAR
STARTCHAR 222A
ENCODING 8746
SWIDTH 1000 0
DWIDTH 25 0
BBX 17 19 4 0
BITMAP
E00380
E00380
E00380
E00380
E00380
E00380
E00380
E00380
E00380
E00380
E00380
E00300
600300
600300
700700
380E00
1C1C00
0FF800
03F000
ENDCHAR
STARTCHAR 222B
ENCODING 8747
SWIDTH 1000 0
DWIDTH 25 0
BBX 9 23 8 -2
BITMAP
0780
0F80
0E00
1C00
1C00
1C00
1C00
1C00
1C00
1C00
1C00
1C00
1C00
1C00
1C00
1C00
1C00
1C00
1C00
1C00
3800
F800
F000
ENDCHAR
STARTCHAR 222C
ENCODING 8748
SWIDTH 1000 0
DWIDTH 25 0
BBX 19 23 3 -2
BITMAP
0781E0
0F83E0
0E0380
0C0700
1C0700
1C0700
1C0700
1C0700
1C0700
1C0700
1C0700
1C0700
1C0700
1C0700
1C0700
1C0700
1C0700
1C0700
1C0700
1C0600
380E00
F83E00
F03C00
ENDCHAR
STARTCHAR 222D
ENCODING 8749
SWIDTH 1000 0
DWIDTH 25 0
BBX 23 23 1 -2
BITMAP
078F1E
0F9F3E
0E1C38
0C3870
1C3870
1C3870
1C3870
1C3870
1C3870
1C3870
1C3870
1C3870
1C3870
1C3870
1C3870
1C3870
1C3870
1C3870
1C3870
1C3860
3870E0
F9F3E0
F1E3C0
ENDCHAR
STARTCHAR 222E
ENCODING 8750
SWIDTH 1000 0
DWIDTH 25 0
BBX 9 23 8 -2
BITMAP
0780
0F80
0E00
1C00
1C00
1C00
1C00
1C00
7F00
5D00
9C80
9C80
9C80
5D00
7F00
1C00
1C00
1C00
1C00
1C00
3800
F800
F000
ENDCHAR
STARTCHAR 2234
ENCODING 8756
SWIDTH 1000 0
DWIDTH 25 0
BBX 17 16 4 1
BITMAP
01C000
01C000
01C000
01C000
000000
000000
000000
000000
000000
000000
000000
000000
600300
F00780
F00780
600300
ENDCHAR
STARTCHAR 2235
ENCODING 8757
SWIDTH 1000 0
DWIDTH 25 0
BBX 17 16 4 1
BITMAP
600300
F00780
F00780
600300
000000
000000
000000
000000
000000
000000
000000
000000
01C000
01C000
01C000
01C000
ENDCHAR
STARTCHAR 2236
ENCODING 8758
SWIDTH 1000 0
DWIDTH 25 0
BBX 3 16 11 1
BITMAP
E0
E0
E0
E0
00
00
00
00
00
00
00
00
E0
E0
E0
E0
ENDCHAR
STARTCHAR 2237
ENCODING 8759
SWIDTH 1000 0
DWIDTH 25 0
BBX 17 16 4 1
BITMAP
600300
F00780
F00780
600300
000000
000000
000000
000000
000000
000000
000000
000000
600300
F00780
F00780
600300
ENDCHAR
STARTCHAR 223D
ENCODING 8765
SWIDTH 1000 0
DWIDTH 25 0
BBX 23 11 1 4
BITMAP
1E01F0
7E03FC
600F0C
C00E06
C01C06
C03806
C07006
C0E006
E1E00C
7F80FC
1F00F0
ENDCHAR
STARTCHAR 2243
ENCODING 8771
SWIDTH 1000 0
DWIDTH 25 0
BBX 18 10 3 5
BITMAP
1F0040
3FC0C0
70E1C0
E07F80
401E00
000000
000000
000000
FFFFC0
FFFFC0
ENDCHAR
STARTCHAR 2245
ENCODING 8773
SWIDTH 1000 0
DWIDTH 25 0
BBX 19 13 3 3
BITMAP
0F0040
3FC0E0
71E1C0
E07F80
401F00
000000
000000
FFFFC0
FFFFC0
000000
000000
FFFFC0
FFFFC0
ENDCHAR
STARTCHAR 2248
ENCODING 8776
SWIDTH 1000 0
DWIDTH 25 0
BBX 19 11 3 4
BITMAP
1F0040
3FC0C0
70E1C0
E07F80
401E00
000000
0F0040
3FC0E0
71E1C0
E07F80
401F00
ENDCHAR
STARTCHAR 224C
ENCODING 8780
SWIDTH 1000 0
DWIDTH 25 0
BBX 23 19 1 0
BITMAP
1E01F0
7E07FC
E00F0E
C01C06
C01806
C03006
C07006
E1E00E
7FC0FC
1F00F0
000000
000000
000000
3FFFF0
3FFFF0
000000
000000
3FFFF0
3FFFF0
ENDCHAR
STARTCHAR 2252
ENCODING 8786
SWIDTH 1000 0
DWIDTH 25 0
BBX 18 19 3 0
BITMAP
0C0000
1E0000
1E0000
0C0000
000000
000000
FFFFC0
FFFFC0
000000
000000
000000
FFFFC0
FFFFC0
000000
000000
000600
000F00
000F00
000600
ENDCHAR
STARTCHAR 2260
ENCODING 8800
SWIDTH 1000 0
DWIDTH 25 0
BBX 18 18 3 0
BITMAP
001800
001800
001800
003000
003000
FFFFC0
FFFFC0
006000
006000
00C000
00C000
FFFFC0
FFFFC0
018000
038000
030000
030000
030000
ENDCHAR
STARTCHAR 2261
ENCODING 8801
SWIDTH 1000 0
DWIDTH 25 0
BBX 18 13 3 3
BITMAP
FFFFC0
FFFFC0
000000
000000
000000
000000
FFFFC0
FFFFC0
000000
000000
000000
FFFFC0
FFFFC0
ENDCHAR
STARTCHAR 2262
ENCODING 8802
SWIDTH 1000 0
DWIDTH 25 0
BBX 18 17 3 0
BITMAP
001800
001800
001800
FFFFC0
FFFFC0
003000
006000
006000
FFFFC0
FFFFC0
00C000
01C000
FFFFC0
FFFFC0
030000
030000
030000
ENDCHAR
STARTCHAR 2264
ENCODING 8804
SWIDTH 1000 0
DWIDTH 25 0
BBX 19 20 3 0
BITMAP
000040
0001E0
000FC0
003F00
00F800
07E000
1F0000
FC0000
7C0000
1F8000
07E000
00F800
003F00
0007C0
0001E0
000040
000000
000000
FFFFE0
FFFFE0
ENDCHAR
STARTCHAR 2265
ENCODING 8805
SWIDTH 1000 0
DWIDTH 25 0
BBX 19 20 3 0
BITMAP
400000
F00000
7E0000
1F8000
03E000
00FC00
001F00
0007E0
0007C0
003F00
00FC00
07E000
1F8000
7C0000
F00000
400000
000000
000000
FFFFE0
FFFFE0
ENDCHAR
STARTCHAR 2266
ENCODING 8806
SWIDTH 1000 0
DWIDTH 25 0
BBX 19 23 3 -1
BITMAP
0001E0
0007E0
003F00
00FC00
07E000
1F8000
FC0000
7E0000
0F8000
03F000
007C00
001F80
0003E0
0000E0
000000
000000
FFFFE0
FFFFE0
000000
000000
000000
FFFFE0
FFFFE0
ENDCHAR
STARTCHAR 2267
ENCODING 8807
SWIDTH 1000 0
DWIDTH 25 0
BBX 19 23 3 -1
BITMAP
F00000
FC0000
1F8000
07E000
00FC00
003F00
0007E0
000FC0
003E00
01F800
0FC000
3F0000
F80000
E00000
000000
000000
FFFFE0
FFFFE0
000000
000000
000000
FFFFE0
FFFFE0
ENDCHAR
STARTCHAR 226A
ENCODING 8810
SWIDTH 1000 0
DWIDTH 25 0
BBX 23 19 1 0
BITMAP
000404
000E0E
003838
007070
01E1E0
038380
070F00
1C1C00
383800
E0E000
707000
1C3C00
0E0E00
078700
01C1C0
00E0E0
003838
001C1C
000604
ENDCHAR
STARTCHAR 226B
ENCODING 8811
SWIDTH 1000 0
DWIDTH 25 0
BBX 23 19 1 0
BITMAP
404000
E0E000
387800
1C1C00
0F0F00
038380
01C1C0
007070
003838
000E0E
001C1C
007070
00E0E0
03C380
070700
0E0E00
383800
707000
40C000
ENDCHAR
STARTCHAR 226E
ENCODING 8814
SWIDTH 1000 0
DWIDTH 25 0
BBX 20 21 2 -1
BITMAP
000C00
000C20
0018F0
001BC0
001F80
003E00
00F800
03F000
0FB000
3E3000
F83000
3E6000
0FE000
03E000
00F800
007C00
00CF00
00C3C0
00C0F0
00C020
018000
ENDCHAR
STARTCHAR 226F
ENCODING 8815
SWIDTH 1000 0
DWIDTH 25 0
BBX 20 21 3 -1
BITMAP
003000
403000
F03000
3C3000
1F3000
07E000
01F000
007C00
007F00
0047C0
00C1F0
00C7C0
00DF00
00FC00
01F000
07C000
0F8000
3D8000
F18000
430000
030000
ENDCHAR
STARTCHAR 2272
ENCODING 8818
SWIDTH 1000 0
DWIDTH 25 0
BBX 19 22 3 -2
BITMAP
0000E0
0003E0
000F80
007E00
01F800
07C000
3F0000
FC0000
3E0000
0FC000
03F000
007C00
001F00
0007E0
0000E0
000020
000000
1F0040
3FC0E0
70F1C0
E07F80
401F00
ENDCHAR
STARTCHAR 2273
ENCODING 8819
SWIDTH 1000 0
DWIDTH 25 0
BBX 19 22 3 -2
BITMAP
E00000
F80000
3E0000
0FC000
03F000
007C00
001F80
0007E0
000F80
003E00
01F800
07E000
1F0000
FC0000
F00000
800000
000000
1F0040
3FC0E0
70F1C0
E07F80
401F00
ENDCHAR
STARTCHAR 2276
ENCODING 8822
SWIDTH 1000 0
DWIDTH 25 0
BBX 20 23 3 -2
BITMAP
000060
0003E0
001FC0
007E00
03F000
1F8000
FC0000
7E0000
0FC000
01F800
E07E00
FC0FC0
3F01E0
07E020
00FC00
001F80
0007F0
001F80
00FC00
07F000
1F8000
FC0000
E00000
ENDCHAR
STARTCHAR 2277
ENCODING 8823
SWIDTH 1000 0
DWIDTH 25 0
BBX 20 23 2 -2
BITMAP
600000
7C0000
3F0000
07E000
00FC00
001F80
0007F0
0007E0
003F00
01F800
0FC070
3F03F0
780FC0
407E00
03F000
1F8000
FC0000
1F8000
03F000
00FC00
001F80
0003F0
000070
ENDCHAR
STARTCHAR 2282
ENCODING 8834
SWIDTH 1000 0
DWIDTH 25 0
BBX 19 17 3 1
BITMAP
03FFE0
0FFFE0
3C0000
300000
600000
600000
C00000
C00000
C00000
C00000
C00000
600000
600000
300000
3C0000
0FFFE0
03FFE0
ENDCHAR
STARTCHAR 2283
ENCODING 8835
SWIDTH 1000 0
DWIDTH 25 0
BBX 19 17 3 1
BITMAP
FFF800
FFFE00
000780
000180
0000C0
0000C0
000060
000060
000060
000060
000060
0000C0
0000C0
000180
000780
FFFE00
FFF800
ENDCHAR
STARTCHAR 2284
ENCODING 8836
SWIDTH 1000 0
DWIDTH 25 0
BBX 19 21 3 -1
BITMAP
000180
000180
03FFE0
0FFFE0
3C0600
300E00
600C00
601C00
C01800
C03800
C03000
C07000
C06000
606000
60C000
30C000
3D8000
1FFFE0
07FFE0
070000
020000
ENDCHAR
STARTCHAR 2285
ENCODING 8837
SWIDTH 1000 0
DWIDTH 25 0
BBX 19 21 3 -1
BITMAP
000800
001C00
FFFC00
FFFE00
003780
006180
0060C0
00C0C0
00C060
01C060
018060
038060
030060
0700C0
0600C0
0E0180
0C0780
FFFE00
FFF800
300000
300000
ENDCHAR
STARTCHAR 2286
ENCODING 8838
SWIDTH 1000 0
DWIDTH 25 0
BBX 19 20 3 -1
BITMAP
0FFFE0
3FFFE0
780000
600000
E00000
C00000
C00000
C00000
E00000
600000
780000
3FFFE0
0FFFE0
000000
000000
000000
000000
000000
FFFFE0
FFFFE0
ENDCHAR
STARTCHAR 2287
ENCODING 8839
SWIDTH 1000 0
DWIDTH 25 0
BBX 19 20 3 -1
BITMAP
FFFE00
FFFF00
000380
0000C0
0000E0
000060
000060
000060
0000E0
0000C0
0003C0
FFFF80
FFFE00
000000
000000
000000
000000
000000
FFFFE0
FFFFE0
ENDCHAR
STARTCHAR 228A
ENCODING 8842
SWIDTH 1000 0
DWIDTH 25 0
BBX 19 21 3 -2
BITMAP
0FFFE0
3FFFE0
780000
600000
E00000
C00000
C00000
C00000
E00000
600000
780000
3FFFE0
0FFFE0
000000
000000
003000
007000
FFFFE0
FFFFE0
01C000
018000
ENDCHAR
STARTCHAR 228B
ENCODING 8843
SWIDTH 1000 0
DWIDTH 25 0
BBX 19 21 3 -2
BITMAP
FFFE00
FFFF00
000380
0000C0
0000E0
000060
000060
000060
0000E0
0000C0
0003C0
FFFF80
FFFE00
000000
000000
003000
007000
FFFFE0
FFFFE0
01C000
018000
ENDCHAR
STARTCHAR 2295
ENCODING 8853
SWIDTH 1000 0
DWIDTH 25 0
BBX 19 19 3 0
BITMAP
03F800
0FFE00
1E0F00
380380
70E180
60E0C0
60E0C0
C0E0E0
CFFE60
CFFE60
C0E060
E0E0C0
60E0C0
70E1C0
30E180
380380
1E0F00
0FFE00
03F800
ENDCHAR
STARTCHAR 2296
ENCODING 8854
SWIDTH 1000 0
DWIDTH 25 0
BBX 19 19 3 0
BITMAP
03F800
0FFE00
1E0F00
380380
700180
6000C0
6000C0
C000E0
CFFE60
CFFE60
C00060
E000C0
6000C0
7001C0
300180
380380
1E0F00
0FFE00
03F800
ENDCHAR
STARTCHAR 2297
ENCODING 8855
SWIDTH 1000 0
DWIDTH 25 0
BBX 19 19 3 0
BITMAP
03F800
0FFE00
1E0F00
380380
300180
6208C0
671CC0
E3B8E0
C1F060
C0E060
C1F060
E3B8E0
671CC0
6208C0
300180
380380
1E0F00
0FFE00
03F800
ENDCHAR
STARTCHAR 2298
ENCODING 8856
SWIDTH 1000 0
DWIDTH 25 0
BBX 19 19 3 0
BITMAP
03F800
0FFE00
1E0F00
380380
300180
6008C0
601CC0
E038E0
C07060
C0E060
C1C060
E380E0
6700C0
6200C0
300180
380380
1E0F00
0FFE00
03F800
ENDCHAR
STARTCHAR 2299
ENCODING 8857
SWIDTH 1000 0
DWIDTH 25 0
BBX 19 19 3 0
BITMAP
03F800
0FFE00
1E0F00
380380
300180
6001C0
6000C0
E000E0
C0E060
C0E060
C0E060
E000E0
6000C0
6001C0
300180
380380
1E0F00
0FFE00
03F800
ENDCHAR
STARTCHAR 22A0
ENCODING 8864
SWIDTH 1000 0
DWIDTH 25 0
BBX 20 21 2 -1
BITMAP
FFFFF0
FFFFF0
E00030
E00030
E00030
E60330
E70730
E38E30
E1DC30
E0F830
E07030
E0F830
E1DC30
E38E30
E70730
E60330
E00030
E00030
E00030
FFFFF0
FFFFF0
ENDCHAR
STARTCHAR 22A5
ENCODING 8869
SWIDTH 1000 0
DWIDTH 25 0
BBX 20 18 2 1
BITMAP
007000
007000
007000
007000
007000
007000
007000
007000
007000
007000
007000
007000
007000
007000
007000
007000
FFFFF0
FFFFF0
ENDCHAR
STARTCHAR 22BF
ENCODING 8895
SWIDTH 1000 0
DWIDTH 25 0
BBX 19 20 3 0
BITMAP
000020
000060
0000E0
0001E0
0003E0
000760
000E60
001C60
003860
007060
00E060
01C060
038060
070060
0E0060
1C0060
180060
380060
7FFFE0
FFFFE0
ENDCHAR
STARTCHAR 22DA
ENCODING 8922
SWIDTH 1000 0
DWIDTH 25 0
BBX 20 25 2 -3
BITMAP
000010
0001F0
001FE0
01FE00
0FE000
FF0000
0FF000
00FE00
000FE0
0001F0
000010
7FFFF0
7FFFF0
000000
700000
FF0000
0FE000
01FE00
001FC0
001FE0
00FE00
0FF000
7F8000
780000
400000
ENDCHAR
STARTCHAR 22DB
ENCODING 8923
SWIDTH 1000 0
DWIDTH 25 0
BBX 20 25 3 -3
BITMAP
800000
F80000
7F8000
07F800
007F00
000FF0
00FF00
07F000
7F0000
F80000
800000
FFFFE0
FFFFE0
000000
0000E0
000FF0
007F00
07F800
3F8000
7F8000
07F000
00FF00
001FE0
0001E0
000020
ENDCHAR
STARTCHAR 22EF
ENCODING 8943
SWIDTH 1000 0
DWIDTH 25 0
BBX 21 4 2 8
BITMAP
202020
F07070
F07078
607030
ENDCHAR
STARTCHAR 2305
ENCODING 8965
SWIDTH 1000 0
DWIDTH 25 0
BBX 17 16 4 0
BITMAP
FFFF80
FFFF80
000000
008000
01C000
01C000
036000
036000
063000
0C3800
0C1800
180C00
380E00
300600
600300
E00380
ENDCHAR
STARTCHAR 2306
ENCODING 8966
SWIDTH 1000 0
DWIDTH 25 0
BBX 17 19 4 -1
BITMAP
FFFF80
FFFF80
000000
000000
000000
000000
FFFF80
FFFF80
01C000
03E000
036000
063000
0E3800
0C1800
180C00
380E00
300600
600300
E00380
ENDCHAR
STARTCHAR 2307
ENCODING 8967
SWIDTH 1000 0
DWIDTH 25 0
BBX 7 25 9 -3
BITMAP
C0
C0
70
3C
0E
06
06
06
1C
78
E0
C0
C0
C0
E0
78
1C
06
06
06
06
3C
70
C0
C0
ENDCHAR
STARTCHAR 2312
ENCODING 8978
SWIDTH 1000 0
DWIDTH 25 0
BBX 23 7 1 14
BITMAP
03FF00
0FFFE0
3F01F8
78003C
E0000E
C00006
800002
ENDCHAR
STARTCHAR 2318
ENCODING 8984
SWIDTH 1000 0
DWIDTH 25 0
BBX 23 23 1 -2
BITMAP
3C0078
62008C
410104
810102
810102
410104
61010C
3FFFF8
010100
010100
010100
010100
010100
010100
010100
3FFFF8
61010C
410104
810102
810102
410104
62008C
3C0078
ENDCHAR
STARTCHAR 2329
ENCODING 9001
SWIDTH 1000 0
DWIDTH 25 0
BBX 9 23 15 -2
BITMAP
0380
0300
0600
0E00
0C00
1C00
3800
3000
7000
6000
C000
C000
E000
6000
7000
3800
1800
1C00
0C00
0600
0700
0300
0300
ENDCHAR
STARTCHAR 232A
ENCODING 9002
SWIDTH 1000 0
DWIDTH 25 0
BBX 9 23 1 -2
BITMAP
E000
6000
3000
3800
1800
1C00
0E00
0600
0700
0300
0180
0180
0380
0300
0700
0E00
0C00
1C00
1800
3000
7000
6000
6000
ENDCHAR
STARTCHAR 23B0
ENCODING 9136
SWIDTH 1000 0
DWIDTH 25 0
BBX 7 25 9 -3
BITMAP
0E
1E
18
38
38
38
38
38
38
18
18
18
18
18
18
18
18
18
18
18
18
18
18
30
F0
ENDCHAR
STARTCHAR 23B1
ENCODING 9137
SWIDTH 1000 0
DWIDTH 25 0
BBX 7 24 9 -2
BITMAP
F0
30
18
18
18
18
18
18
18
18
18
18
18
18
18
18
38
38
38
38
38
18
18
1E
ENDCHAR
STARTCHAR 23BE
ENCODING 9150
SWIDTH 1000 0
DWIDTH 25 0
BBX 13 26 12 -4
BITMAP
FFF8
8000
8000
8000
8000
8000
8000
8000
8000
8000
8000
8000
8000
8000
8000
8000
8000
8000
8000
8000
8000
8000
8000
8000
8000
8000
ENDCHAR
STARTCHAR 23BF
ENCODING 9151
SWIDTH 1000 0
DWIDTH 25 0
BBX 13 26 12 -3
BITMAP
8000
8000
8000
8000
8000
8000
8000
8000
8000
8000
8000
8000
8000
8000
8000
8000
8000
8000
8000
8000
8000
8000
8000
8000
8000
FFF8
ENDCHAR
STARTCHAR 23C0
ENCODING 9152
SWIDTH 1000 0
DWIDTH 25 0
BBX 16 25 4 -3
BITMAP
0080
0080
0080
0080
0080
07F0
188C
3086
2082
4081
4081
4081
8081
4081
4081
4081
2082
3086
188C
07F0
0080
0080
0080
0080
0080
ENDCHAR
STARTCHAR 23C1
ENCODING 9153
SWIDTH 1000 0
DWIDTH 25 0
BBX 25 26 0 -4
BITMAP
FFFFFF80
00080000
00080000
00080000
00080000
007F0000
0188C000
03086000
02082000
04081000
04081000
04081000
08081000
0C081000
04081000
04081000
06083000
02082000
01084000
00C98000
003E0000
00080000
00080000
00080000
00080000
00080000
ENDCHAR
STARTCHAR 23C2
ENCODING 9154
SWIDTH 1000 0
DWIDTH 25 0
BBX 25 26 0 -3
BITMAP
00080000
00080000
00080000
00080000
00080000
003E0000
00C98000
01084000
02082000
06083000
04081000
04081000
04081000
08081000
04081000
04081000
04081000
02082000
03086000
0188C000
007F0000
00080000
00080000
00080000
00080000
FFFFFF80
ENDCHAR
STARTCHAR 23C3
ENCODING 9155
SWIDTH 1000 0
DWIDTH 25 0
BBX 19 26 3 -4
BITMAP
004000
004000
004000
004000
004000
004000
00E000
01F000
015000
025800
024800
044400
044400
084200
084200
104100
304180
204080
6040C0
404040
FFFFE0
004000
004000
004000
004000
004000
ENDCHAR
STARTCHAR 23C4
ENCODING 9156
SWIDTH 1000 0
DWIDTH 25 0
BBX 25 26 0 -4
BITMAP
FFFFFF80
00080000
00080000
00080000
00080000
00080000
001C0000
001C0000
002A0000
006B0000
00490000
00898000
00888000
01084000
01084000
02082000
06082000
04081000
0C081800
08080800
1FFFFC00
00080000
00080000
00080000
00080000
00080000
ENDCHAR
STARTCHAR 23C5
ENCODING 9157
SWIDTH 1000 0
DWIDTH 25 0
BBX 25 25 0 -3
BITMAP
00080000
00080000
00080000
00080000
00080000
00080000
001C0000
003E0000
002A0000
004B0000
00490000
00888000
00888000
01084000
01084000
02082000
06083000
04081000
0C081800
08080800
1FFFFC00
00080000
00080000
00080000
FFFFFF80
ENDCHAR
STARTCHAR 23C6
ENCODING 9158
SWIDTH 1000 0
DWIDTH 25 0
BBX 16 26 4 -4
BITMAP
0080
0080
0080
0080
0080
0080
0080
0080
0080
1C80
2281
4181
4081
40C1
80A2
809C
0080
0080
0080
0080
0080
0080
0080
0080
0080
0080
ENDCHAR
STARTCHAR 23C7
ENCODING 9159
SWIDTH 1000 0
DWIDTH 25 0
BBX 25 26 0 -4
BITMAP
FFFFFF80
00080000
00080000
00080000
00080000
00080000
00080000
00080000
00080000
01C80000
02281000
04181000
04081000
040C1000
080A2000
0809C000
00080000
00080000
00080000
00080000
00080000
00080000
00080000
00080000
00080000
00080000
ENDCHAR
STARTCHAR 23C8
ENCODING 9160
SWIDTH 1000 0
DWIDTH 25 0
BBX 25 25 0 -3
BITMAP
00080000
00080000
00080000
00080000
00080000
00080000
00080000
00080000
00080000
01C80000
02281000
04181000
04081000
040C1000
080A2000
0809C000
00080000
00080000
00080000
00080000
00080000
00080000
00080000
00080000
FFFFFF80
ENDCHAR
STARTCHAR 23C9
ENCODING 9161
SWIDTH 1000 0
DWIDTH 25 0
BBX 25 26 0 -4
BITMAP
FFFFFF80
00080000
00080000
00080000
00080000
00080000
00080000
00080000
00080000
00080000
00080000
00080000
00080000
00080000
00080000
00080000
00080000
00080000
00080000
00080000
00080000
00080000
00080000
00080000
00080000
00080000
ENDCHAR
STARTCHAR 23CA
ENCODING 9162
SWIDTH 1000 0
DWIDTH 25 0
BBX 25 26 0 -3
BITMAP
00080000
00080000
00080000
00080000
00080000
00080000
00080000
00080000
00080000
00080000
00080000
00080000
00080000
00080000
00080000
00080000
00080000
00080000
00080000
00080000
00080000
00080000
00080000
00080000
00080000
FFFFFF80
ENDCHAR
STARTCHAR 23CB
ENCODING 9163
SWIDTH 1000 0
DWIDTH 25 0
BBX 13 26 0 -4
BITMAP
FFF8
0008
0008
0008
0008
0008
0008
0008
0008
0008
0008
0008
0008
0008
0008
0008
0008
0008
0008
0008
0008
0008
0008
0008
0008
0008
ENDCHAR
STARTCHAR 23CC
ENCODING 9164
SWIDTH 1000 0
DWIDTH 25 0
BBX 13 26 0 -3
BITMAP
0008
0008
0008
0008
0008
0008
0008
0008
0008
0008
0008
0008
0008
0008
0008
0008
0008
0008
0008
0008
0008
0008
0008
0008
0008
FFF8
ENDCHAR
STARTCHAR 23CE
ENCODING 9166
SWIDTH 1000 0
DWIDTH 25 0
BBX 22 23 1 -3
BITMAP
0001FC
000104
000104
000104
000104
000104
008104
008104
018104
028104
0C8304
18FE04
300004
60000C
C00008
C00018
600030
3000E0
18FF80
048000
028000
018000
008000
ENDCHAR
STARTCHAR 23DA
ENCODING 9178
SWIDTH 1000 0
DWIDTH 25 0
BBX 17 21 4 -1
BITMAP
01C000
01C000
01C000
01C000
01C000
01C000
01C000
01C000
01C000
01C000
01C000
01C000
FFFF80
FFFF80
000000
000000
1FFC00
1FFC00
000000
03E000
03E000
ENDCHAR
STARTCHAR 23DB
ENCODING 9179
SWIDTH 1000 0
DWIDTH 25 0
BBX 23 9 1 5
BITMAP
0FFFE0
080060
080060
FFFFFE
FFFFFE
080060
080060
080060
0FFFE0
ENDCHAR
STARTCHAR 2423
ENCODING 9251
SWIDTH 1000 0
DWIDTH 25 0
BBX 19 5 3 -3
BITMAP
800020
800020
800020
800020
FFFFE0
ENDCHAR
STARTCHAR 2460
ENCODING 9312
SWIDTH 1000 0
DWIDTH 25 0
BBX 23 25 1 -3
BITMAP
007C00
038180
040040
080020
100010
200008
403804
40F804
80F804
801802
801802
801802
801802
801802
801802
801802
801802
401804
401804
200008
100010
180030
040040
030180
00FE00
ENDCHAR
STARTCHAR 2461
ENCODING 9313
SWIDTH 1000 0
DWIDTH 25 0
BBX 23 25 1 -3
BITMAP
007C00
038380
040040
180030
300010
207C08
41FE04
41C704
800702
800702
800702
800602
800E02
801C02
803802
807002
80E002
41FF04
41FF04
200008
100010
080020
040040
030180
00FE00
ENDCHAR
STARTCHAR 2462
ENCODING 9314
SWIDTH 1000 0
DWIDTH 25 0
BBX 23 25 1 -3
BITMAP
007C00
038380
040040
180030
100010
207C08
41FE04
408704
800702
800702
800602
803C02
803E02
800702
800302
800302
818704
41FF04
40FC04
200008
100010
080020
040040
030380
00FC00
ENDCHAR
STARTCHAR 2463
ENCODING 9315
SWIDTH 1000 0
DWIDTH 25 0
BBX 23 25 1 -3
BITMAP
007C00
038380
040040
080020
100010
200008
401C04
403C04
807C04
806C02
80EC02
81CC02
818C02
838C02
83FF02
83FF02
800C02
400C04
400C04
200008
100010
180030
040040
030180
00FE00
ENDCHAR
STARTCHAR 2464
ENCODING 9316
SWIDTH 1000 0
DWIDTH 25 0
BBX 23 25 1 -3
BITMAP
007C00
038180
040040
080020
100010
200008
40FF04
40FF04
80C002
80C002
80DC02
80FE02
80C702
800302
800302
800302
818704
41FE04
407C04
200008
100010
080020
040040
030380
00FC00
ENDCHAR
STARTCHAR 2465
ENCODING 9317
SWIDTH 1000 0
DWIDTH 25 0
BBX 23 25 1 -3
BITMAP
007C00
038380
040040
180020
100010
203C08
40FF04
41E604
81C002
818002
838002
83BC02
83FE02
838702
838302
818302
81C702
40FE04
407C04
200008
100010
080020
040040
030380
00FC00
ENDCHAR
STARTCHAR 2466
ENCODING 9318
SWIDTH 1000 0
DWIDTH 25 0
BBX 23 25 1 -3
BITMAP
007C00
038180
040040
080020
100010
200008
41FF04
41FF04
800604
800E02
800C02
801C02
801802
803802
803802
803002
803002
403004
403004
200008
100010
180030
040040
030180
00FE00
ENDCHAR
STARTCHAR 2467
ENCODING 9319
SWIDTH 1000 0
DWIDTH 25 0
BBX 23 25 1 -3
BITMAP
007C00
038380
040040
080020
100010
203808
40FE04
41C704
818302
818302
80C602
80FE02
807C02
80CE02
818702
818302
818302
41C704
40FE04
207C08
300018
180030
040040
030180
00FE00
ENDCHAR
STARTCHAR 2468
ENCODING 9320
SWIDTH 1000 0
DWIDTH 25 0
BBX 23 25 1 -3
BITMAP
007C00
038380
040040
180030
100010
207C08
40FE04
41C704
818302
818302
818382
81C782
80FF82
807B82
800302
800302
808704
41FE04
40FC04
200008
100010
080020
040040
030380
00FC00
ENDCHAR
STARTCHAR 2469
ENCODING 9321
SWIDTH 1000 0
DWIDTH 25 0
BBX 23 25 1 -3
BITMAP
007C00
038380
040040
180030
300010
200788
430FC4
4F1CC4
8F18E2
8318E2
831862
831862
831862
831862
8318E2
8318E2
831CC4
430FC4
430784
200008
100010
080020
040040
030380
00FC00
ENDCHAR
STARTCHAR 246A
ENCODING 9322
SWIDTH 1000 0
DWIDTH 25 0
BBX 23 25 1 -3
BITMAP
007C00
038180
040040
080020
100010
200008
41C384
47CF84
87CF84
81C382
81C382
81C382
81C382
81C382
81C382
81C382
81C382
41C384
41C384
200008
100010
180030
040040
030180
00FE00
ENDCHAR
STARTCHAR 246B
ENCODING 9323
SWIDTH 1000 0
DWIDTH 25 0
BBX 23 25 1 -3
BITMAP
007C00
038380
040040
180030
300010
200F08
431F84
4F19C4
8F00C2
8300C2
8301C2
8301C2
830182
830382
830702
830602
830E02
431FC4
431FC4
200008
100010
080020
040040
030180
00FE00
ENDCHAR
STARTCHAR 246C
ENCODING 9324
SWIDTH 1000 0
DWIDTH 25 0
BBX 23 25 1 -3
BITMAP
007C00
038380
040040
180030
100010
200F08
431F84
4F09C4
8F00C2
8300C2
8301C2
830782
830782
8301C2
8300C2
8300C2
8319C4
431FC4
430F84
200008
100010
080020
040040
030380
00FC00
ENDCHAR
STARTCHAR 246D
ENCODING 9325
SWIDTH 1000 0
DWIDTH 25 0
BBX 23 25 1 -3
BITMAP
007C00
038380
040040
080020
100010
200008
430384
4F0384
8F0784
830782
830D82
830D82
831982
831982
833FE2
833FE2
830182
430184
430184
200008
100010
180030
040040
030180
00FE00
ENDCHAR
STARTCHAR 246E
ENCODING 9326
SWIDTH 1000 0
DWIDTH 25 0
BBX 23 25 1 -3
BITMAP
007C00
038180
040040
080020
100010
200008
430FC4
4F0FC4
8F0C02
830C02
830F02
831FC2
8309C2
8300C2
8300E2
8300C2
8319C4
431FC4
430F04
200008
100010
080020
040040
030380
00FC00
ENDCHAR
STARTCHAR 246F
ENCODING 9327
SWIDTH 1000 0
DWIDTH 25 0
BBX 23 25 1 -3
BITMAP
007C00
038380
040040
180020
100010
200788
430FC4
4F0CC4
8F1C02
831802
831802
831B82
831FC2
8318C2
8318E2
8318E2
831CC2
430FC4
430784
200008
100010
080020
040040
030380
00FC00
ENDCHAR
STARTCHAR 2470
ENCODING 9328
SWIDTH 1000 0
DWIDTH 25 0
BBX 23 25 1 -3
BITMAP
007C00
038180
040040
080020
100010
200008
471FC4
4F1FC4
8F00C4
830182
830182
830302
830302
830302
830702
830602
830602
430604
430604
200008
100010
180030
040040
030180
00FE00
ENDCHAR
STARTCHAR 2471
ENCODING 9329
SWIDTH 1000 0
DWIDTH 25 0
BBX 23 25 1 -3
BITMAP
007C00
038380
040040
080020
100010
200708
430FC4
4F0CC4
8F18C2
831CC2
830CC2
830FC2
830782
830DC2
8318E2
831862
831862
431CE4
430FC4
230788
300018
180030
040040
030180
00FE00
ENDCHAR
STARTCHAR 2472
ENCODING 9330
SWIDTH 1000 0
DWIDTH 25 0
BBX 23 25 1 -3
BITMAP
007C00
038380
040040
180030
100010
200708
430F84
4F1CC4
8F18C2
8318E2
831862
8318E2
831FE2
830FE2
8300E2
8300C2
8309C2
431F84
430F04
200008
100010
080020
040040
030380
00FC00
ENDCHAR
STARTCHAR 2473
ENCODING 9331
SWIDTH 1000 0
DWIDTH 25 0
BBX 23 25 1 -3
BITMAP
007C00
038380
040040
180030
300010
2783C8
4FC7E4
4CE664
806E72
806C72
806C32
80EC32
80CC32
81CC32
838C72
830E72
870662
4FE7E4
4FE3C4
200008
100010
080020
040040
030180
00FE00
ENDCHAR
STARTCHAR 2474
ENCODING 9332
SWIDTH 1000 0
DWIDTH 25 0
BBX 23 23 1 -2
BITMAP
300018
200008
60000C
603C0C
40FC04
C0FC06
C01C06
C01C06
C01C06
C01C06
801C06
801C06
801C06
C01C06
C01C06
C01C06
C01C06
C01C06
401C04
61FF8C
61FF8C
200008
300018
ENDCHAR
STARTCHAR 2475
ENCODING 9333
SWIDTH 1000 0
DWIDTH 25 0
BBX 23 23 1 -1
BITMAP
300018
200008
607C0C
41FE0C
43CF04
C10706
C00386
C00386
C00386
C00706
800706
800706
800E06
C01C06
C03C06
C07806
C07006
C0E006
41C004
63FF8C
63FF8C
200008
300018
ENDCHAR
STARTCHAR 2476
ENCODING 9334
SWIDTH 1000 0
DWIDTH 25 0
BBX 23 23 1 -1
BITMAP
300018
200008
607C0C
61FE0C
43CF04
C10706
C00386
C00386
C00706
C00706
801E06
807C06
807E06
C00F06
C00386
C00386
C00386
C20386
438784
63FF0C
61FE0C
200008
300018
ENDCHAR
STARTCHAR 2477
ENCODING 9335
SWIDTH 1000 0
DWIDTH 25 0
BBX 23 23 1 -2
BITMAP
300018
200008
600E0C
401E0C
401E04
C03606
C03606
C06606
C0E606
C0C606
81C606
818606
838606
C70606
C7FFC6
C7FFC6
C00606
C00606
400604
60060C
60060C
200008
300018
ENDCHAR
STARTCHAR 2478
ENCODING 9336
SWIDTH 1000 0
DWIDTH 25 0
BBX 23 23 1 -2
BITMAP
300018
200008
60000C
61FF0C
41FF04
C1C006
C1C006
C1C006
C18006
C1BC06
81FF06
818706
C00386
C00386
C00386
C00386
C00386
C20386
438704
63FF0C
61FC0C
200008
300018
ENDCHAR
STARTCHAR 2479
ENCODING 9337
SWIDTH 1000 0
DWIDTH 25 0
BBX 23 23 1 -1
BITMAP
300018
200008
603E0C
607F8C
40F784
C1C106
C1C006
C38006
C38006
C38006
83BE06
837F06
83C386
C38386
C38186
C38186
C38186
C18386
41C784
60FF0C
607E0C
200008
300018
ENDCHAR
STARTCHAR 247A
ENCODING 9338
SWIDTH 1000 0
DWIDTH 25 0
BBX 23 23 1 -3
BITMAP
300018
200008
60000C
63FF8C
43FF84
C00306
C00706
C00E06
C00C06
C01C06
801C06
801806
803806
C03806
C03806
C03006
C07006
C07006
407004
60700C
60700C
200008
300018
ENDCHAR
STARTCHAR 247B
ENCODING 9339
SWIDTH 1000 0
DWIDTH 25 0
BBX 23 23 1 -1
BITMAP
300018
200008
607C0C
40FF0C
41C704
C38386
C38386
C38386
C18306
C1E706
80FE06
80FC06
C1DF06
C38786
C30386
C30186
C30186
C38386
43C784
61FF0C
607C0C
200008
300018
ENDCHAR
STARTCHAR 247C
ENCODING 9340
SWIDTH 1000 0
DWIDTH 25 0
BBX 23 23 1 -1
BITMAP
300018
200008
60780C
61FE0C
41CF04
C38706
C38386
C30386
C30386
C30386
838386
83C786
81FF86
C0FB86
C00386
C00386
C00306
C00706
418F04
63FE0C
61FC0C
200008
300018
ENDCHAR
STARTCHAR 247D
ENCODING 9341
SWIDTH 1000 0
DWIDTH 25 0
BBX 23 23 1 -1
BITMAP
300018
200008
60078C
638FCC
4F8CC4
CF9C66
C39866
C39866
C39866
C39866
839866
839866
839866
C39866
C39866
C39866
C39866
C39C66
438CC4
638FCC
63878C
200008
300018
ENDCHAR
STARTCHAR 247E
ENCODING 9342
SWIDTH 1000 0
DWIDTH 25 0
BBX 23 23 1 -3
BITMAP
300018
200018
60000C
61C18C
47CF84
C7CF86
C1C186
C1C186
C1C186
C1C186
81C186
81C186
81C186
C1C186
C1C186
C1C186
C1C186
C1C186
41C184
41C18C
61C18C
200008
300018
ENDCHAR
STARTCHAR 247F
ENCODING 9343
SWIDTH 1000 0
DWIDTH 25 0
BBX 23 23 1 -2
BITMAP
300018
200008
60070C
639FCC
4FB8C4
CF90C6
C380E6
C38066
C380E6
C380C6
8380C6
8381C6
838186
C38386
C38306
C38706
C38606
C38E06
439C04
639FEC
639FEC
200008
300018
ENDCHAR
STARTCHAR 2480
ENCODING 9344
SWIDTH 1000 0
DWIDTH 25 0
BBX 23 23 1 -1
BITMAP
300018
200008
600F8C
639FCC
4F98C4
CF80E6
C38066
C38066
C380E6
C380C6
8381C6
838786
838786
C380C6
C38066
C38066
C38066
C38066
4398E4
639FCC
638F8C
200008
300018
ENDCHAR
STARTCHAR 2481
ENCODING 9345
SWIDTH 1000 0
DWIDTH 25 0
BBX 23 23 1 -2
BITMAP
300018
200008
6001CC
6381CC
4F83C4
CF83C6
C382C6
C386C6
C386C6
C38CC6
838CC6
8398C6
8398C6
C3B0C6
C3BFF6
C3BFF6
C380C6
C380C6
4380C4
6380CC
6380CC
200008
300018
ENDCHAR
STARTCHAR 2482
ENCODING 9346
SWIDTH 1000 0
DWIDTH 25 0
BBX 23 23 1 -2
BITMAP
300018
200008
60000C
638FCC
4F9FC4
CF9806
C39806
C39806
C39806
C39B06
839FC6
8388C6
C380E6
C38066
C38066
C38066
C38066
C380E6
43B1C4
63BFCC
638F8C
200008
300018
ENDCHAR
STARTCHAR 2483
ENCODING 9347
SWIDTH 1000 0
DWIDTH 25 0
BBX 23 23 1 -1
BITMAP
300018
200008
60038C
6387EC
4F8C44
CF8C06
C39806
C39806
C39806
C39806
839B86
839FC6
839CE6
C39866
C39866
C39866
C39866
C39866
438CC4
638FCC
63878C
200008
300018
ENDCHAR
STARTCHAR 2484
ENCODING 9348
SWIDTH 1000 0
DWIDTH 25 0
BBX 23 23 1 -2
BITMAP
300018
200008
60000C
639FEC
4F9FE4
CF80C6
C381C6
C38186
C38186
C38306
838306
838306
838306
C38706
C38606
C38606
C38606
C38606
438604
63860C
63860C
200008
300018
ENDCHAR
STARTCHAR 2485
ENCODING 9349
SWIDTH 1000 0
DWIDTH 25 0
BBX 23 23 1 -2
BITMAP
300018
200008
60078C
638FCC
4F8CC4
CF9846
C39866
C39846
C38C46
C38CC6
838786
838786
838DC6
C398C6
C39866
C39866
C39866
C39866
439CE4
438FCC
63878C
200018
300018
ENDCHAR
STARTCHAR 2486
ENCODING 9350
SWIDTH 1000 0
DWIDTH 25 0
BBX 23 23 1 -1
BITMAP
300018
200008
60070C
638F8C
4F9CC4
CF98C6
C39866
C39866
C39866
C39866
839866
839CE6
838FE6
C38766
C38066
C38066
C38066
C380C6
4389C4
639F8C
638F0C
200008
300018
ENDCHAR
STARTCHAR 2487
ENCODING 9351
SWIDTH 1000 0
DWIDTH 25 0
BBX 23 23 1 -2
BITMAP
300018
200008
67838C
4FC7CC
4CC664
C06666
C06C66
C06C76
C06C76
C06C36
80CC36
80CC36
80CC36
C1CC36
C18C76
C38C76
C30C66
C70666
4E0664
6FE7CC
6FE3CC
200008
300018
ENDCHAR
STARTCHAR 2488
ENCODING 9352
SWIDTH 1000 0
DWIDTH 25 0
BBX 17 18 4 0
BITMAP
0E0000
7E0000
7E0000
0E0000
0E0000
0E0000
0E0000
0E0000
0E0000
0E0000
0E0000
0E0000
0E0000
0E0000
0E0380
0E0780
FFC780
FFC380
ENDCHAR
STARTCHAR 2489
ENCODING 9353
SWIDTH 1000 0
DWIDTH 25 0
BBX 19 18 3 0
BITMAP
1F0000
7F8000
F3C000
40E000
00E000
00E000
00E000
00C000
01C000
038000
038000
070000
0E0000
1C0000
3801C0
7001E0
FFF1E0
FFF1C0
ENDCHAR
STARTCHAR 248A
ENCODING 9354
SWIDTH 1000 0
DWIDTH 25 0
BBX 19 18 3 0
BITMAP
1F8000
7FC000
79E000
20E000
00E000
00E000
00E000
03C000
0F8000
0FC000
01E000
007000
007000
007000
40F1C0
F1E1E0
7FC1E0
1F81C0
ENDCHAR
STARTCHAR 248B
ENCODING 9355
SWIDTH 1000 0
DWIDTH 25 0
BBX 19 18 3 0
BITMAP
01C000
03C000
07C000
06C000
0EC000
1CC000
18C000
38C000
70C000
60C000
E0C000
FFF800
FFF800
00C000
00C0C0
00C1E0
00C1E0
00C0C0
ENDCHAR
STARTCHAR 248C
ENCODING 9356
SWIDTH 1000 0
DWIDTH 25 0
BBX 19 18 3 0
BITMAP
3FE000
3FE000
300000
300000
300000
700000
7F8000
7FE000
31E000
00F000
007000
007000
007000
007000
40E1C0
F3E1E0
7FC1E0
1F01C0
ENDCHAR
STARTCHAR 248D
ENCODING 9357
SWIDTH 1000 0
DWIDTH 25 0
BBX 19 18 3 0
BITMAP
0F8000
1FE000
3FE000
700000
700000
E00000
E00000
EF8000
FFE000
F0E000
E07000
E07000
E07000
607000
7061C0
39E1E0
3FC1E0
0F81C0
ENDCHAR
STARTCHAR 248E
ENCODING 9358
SWIDTH 1000 0
DWIDTH 25 0
BBX 16 18 4 0
BITMAP
FFF0
FFF0
00E0
00C0
01C0
0180
0380
0300
0700
0700
0600
0E00
0E00
0E00
0E07
0E07
0E07
0E07
ENDCHAR
STARTCHAR 248F
ENCODING 9359
SWIDTH 1000 0
DWIDTH 25 0
BBX 19 18 3 0
BITMAP
0F8000
3FC000
78E000
70E000
606000
706000
70E000
3CC000
1F8000
3FC000
71E000
E0F000
E07000
E07000
E070C0
70E1E0
3FE1E0
1F80C0
ENDCHAR
STARTCHAR 2490
ENCODING 9360
SWIDTH 1000 0
DWIDTH 25 0
BBX 19 18 3 0
BITMAP
1F0000
3FC000
79C000
60E000
E06000
E07000
E07000
E07000
71F000
7FF000
1E7000
007000
007000
00E000
00E0C0
73C1E0
7F81E0
1F00C0
ENDCHAR
STARTCHAR 2491
ENCODING 9361
SWIDTH 1000 0
DWIDTH 25 0
BBX 25 18 0 0
BITMAP
1C0F0000
FC1F8000
FC3FC000
1C30E000
1C70E000
1C706000
1C606000
1C606000
1C607000
1C607000
1C606000
1C606000
1C706000
1C70E000
1C30E700
1C3DC780
1C1F8780
1C0F0700
ENDCHAR
STARTCHAR 2492
ENCODING 9362
SWIDTH 1000 0
DWIDTH 25 0
BBX 23 18 1 0
BITMAP
1C0E00
FC7E00
FC7E00
1C0E00
1C0E00
1C0E00
1C0E00
1C0E00
1C0E00
1C0E00
1C0E00
1C0E00
1C0E00
1C0E00
1C0E1C
1C0E1E
1C0E1E
1C0E1C
ENDCHAR
STARTCHAR 2493
ENCODING 9363
SWIDTH 1000 0
DWIDTH 25 0
BBX 23 18 1 0
BITMAP
183E00
F87F00
F8F780
184380
180180
180180
180180
180380
180380
180700
180600
180E00
181C00
183800
18780E
18700E
18FFCE
18FFCE
ENDCHAR
STARTCHAR 2494
ENCODING 9364
SWIDTH 1000 0
DWIDTH 25 0
BBX 23 18 1 0
BITMAP
183E00
F87F00
F87780
180180
180180
180180
180380
180700
181E00
181F00
180380
1801C0
1801C0
1801C0
1841CE
18F78E
18FF8E
183E0E
ENDCHAR
STARTCHAR 2495
ENCODING 9365
SWIDTH 1000 0
DWIDTH 25 0
BBX 23 18 1 0
BITMAP
180780
F80780
F80F80
180F80
181B80
181B80
183380
183380
186380
18E380
18C380
18FFC0
18FFC0
180380
18038E
18038E
18038E
18038E
ENDCHAR
STARTCHAR 2496
ENCODING 9366
SWIDTH 1000 0
DWIDTH 25 0
BBX 23 18 1 0
BITMAP
387F80
F87F80
F87000
186000
186000
186000
187E00
187F80
186380
1801C0
1801C0
1801C0
1801C0
1801C0
18418E
18E78E
18FF0E
183E0E
ENDCHAR
STARTCHAR 2497
ENCODING 9367
SWIDTH 1000 0
DWIDTH 25 0
BBX 23 18 1 0
BITMAP
180F00
F83FC0
F83F80
187000
186000
186000
18E000
18EF00
18FF80
18F1C0
18E1C0
18E0C0
18E0C0
1860C0
1861CE
18738E
183F8E
181E0E
ENDCHAR
STARTCHAR 2498
ENCODING 9368
SWIDTH 1000 0
DWIDTH 25 0
BBX 23 18 1 0
BITMAP
1C7FE0
FC7FE0
FC00C0
1C01C0
1C0180
1C0380
1C0300
1C0700
1C0700
1C0600
1C0600
1C0E00
1C0E00
1C0E00
1C0E1C
1C0C1E
1C0C1E
1C0C1C
ENDCHAR
STARTCHAR 2499
ENCODING 9369
SWIDTH 1000 0
DWIDTH 25 0
BBX 24 18 1 0
BITMAP
181E00
F83F80
F87180
1861C0
1860C0
1860C0
187180
183980
181F00
183F80
1863C0
18E1C0
18C0C0
18C0C0
18E0CE
1871CF
187F8F
181F0E
ENDCHAR
STARTCHAR 249A
ENCODING 9370
SWIDTH 1000 0
DWIDTH 25 0
BBX 24 18 1 0
BITMAP
181E00
F83F00
F87380
1861C0
18E1C0
18E0C0
18E0C0
1861C0
1873C0
187EC0
183CC0
1800C0
1801C0
1801C0
18018E
18778F
187F0E
183E0E
ENDCHAR
STARTCHAR 249B
ENCODING 9371
SWIDTH 1000 0
DWIDTH 25 0
BBX 24 18 0 0
BITMAP
1E0380
7F0FC0
F78EE0
639C60
019C70
019C70
019870
039870
039870
071870
071870
0E1870
1E1C70
1C1C70
381C67
700EEF
7FCFC7
7FC387
ENDCHAR
STARTCHAR 249C
ENCODING 9372
SWIDTH 1000 0
DWIDTH 25 0
BBX 23 23 1 -2
BITMAP
300018
200008
60000C
60000C
407C04
C1FE06
C1EF06
C10706
C00386
C00386
803F86
80FF86
81C386
C38386
C38386
C38786
C3DF86
C1FF86
40F384
60000C
60000C
200008
300018
ENDCHAR
STARTCHAR 249D
ENCODING 9373
SWIDTH 1000 0
DWIDTH 25 0
BBX 23 23 1 -3
BITMAP
338018
238008
63800C
63800C
438004
C38006
C38006
C3BF06
C3FF86
C3E386
8381C6
8381C6
8381C6
C381C6
C381C6
C381C6
C381C6
C383C6
43C784
63FF0C
63BE0C
200008
300018
ENDCHAR
STARTCHAR 249E
ENCODING 9374
SWIDTH 1000 0
DWIDTH 25 0
BBX 23 23 1 -2
BITMAP
300018
200008
60000C
60000C
403E04
C0FF86
C1F706
C1C006
C3C006
C38006
838006
838006
838006
C38006
C3C006
C1C106
C1F786
C0FF86
403E04
60000C
60000C
200008
300018
ENDCHAR
STARTCHAR 249F
ENCODING 9375
SWIDTH 1000 0
DWIDTH 25 0
BBX 23 23 1 -3
BITMAP
300398
200388
60038C
60038C
400384
C00386
C00386
C0FB86
C1FF86
C3C786
878386
870386
870386
C70386
C70386
C70386
C70386
C78386
438784
63FF8C
61FB8C
200008
300018
ENDCHAR
STARTCHAR 24A0
ENCODING 9376
SWIDTH 1000 0
DWIDTH 25 0
BBX 23 23 1 -2
BITMAP
300018
200008
60000C
60000C
403C04
C0FF06
C1E706
C1C386
C38186
C38186
83FF86
83FF86
C38006
C38006
C38006
C1C006
C1F306
C0FF86
403E04
60000C
60000C
200008
300018
ENDCHAR
STARTCHAR 24A1
ENCODING 9377
SWIDTH 1000 0
DWIDTH 25 0
BBX 23 23 1 -2
BITMAP
301E18
207E08
607A0C
60700C
406004
C06006
C06006
C1FC06
C1FC06
C06006
806006
806006
806006
C06006
C06006
C06006
C06006
C06006
406004
60600C
60600C
200008
300018
ENDCHAR
STARTCHAR 24A2
ENCODING 9378
SWIDTH 1000 0
DWIDTH 25 0
BBX 23 23 1 -2
BITMAP
300018
200008
60780C
60FF8C
41C784
C18606
C38706
C38706
C18706
C1C706
80FE06
80FC06
818006
C18006
C1FF06
C0FF86
C18786
C38186
438384
63838C
61FF0C
20FC08
300018
ENDCHAR
STARTCHAR 24A3
ENCODING 9379
SWIDTH 1000 0
DWIDTH 25 0
BBX 23 23 1 -3
BITMAP
338018
238008
63800C
63800C
438004
C38006
C38006
C3BF06
C3FF86
C3E386
83C386
838386
838386
C38386
C38386
C38386
C38386
C38386
438384
63838C
63838C
200008
300018
ENDCHAR
STARTCHAR 24A4
ENCODING 9380
SWIDTH 1000 0
DWIDTH 25 0
BBX 23 23 1 -3
BITMAP
300018
203808
60380C
60380C
400004
C00006
C00006
C03806
C03806
C03806
803806
803806
803806
C03806
C03806
C03806
C03806
C03806
403804
60380C
60380C
200008
300018
ENDCHAR
STARTCHAR 24A5
ENCODING 9381
SWIDTH 1000 0
DWIDTH 25 0
BBX 23 26 1 -4
BITMAP
001800
303C18
203C18
60000C
60000C
400004
C01806
C01806
C01806
C01806
C01806
801806
801806
801806
C01806
C01806
C01806
C01806
C01806
401804
60180C
60180C
203808
303818
01F800
01F000
ENDCHAR
STARTCHAR 24A6
ENCODING 9382
SWIDTH 1000 0
DWIDTH 25 0
BBX 23 23 1 -2
BITMAP
300018
238018
63800C
63800C
438004
C38006
C38006
C38386
C38706
C38E06
839C06
839C06
83B806
C3FC06
C3FC06
C3CE06
C3CE06
C38706
438784
63838C
6383CC
300018
100010
ENDCHAR
STARTCHAR 24A7
ENCODING 9383
SWIDTH 1000 0
DWIDTH 25 0
BBX 23 23 1 -2
BITMAP
303818
203808
60380C
60380C
403804
C03806
C03806
C03806
C03806
C03806
803806
803806
803806
C03806
C03806
C03806
C03806
C03806
403804
603C0C
601C0C
200008
300018
ENDCHAR
STARTCHAR 24A8
ENCODING 9384
SWIDTH 1000 0
DWIDTH 25 0
BBX 23 23 1 -2
BITMAP
300018
200008
60000C
60000C
40E384
CDF7C6
CFFFE6
CE38E6
CE38E6
CE38E6
8E38E6
8E38E6
8E38E6
CE38E6
CE38E6
CE38E6
CE38E6
CE38E6
4E38E4
60000C
60000C
200008
300018
ENDCHAR
STARTCHAR 24A9
ENCODING 9385
SWIDTH 1000 0
DWIDTH 25 0
BBX 23 23 1 -2
BITMAP
300018
200008
60000C
60000C
401E04
C37F06
C3FF86
C3C386
C38386
C38386
838386
838386
838386
C38386
C38386
C38386
C38386
C38386
438384
60000C
60000C
200008
300018
ENDCHAR
STARTCHAR 24AA
ENCODING 9386
SWIDTH 1000 0
DWIDTH 25 0
BBX 23 23 1 -2
BITMAP
300018
200008
60000C
60000C
407C04
C1FF06
C1EF06
C38386
C38386
C701C6
8701C6
8701C6
8701C6
C701C6
C38386
C38386
C1EF06
C1FF06
407C04
60000C
60000C
200008
300018
ENDCHAR
STARTCHAR 24AB
ENCODING 9387
SWIDTH 1000 0
DWIDTH 25 0
BBX 23 23 1 -2
BITMAP
300018
200008
601E0C
43FF8C
43FF84
C3C3C6
C381C6
C381C6
C381C6
C381C6
8381C6
8381C6
8381C6
C38386
C3FF86
C3FF06
C3BE06
C38006
438004
63800C
63800C
238008
300018
ENDCHAR
STARTCHAR 24AC
ENCODING 9388
SWIDTH 1000 0
DWIDTH 25 0
BBX 23 23 1 -2
BITMAP
300018
200008
60F80C
41FF8C
43FF84
C78386
C70386
C70386
C70386
C70386
870386
870386
870386
C78786
C3FF86
C1FF86
C0F386
C00386
400384
60038C
60038C
200388
300018
ENDCHAR
STARTCHAR 24AD
ENCODING 9389
SWIDTH 1000 0
DWIDTH 25 0
BBX 23 23 1 -2
BITMAP
300018
200008
60000C
60000C
400704
C0CF06
C0FF06
C0F006
C0E006
C0E006
80E006
80E006
80E006
C0E006
C0E006
C0E006
C0E006
C0E006
40E004
60000C
60000C
200008
300018
ENDCHAR
STARTCHAR 24AE
ENCODING 9390
SWIDTH 1000 0
DWIDTH 25 0
BBX 23 23 1 -2
BITMAP
300018
200008
60000C
60000C
407C04
C0FF06
C1E706
C1C006
C1C006
C1E006
80F806
807E06
801F06
C00706
C00386
C10386
C1C706
C1FF06
407C04
60000C
60000C
200008
300018
ENDCHAR
STARTCHAR 24AF
ENCODING 9391
SWIDTH 1000 0
DWIDTH 25 0
BBX 23 23 1 -2
BITMAP
300018
200008
60300C
60700C
407004
C07006
C1FF06
C1FF06
C07006
C07006
807006
807006
807006
C07006
C07006
C07006
C07006
C07806
403F04
603F0C
60000C
200008
300018
ENDCHAR
STARTCHAR 24B0
ENCODING 9392
SWIDTH 1000 0
DWIDTH 25 0
BBX 23 23 1 -2
BITMAP
300018
200008
60000C
60000C
438004
C38386
C38386
C38386
C38386
C38386
838386
838386
838386
C38386
C38386
C38786
C3FF86
C1FF86
40F184
60000C
60000C
200008
300018
ENDCHAR
STARTCHAR 24B1
ENCODING 9393
SWIDTH 1000 0
DWIDTH 25 0
BBX 23 23 1 -3
BITMAP
300018
200008
60000C
60000C
400004
C701C6
C38186
C38386
C38386
C18306
81C706
81C706
80C606
C0EE06
C0EE06
C06C06
C06C06
C07C06
403804
40000C
60000C
200008
300018
ENDCHAR
STARTCHAR 24B2
ENCODING 9394
SWIDTH 1000 0
DWIDTH 25 0
BBX 23 23 1 -2
BITMAP
300018
200008
60000C
60000C
400004
DC3876
DC3876
CC3C66
CE6C66
CE6C66
8E6CE6
8E6CE6
866EC6
C6C6C6
C7C6C6
C7C7C6
C3C7C6
C3C786
400004
60000C
60000C
200008
300018
ENDCHAR
STARTCHAR 24B3
ENCODING 9395
SWIDTH 1000 0
DWIDTH 25 0
BBX 23 23 1 -2
BITMAP
300018
200018
60000C
60000C
400004
C38386
C1C706
C1C706
C0EE06
C07E06
807C06
803806
807C06
C0EE06
C0CE06
C1C706
C38706
C38386
400004
60000C
60000C
300018
100010
ENDCHAR
STARTCHAR 24B4
ENCODING 9396
SWIDTH 1000 0
DWIDTH 25 0
BBX 23 23 1 -3
BITMAP
300018
200008
60000C
6701CC
438184
C38386
C38386
C1C306
C1C706
C0C706
80E606
80E606
806E06
C07C06
C07C06
C03C06
C03806
C03806
403804
60F00C
63F00C
23C008
300018
ENDCHAR
STARTCHAR 24B5
ENCODING 9397
SWIDTH 1000 0
DWIDTH 25 0
BBX 23 23 1 -3
BITMAP
300018
200008
60000C
60000C
400004
C1FF86
C1FF86
C00706
C00E06
C01E06
801C06
803806
807806
C07006
C0E006
C0E006
C1C006
C3FF86
43FF84
40000C
60000C
200008
300018
ENDCHAR
STARTCHAR 24B6
ENCODING 9398
SWIDTH 1000 0
DWIDTH 25 0
BBX 23 25 1 -3
BITMAP
007C00
038180
040040
080020
100010
200008
403804
407804
806C04
806C02
80EC02
80CE02
80C602
81C702
81FF02
81FF02
838382
438384
430384
200008
300018
180030
040040
030180
00FE00
ENDCHAR
STARTCHAR 24B7
ENCODING 9399
SWIDTH 1000 0
DWIDTH 25 0
BBX 23 25 1 -3
BITMAP
007C00
038180
040040
080020
100010
200008
41FC04
41FF04
818304
818302
818302
81FE02
81FF02
818382
818382
818382
818382
41FF04
41FE04
200008
100010
080020
040040
030180
00FE00
ENDCHAR
STARTCHAR 24B8
ENCODING 9400
SWIDTH 1000 0
DWIDTH 25 0
BBX 23 25 1 -3
BITMAP
007C00
038380
040040
180030
300010
203C08
40FF04
41E204
838002
838002
830002
830002
830002
830002
838002
838002
81C304
40FF04
407E04
200008
100010
080020
040040
030380
00FC00
ENDCHAR
STARTCHAR 24B9
ENCODING 9401
SWIDTH 1000 0
DWIDTH 25 0
BBX 23 25 1 -3
BITMAP
007C00
038180
040040
080020
100010
200008
41FC04
41FF04
81C784
81C382
81C1C2
81C1C2
81C1C2
81C1C2
81C1C2
81C382
81C782
41FF04
41FC04
200008
100010
080020
040040
030180
00FE00
ENDCHAR
STARTCHAR 24BA
ENCODING 9402
SWIDTH 1000 0
DWIDTH 25 0
BBX 23 25 1 -3
BITMAP
007C00
038180
040040
080020
100010
200008
41FF04
41FF04
81C004
81C002
81C002
81FE02
81FE02
81C002
81C002
81C002
81C002
41FF04
41FF04
200008
100010
080020
040040
030180
00FE00
ENDCHAR
STARTCHAR 24BB
ENCODING 9403
SWIDTH 1000 0
DWIDTH 25 0
BBX 23 25 1 -3
BITMAP
007C00
038180
040040
080020
100010
200008
41FF04
41FF04
81C004
81C002
81C002
81C002
81FE02
81FE02
81C002
81C002
81C002
41C004
41C004
200008
300018
180030
0C0040
030180
00FE00
ENDCHAR
STARTCHAR 24BC
ENCODING 9404
SWIDTH 1000 0
DWIDTH 25 0
BBX 23 25 1 -3
BITMAP
007C00
038380
040040
180020
100010
203E08
40FF04
41E304
838002
838002
830002
830002
830F82
830F82
830382
838382
81C382
41FF84
407E04
200008
100010
080020
040040
030380
00FC00
ENDCHAR
STARTCHAR 24BD
ENCODING 9405
SWIDTH 1000 0
DWIDTH 25 0
BBX 23 25 1 -3
BITMAP
007C00
038380
040040
180020
100010
200008
438384
438384
838382
838382
838382
83FF82
83FF82
838382
838382
838382
838382
438384
438384
200008
100010
180020
040040
030180
00FE00
ENDCHAR
STARTCHAR 24BE
ENCODING 9406
SWIDTH 1000 0
DWIDTH 25 0
BBX 23 25 1 -3
BITMAP
007C00
038380
040040
180020
100010
203808
403804
403804
803802
803802
803802
803802
803802
803802
803802
803802
803802
403804
403804
200008
100010
180020
040040
030180
00FE00
ENDCHAR
STARTCHAR 24BF
ENCODING 9407
SWIDTH 1000 0
DWIDTH 25 0
BBX 23 25 1 -3
BITMAP
007C00
038380
040040
180020
100010
200E08
400E04
400E04
800E02
800E02
800E02
800E02
800E02
800E02
800E02
800E02
818E04
41FC04
40F804
200008
100010
080020
040040
030380
00FC00
ENDCHAR
STARTCHAR 24C0
ENCODING 9408
SWIDTH 1000 0
DWIDTH 25 0
BBX 23 25 1 -3
BITMAP
007C00
038380
040040
180020
100010
218388
418704
418E04
818E02
819C02
81B802
81F802
81FC02
81EC02
81CE02
818602
818702
418384
418384
200008
100010
180020
040040
030180
00FE00
ENDCHAR
STARTCHAR 24C1
ENCODING 9409
SWIDTH 1000 0
DWIDTH 25 0
BBX 23 25 1 -3
BITMAP
007C00
038380
040040
180020
100010
20C008
40C004
40C004
80C002
80C002
80C002
80C002
80C002
80C002
80C002
80C002
80C002
40FF04
40FF04
200008
100010
180020
040040
030180
00FE00
ENDCHAR
STARTCHAR 24C2
ENCODING 9410
SWIDTH 1000 0
DWIDTH 25 0
BBX 23 25 1 -3
BITMAP
007C00
038180
040040
080020
100010
200008
4701C4
4783C4
8783C4
86C7C2
87C7C2
87C7C2
876DC2
876DC2
8729C2
8739C2
8739C2
4711C4
4701C4
200008
100010
180030
040040
030180
00FE00
ENDCHAR
STARTCHAR 24C3
ENCODING 9411
SWIDTH 1000 0
DWIDTH 25 0
BBX 23 25 1 -3
BITMAP
007C00
038180
040040
080020
100010
200008
438384
43C384
83C384
836382
837382
83B382
83BB82
839B82
839F82
838D82
838782
438784
438384
200008
100010
180020
040040
030180
00FE00
ENDCHAR
STARTCHAR 24C4
ENCODING 9412
SWIDTH 1000 0
DWIDTH 25 0
BBX 23 25 1 -3
BITMAP
007C00
038380
040040
180030
300010
207C08
41FF04
43C704
838382
830182
8701C2
8701C2
8701C2
8701C2
830182
838382
83C784
41FF04
40FC04
200008
100010
080020
040040
030380
00FC00
ENDCHAR
STARTCHAR 24C5
ENCODING 9413
SWIDTH 1000 0
DWIDTH 25 0
BBX 23 25 1 -3
BITMAP
007C00
038180
040040
080020
100010
200008
41FE04
41FF04
818382
818382
818382
818382
81FF02
81FE02
818002
818002
818002
418004
418004
200008
100010
080020
040040
030180
00FE00
ENDCHAR
STARTCHAR 24C6
ENCODING 9414
SWIDTH 1000 0
DWIDTH 25 0
BBX 23 25 1 -3
BITMAP
007C00
038380
040040
180030
300010
207C08
41FF04
43C704
838382
870182
870182
8701C2
870182
870182
830382
838782
81FF02
40FC04
403804
201C08
101F90
1807F0
040040
030180
00FE00
ENDCHAR
STARTCHAR 24C7
ENCODING 9415
SWIDTH 1000 0
DWIDTH 25 0
BBX 23 25 1 -3
BITMAP
007C00
038180
040040
080020
100010
200008
41FE04
41FF04
81C384
81C382
81C382
81C382
81FF02
81FE02
81CE02
81C602
81C702
41C304
41C384
200008
100010
180030
040040
030180
00FE00
ENDCHAR
STARTCHAR 24C8
ENCODING 9416
SWIDTH 1000 0
DWIDTH 25 0
BBX 23 25 1 -3
BITMAP
007C00
038380
040040
180030
300010
207C08
40FF04
41C304
81C002
81C002
81F002
80FC02
803F02
800702
800302
810302
818704
41FF04
407C04
200008
100010
080020
040040
030380
00FC00
ENDCHAR
STARTCHAR 24C9
ENCODING 9417
SWIDTH 1000 0
DWIDTH 25 0
BBX 23 25 1 -3
BITMAP
007C00
038180
040040
080020
100010
200008
43FF84
43FF84
803804
803802
803802
803802
803802
803802
803802
803802
803802
403804
403804
200008
100010
180030
040040
030180
00FE00
ENDCHAR
STARTCHAR 24CA
ENCODING 9418
SWIDTH 1000 0
DWIDTH 25 0
BBX 23 25 1 -3
BITMAP
007C00
038380
040040
180020
100010
238388
438384
438384
838382
838382
838382
838382
838382
838382
838382
838382
81C704
41FF04
407C04
200008
100010
080020
040040
030380
00FC00
ENDCHAR
STARTCHAR 24CB
ENCODING 9419
SWIDTH 1000 0
DWIDTH 25 0
BBX 23 25 1 -3
BITMAP
007C00
038380
040040
180020
100010
230188
438384
438384
818302
81C302
81C702
80C602
80C602
80EE02
80EC02
806C02
806C02
407804
403804
200008
100010
080020
040040
030180
00FE00
ENDCHAR
STARTCHAR 24CC
ENCODING 9420
SWIDTH 1000 0
DWIDTH 25 0
BBX 23 25 1 -3
BITMAP
007C00
038380
040040
080020
100010
200008
4C3864
4C3864
8E3862
8E2CE2
8E6CC2
866CC2
866CC2
866CC2
87C6C2
87C7C2
83C782
43C784
438384
200008
100010
080020
040040
030180
00FE00
ENDCHAR
STARTCHAR 24CD
ENCODING 9421
SWIDTH 1000 0
DWIDTH 25 0
BBX 23 25 1 -3
BITMAP
007C00
038380
040040
180020
100010
238388
41C304
41C704
80E602
80EE02
807C02
803802
803802
807C02
806C02
80EE02
81C602
41C704
438384
200008
100010
180020
040040
030180
00FE00
ENDCHAR
STARTCHAR 24CE
ENCODING 9422
SWIDTH 1000 0
DWIDTH 25 0
BBX 23 25 1 -3
BITMAP
007C00
038380
040040
180020
100010
238388
438304
41C704
81C702
80CE02
80EE02
806C02
807C02
803802
803802
803802
803802
403804
403804
200008
100010
180020
040040
030180
00FE00
ENDCHAR
STARTCHAR 24CF
ENCODING 9423
SWIDTH 1000 0
DWIDTH 25 0
BBX 23 25 1 -3
BITMAP
007C00
038180
040040
080020
100010
200008
41FF04
41FF04
800704
800E02
801C02
801C02
803802
807002
806002
80E002
81C002
41FF04
41FF04
200008
100010
180020
040040
030180
00FE00
ENDCHAR
STARTCHAR 24D0
ENCODING 9424
SWIDTH 1000 0
DWIDTH 25 0
BBX 23 25 1 -3
BITMAP
007C00
038180
040040
080020
100010
200008
400004
400004
807C04
80FE02
800602
800602
807E02
80E602
80C602
80C602
80FE02
406004
400004
200008
100010
180030
040040
030180
00FE00
ENDCHAR
STARTCHAR 24D1
ENCODING 9425
SWIDTH 1000 0
DWIDTH 25 0
BBX 23 25 1 -3
BITMAP
007C00
038380
040040
080020
100010
20C008
40C004
40C004
80C002
80DE02
80FF02
80E302
80C302
80C302
80C302
80C302
80E702
40FE04
40DC04
200008
100010
080020
040040
030180
00FE00
ENDCHAR
STARTCHAR 24D2
ENCODING 9426
SWIDTH 1000 0
DWIDTH 25 0
BBX 23 25 1 -3
BITMAP
007C00
038180
040040
080020
100010
200008
400004
400004
803C04
807C02
80C002
80C002
81C002
81C002
80C002
80E002
807E02
401804
400004
200008
100010
180030
040040
030180
00FE00
ENDCHAR
STARTCHAR 24D3
ENCODING 9427
SWIDTH 1000 0
DWIDTH 25 0
BBX 23 25 1 -3
BITMAP
007C00
038380
040040
080020
100010
200608
400604
400604
800602
807E02
80FE02
81C602
818602
818602
818602
818602
81C602
40FE04
403204
200008
100010
080020
040040
030180
00FE00
ENDCHAR
STARTCHAR 24D4
ENCODING 9428
SWIDTH 1000 0
DWIDTH 25 0
BBX 23 25 1 -3
BITMAP
007C00
038180
040040
080020
100010
200008
400004
400004
803C02
80FE02
80C602
80C302
81FF02
80C002
80C002
80E202
807E02
401C04
400004
200008
100010
180020
040040
030180
00FE00
ENDCHAR
STARTCHAR 24D5
ENCODING 9429
SWIDTH 1000 0
DWIDTH 25 0
BBX 23 25 1 -3
BITMAP
007C00
038380
040040
180030
300C10
203C08
403004
403004
803002
807C02
807C02
803002
803002
803002
803002
803002
803002
403004
403004
200008
100010
080020
040040
030180
00FE00
ENDCHAR
STARTCHAR 24D6
ENCODING 9430
SWIDTH 1000 0
DWIDTH 25 0
BBX 23 25 1 -3
BITMAP
007C00
038380
040040
180020
100010
200008
403F04
40FF04
80C602
80C602
80C602
80EC02
807802
80C002
80FC02
807F02
808302
418304
40EE04
207C08
100010
080020
040040
030180
00FE00
ENDCHAR
STARTCHAR 24D7
ENCODING 9431
SWIDTH 1000 0
DWIDTH 25 0
BBX 23 25 1 -3
BITMAP
007C00
038380
040040
080020
100010
20C008
40C004
40C004
80C006
80DE02
80FE02
80E702
80C302
80C302
80C302
80C302
80C302
40C304
40C304
200008
100010
180030
040040
030180
00FE00
ENDCHAR
STARTCHAR 24D8
ENCODING 9432
SWIDTH 1000 0
DWIDTH 25 0
BBX 23 25 1 -3
BITMAP
007C00
038380
040040
180020
100010
203808
403804
400004
800002
803802
803802
803802
803802
803802
803802
803802
803802
403804
403804
200008
100010
180020
040040
030180
00FE00
ENDCHAR
STARTCHAR 24D9
ENCODING 9433
SWIDTH 1000 0
DWIDTH 25 0
BBX 23 25 1 -3
BITMAP
007C00
038380
040040
080020
101810
203808
400004
400004
801806
801802
801802
801802
801802
801802
801802
801802
801802
401804
401804
203808
107010
18E030
040040
030180
00FE00
ENDCHAR
STARTCHAR 24DA
ENCODING 9434
SWIDTH 1000 0
DWIDTH 25 0
BBX 23 25 1 -3
BITMAP
007C00
038380
040040
180020
100010
20C008
40C004
40C004
80C002
80C702
80C602
80CC02
80D802
80F802
80FC02
80EC02
80C602
40C704
40C304
200008
100010
180020
040040
030180
00FE00
ENDCHAR
STARTCHAR 24DB
ENCODING 9435
SWIDTH 1000 0
DWIDTH 25 0
BBX 23 25 1 -3
BITMAP
007C00
038380
040040
180020
100010
203008
403004
403004
803002
803002
803002
803002
803002
803002
803002
803002
803002
403804
401804
200008
100010
080020
040040
030180
00FE00
ENDCHAR
STARTCHAR 24DC
ENCODING 9436
SWIDTH 1000 0
DWIDTH 25 0
BBX 23 25 1 -3
BITMAP
007C00
038180
040040
080020
100010
200008
400004
400004
86E384
87FFC2
8738C2
8638C2
8638C2
8638C2
8638C2
8638C2
8638C2
4638C4
400004
200008
100010
180030
040040
030180
00FE00
ENDCHAR
STARTCHAR 24DD
ENCODING 9437
SWIDTH 1000 0
DWIDTH 25 0
BBX 23 25 1 -3
BITMAP
007C00
038180
040040
080020
100010
200008
400004
400004
809C04
80FE02
80C602
80C602
80C602
80C602
80C602
80C602
80C602
40C604
400004
200008
100010
180030
040040
030180
00FE00
ENDCHAR
STARTCHAR 24DE
ENCODING 9438
SWIDTH 1000 0
DWIDTH 25 0
BBX 23 25 1 -3
BITMAP
007C00
038180
040040
080020
100010
200008
400004
400004
807C04
80FE02
80C602
818702
818302
818302
81C702
80C602
80FE02
403804
400004
200008
100010
180030
040040
030180
00FE00
ENDCHAR
STARTCHAR 24DF
ENCODING 9439
SWIDTH 1000 0
DWIDTH 25 0
BBX 23 25 1 -3
BITMAP
007C00
038380
040040
080020
100010
200008
40DC04
40FE04
80E702
80C302
80C302
80C302
80C302
80C702
80FE02
80DC02
80C002
40C004
40C004
20C008
100010
080020
040040
030180
00FE00
ENDCHAR
STARTCHAR 24E0
ENCODING 9440
SWIDTH 1000 0
DWIDTH 25 0
BBX 23 25 1 -3
BITMAP
007C00
038380
040040
080020
100010
200008
403204
40FE04
80C602
81C602
818602
818602
818602
81C602
80FE02
807E02
800602
400604
400604
200608
100010
080020
040040
030180
00FE00
ENDCHAR
STARTCHAR 24E1
ENCODING 9441
SWIDTH 1000 0
DWIDTH 25 0
BBX 23 25 1 -3
BITMAP
007C00
038180
040040
080020
100010
200008
400004
400004
806E04
807E02
807002
806002
806002
806002
806002
806002
806002
406004
400004
200008
100010
180030
040040
030180
00FE00
ENDCHAR
STARTCHAR 24E2
ENCODING 9442
SWIDTH 1000 0
DWIDTH 25 0
BBX 23 25 1 -3
BITMAP
007C00
038380
040040
180030
100010
200008
400004
401004
807E02
80E402
80E002
807002
803C02
800E02
800602
804602
80FC02
401004
400004
200008
100010
180020
040040
030180
00FE00
ENDCHAR
STARTCHAR 24E3
ENCODING 9443
SWIDTH 1000 0
DWIDTH 25 0
BBX 23 25 1 -3
BITMAP
007C00
038380
040040
180020
100010
200008
403004
403004
80FC02
80FC02
803002
803002
803002
803002
803002
803002
803C02
401C04
400004
200008
100010
080020
040040
030180
00FE00
ENDCHAR
STARTCHAR 24E4
ENCODING 9444
SWIDTH 1000 0
DWIDTH 25 0
BBX 23 25 1 -3
BITMAP
007C00
038380
040040
080020
100010
200008
400004
400004
80C606
80C602
80C602
80C602
80C602
80C602
80C602
80CE02
80FE02
407204
400004
200008
100010
180030
040040
030180
00FE00
ENDCHAR
STARTCHAR 24E5
ENCODING 9445
SWIDTH 1000 0
DWIDTH 25 0
BBX 23 25 1 -3
BITMAP
007C00
038380
040040
080020
100010
200008
400004
400004
818304
80C602
80C602
80C602
806402
806C02
806C02
802802
803802
403804
400004
200008
100018
180030
040040
030180
00FE00
ENDCHAR
STARTCHAR 24E6
ENCODING 9446
SWIDTH 1000 0
DWIDTH 25 0
BBX 23 25 1 -3
BITMAP
007C00
038380
040040
080020
100010
200008
400004
400004
8638C2
8638C2
832982
832982
836D82
836D82
81E502
81C702
81C704
400004
400004
200008
100010
080020
040040
030380
00FC00
ENDCHAR
STARTCHAR 24E7
ENCODING 9447
SWIDTH 1000 0
DWIDTH 25 0
BBX 23 25 1 -3
BITMAP
007C00
038380
040040
180020
100010
200008
400004
400004
80C602
80EE02
806C02
803802
803802
803802
806C02
80CE02
80C602
400004
400004
200008
100010
180020
040040
030180
00FE00
ENDCHAR
STARTCHAR 24E8
ENCODING 9448
SWIDTH 1000 0
DWIDTH 25 0
BBX 23 25 1 -3
BITMAP
007C00
038380
040040
180020
100010
200008
41C304
40C304
80C602
806602
806602
806402
803C02
803C02
803802
801802
801802
403004
40F004
20C008
100010
080020
040040
030180
00FE00
ENDCHAR
STARTCHAR 24E9
ENCODING 9449
SWIDTH 1000 0
DWIDTH 25 0
BBX 23 25 1 -3
BITMAP
007C00
038380
040040
080020
100010
200008
400004
400004
80FE02
80FE02
800C02
801802
803802
803002
806002
80FE02
80FE04
400004
400004
200008
100010
080020
040040
030380
00FC00
ENDCHAR
STARTCHAR 24EA
ENCODING 9450
SWIDTH 1000 0
DWIDTH 25 0
BBX 23 25 1 -3
BITMAP
007C00
038380
040040
180030
300010
207C08
40FE04
41C704
818702
818302
838382
838382
838382
838382
818302
818702
81C704
40FE04
407C04
200008
100010
080020
040040
030380
00FC00
ENDCHAR
STARTCHAR 24EB
ENCODING 9451
SWIDTH 1000 0
DWIDTH 25 0
BBX 23 24 1 -2
BITMAP
00FE00
03FF80
0FFFE0
1FFFF0
3FFFF8
3E3C78
78307C
78307C
FE3C7E
FE3C7E
FE3C7E
FE3C7E
FE3C7E
FE3C7E
FE3C7E
FE3C7E
7E3C7C
7E3C7C
7E3C7C
3FFFF8
1FFFF0
0FFFE0
07FFC0
01FF00
ENDCHAR
STARTCHAR 24EC
ENCODING 9452
SWIDTH 1000 0
DWIDTH 25 0
BBX 23 24 1 -2
BITMAP
007C00
03FF80
07FFC0
1FFFF0
1FFFF0
3CF0F8
70E07C
70E63C
FCFF3E
FCFF3E
FCFF3E
FCFE3E
FCFE7E
FCFCFE
FCF8FE
FCF1FE
FCF3FC
7CE03C
7CE03C
3FFFF8
1FFFF0
0FFFE0
07FFC0
01FF00
ENDCHAR
STARTCHAR 24ED
ENCODING 9453
SWIDTH 1000 0
DWIDTH 25 0
BBX 23 25 1 -3
BITMAP
007C00
03FF80
07FFC0
1FFFE0
1FFFF0
3CF8F8
70E07C
70E63C
FCFF3E
FCFF3E
FCFE3E
FCF87E
FCF87E
FCFE3E
FCFF3E
FCFF1E
FCEF3E
7CE03C
7CE07C
3FF0F8
3FFFF8
1FFFF0
0FFFE0
03FF80
00FE00
ENDCHAR
STARTCHAR 24EE
ENCODING 9454
SWIDTH 1000 0
DWIDTH 25 0
BBX 23 24 1 -2
BITMAP
00FE00
03FF80
0FFFE0
1FFFF0
3FFFF8
3CFC78
70FC7C
70F87C
FCF87E
FCF27E
FCF27E
FCE67E
FCE67E
FCC01E
FCC01E
FCFE7E
7CFE7C
7CFE7C
7CFE7C
3FFFF8
1FFFF0
0FFFE0
07FFC0
01FF00
ENDCHAR
STARTCHAR 24EF
ENCODING 9455
SWIDTH 1000 0
DWIDTH 25 0
BBX 23 25 1 -3
BITMAP
00FE00
03FF80
0FFFE0
1FFFF0
3FFFF8
3CF038
70F03C
70F03C
F0F3FE
FCF3FE
FCF3FE
FCE07E
FCF63E
FCFF1E
FCFF1E
FCFF1E
FCE73E
7CE03C
7CE07C
3FF8F8
3FFFF8
1FFFF0
0FFFE0
03FF80
00FE00
ENDCHAR
STARTCHAR 24F0
ENCODING 9456
SWIDTH 1000 0
DWIDTH 25 0
BBX 23 25 1 -3
BITMAP
007C00
03FF80
07FFC0
0FFFE0
1FFFF0
3CFC78
78F83C
70F03C
F0E3BC
FCE7FE
FCE7FE
FCE47E
FCE03E
FCE33E
FCE71E
FCE79E
FCE71E
7CE33C
7CF03C
3FF878
3FFFF8
1FFFF0
0FFFE0
03FF80
00FE00
ENDCHAR
STARTCHAR 24F1
ENCODING 9457
SWIDTH 1000 0
DWIDTH 25 0
BBX 23 24 1 -2
BITMAP
00FE00
03FF80
0FFFE0
1FFFF0
3FFFF8
3CE018
70E01C
70FF3C
FCFF3E
FCFE7E
FCFE7E
FCFCFE
FCFCFE
FCFCFE
FCFCFE
FCF8FE
7CF8FC
7CF8FC
7CF9FC
3FFFF8
1FFFF0
0FFFE0
07FFC0
01FF00
ENDCHAR
STARTCHAR 24F2
ENCODING 9458
SWIDTH 1000 0
DWIDTH 25 0
BBX 23 25 1 -3
BITMAP
007C00
03FF80
07FFC0
1FFFE0
1FFFF0
3CF878
70F03C
70F33C
FCF39E
FCE3BE
FCF33E
FCF03E
FCF87E
FCF23E
FCE71E
FCE79E
FCE79E
7CE31C
7CF03C
3FF878
3FFFF8
1FFFF0
0FFFE0
03FF80
00FE00
ENDCHAR
STARTCHAR 24F3
ENCODING 9459
SWIDTH 1000 0
DWIDTH 25 0
BBX 23 25 1 -3
BITMAP
007C00
03FF80
07FFC0
1FFFE0
1FFFF0
3CF8F8
70F07C
70E23C
FCE73E
FCE79E
FCE79E
FCE31E
FCF01E
FCF89E
FCFF9E
FCFF1E
FCF73E
7CE03C
7CE07C
3FF8F8
3FFFF8
1FFFF0
0FFFE0
03FF80
00FE00
ENDCHAR
STARTCHAR 24F4
ENCODING 9460
SWIDTH 1000 0
DWIDTH 25 0
BBX 23 24 1 -2
BITMAP
007C00
03FF80
07FFC0
1FFFF0
1FFFF0
3C7C38
70381C
73199C
FF918E
FF938E
FF93CE
FF13CE
FF33CE
FE33CE
FC73CE
FCF38E
F9F19C
70191C
70181C
3FFC78
1FFFF0
0FFFE0
07FFC0
01FF00
ENDCHAR
STARTCHAR 24F5
ENCODING 9461
SWIDTH 1000 0
DWIDTH 25 0
BBX 23 25 1 -3
BITMAP
003000
01CF00
0638C0
09C720
120090
2C0048
503828
50F814
A0F814
A0180A
A0180A
C0180A
C0180A
C0180A
C0180A
A0180A
A0180A
901814
501824
280028
2400D0
1B0320
04D440
030180
00D600
ENDCHAR
STARTCHAR 24F6
ENCODING 9462
SWIDTH 1000 0
DWIDTH 25 0
BBX 23 25 1 -3
BITMAP
003000
01CF00
0638C0
19C520
2600D0
287C28
51FE24
91C714
A0070A
A0070A
C0070A
C0060A
C00E0A
C01C0A
C0380A
A0700A
A0E012
91FF94
51FFA4
280028
2400D0
1B0320
04D440
030180
00D600
ENDCHAR
STARTCHAR 24F7
ENCODING 9463
SWIDTH 1000 0
DWIDTH 25 0
BBX 23 25 1 -3
BITMAP
003000
01CF00
0638C0
19C520
2600D0
287C28
51FE24
90C714
A0070A
A0070A
C0060A
C03C0A
C03E0A
C0070A
C0030A
A0030A
A18714
51FF14
507C24
280048
160090
098320
045440
030180
00D600
ENDCHAR
STARTCHAR 24F8
ENCODING 9464
SWIDTH 1000 0
DWIDTH 25 0
BBX 23 25 1 -3
BITMAP
003000
01CF00
0638C0
09C720
160090
280068
501C24
903C14
A07C14
A06C0A
C0CC0A
C1CC0A
C18C0A
C30C0A
C3FF0A
A3FF0A
A00C0A
900C14
500C24
280028
2400D0
1B0320
04D440
030180
00D600
ENDCHAR
STARTCHAR 24F9
ENCODING 9465
SWIDTH 1000 0
DWIDTH 25 0
BBX 23 25 1 -3
BITMAP
003000
01CF00
0638C0
09C720
120090
2C0048
50FF24
90FF14
A0C01A
A0C00A
C0DC0A
C0FE0A
C0C70A
C0030A
A0030A
A0030A
A18714
51FE14
507C2C
280048
160090
098320
045440
030180
00D600
ENDCHAR
STARTCHAR 24FA
ENCODING 9466
SWIDTH 1000 0
DWIDTH 25 0
BBX 23 25 1 -3
BITMAP
003000
01CF00
0638C0
19C520
2600D0
283C28
50FF24
91E614
A1C00A
A1800A
C3800A
C3BC0A
C3FE0A
C3870A
C3830A
A1830A
A1C712
90FE14
507C24
280048
160090
098320
045440
030180
00D600
ENDCHAR
STARTCHAR 24FB
ENCODING 9467
SWIDTH 1000 0
DWIDTH 25 0
BBX 23 25 1 -3
BITMAP
003000
01CF00
0638C0
09C720
120090
2C0048
51FF24
51FF14
A00614
A00E0A
C00C0A
C0180A
C0180A
C0380A
C0380A
A0300A
A0300A
903014
507024
280028
2400D0
1B0320
04D440
030180
00D600
ENDCHAR
STARTCHAR 24FC
ENCODING 9468
SWIDTH 1000 0
DWIDTH 25 0
BBX 23 25 1 -3
BITMAP
003000
01CF00
0638C0
09C720
360090
283868
50FE24
91C714
A18314
A1C30A
C0C60A
C0FE0A
C07C0A
C0DE0A
C1870A
A1830A
A1830A
A1C714
50FE14
487C28
240050
1303A0
0CD440
010180
00D600
ENDCHAR
STARTCHAR 24FD
ENCODING 9469
SWIDTH 1000 0
DWIDTH 25 0
BBX 23 25 1 -3
BITMAP
003000
01CF00
0638C0
19C720
2600D0
287C28
50FE24
91C714
A1C30A
A1830A
C1838A
C1C78A
C0FF8A
C07B8A
C0030A
A0030A
A08714
51FE14
507C24
280048
160090
098320
045440
030180
00D600
ENDCHAR
STARTCHAR 24FE
ENCODING 9470
SWIDTH 1000 0
DWIDTH 25 0
BBX 23 25 1 -3
BITMAP
003000
01CF00
0638C0
19C520
2600D0
480728
518F94
B79DD4
A798CA
A198CA
C198EA
C198EA
C198EA
C198EA
A198EA
A198CA
A19DD4
518F94
51872C
280048
160090
098320
045440
030180
00D600
ENDCHAR
STARTCHAR 24FF
ENCODING 9471
SWIDTH 1000 0
DWIDTH 25 0
BBX 23 25 1 -3
BITMAP
007C00
03FF80
07FFC0
1FFFE0
1FFFF0
3F83F8
7F01FC
7E30FC
FE38FE
FE7CFE
FC7CFE
FC7C7E
FC7C7E
FC7C7E
FC7CFE
FE7CFE
FE38FE
7E11FC
7F01FC
3F87F8
3FFFF8
1FFFF0
0FFFE0
03FF80
00FE00
ENDCHAR
STARTCHAR 2500
ENCODING 9472
SWIDTH 1000 0
DWIDTH 25 0
BBX 25 1 0 9
BITMAP
FFFFFF80
ENDCHAR
STARTCHAR 2501
ENCODING 9473
SWIDTH 1000 0
DWIDTH 25 0
BBX 25 3 0 8
BITMAP
FFFFFF80
FFFFFF80
FFFFFF80
ENDCHAR
STARTCHAR 2502
ENCODING 9474
SWIDTH 1000 0
DWIDTH 25 0
BBX 1 25 12 -3
BITMAP
80
80
80
80
80
80
80
80
80
80
80
80
80
80
80
80
80
80
80
80
80
80
80
80
80
ENDCHAR
STARTCHAR 2503
ENCODING 9475
SWIDTH 1000 0
DWIDTH 25 0
BBX 3 25 11 -3
BITMAP
E0
E0
E0
E0
E0
E0
E0
E0
E0
E0
E0
E0
E0
E0
E0
E0
E0
E0
E0
E0
E0
E0
E0
E0
E0
ENDCHAR
STARTCHAR 2504
ENCODING 9476
SWIDTH 1000 0
DWIDTH 25 0
BBX 23 1 1 9
BITMAP
FC7C7E
ENDCHAR
STARTCHAR 2505
ENCODING 9477
SWIDTH 1000 0
DWIDTH 25 0
BBX 23 3 1 8
BITMAP
FC7C7E
FC7C7E
FC7C7E
ENDCHAR
STARTCHAR 2506
ENCODING 9478
SWIDTH 1000 0
DWIDTH 25 0
BBX 1 23 12 -2
BITMAP
80
80
80
80
80
80
00
00
80
80
80
80
80
80
00
00
00
80
80
80
80
80
80
ENDCHAR
STARTCHAR 2507
ENCODING 9479
SWIDTH 1000 0
DWIDTH 25 0
BBX 3 23 11 -2
BITMAP
E0
E0
E0
E0
E0
E0
00
00
E0
E0
E0
E0
E0
E0
00
00
00
E0
E0
E0
E0
E0
E0
ENDCHAR
STARTCHAR 2508
ENCODING 9480
SWIDTH 1000 0
DWIDTH 25 0
BBX 23 1 1 9
BITMAP
F3EF9E
ENDCHAR
STARTCHAR 2509
ENCODING 9481
SWIDTH 1000 0
DWIDTH 25 0
BBX 23 3 1 8
BITMAP
F3EF9E
F3EF9E
F3EF9E
ENDCHAR
STARTCHAR 250A
ENCODING 9482
SWIDTH 1000 0
DWIDTH 25 0
BBX 1 25 12 -3
BITMAP
80
80
80
80
80
00
00
80
80
80
80
80
00
80
80
80
80
80
00
00
80
80
80
80
80
ENDCHAR
STARTCHAR 250B
ENCODING 9483
SWIDTH 1000 0
DWIDTH 25 0
BBX 3 25 11 -3
BITMAP
E0
E0
E0
E0
E0
00
00
E0
E0
E0
E0
E0
00
E0
E0
E0
E0
E0
00
00
E0
E0
E0
E0
E0
ENDCHAR
STARTCHAR 250C
ENCODING 9484
SWIDTH 1000 0
DWIDTH 25 0
BBX 13 14 12 -4
BITMAP
FFF8
8000
8000
8000
8000
8000
8000
8000
8000
8000
8000
8000
8000
8000
ENDCHAR
STARTCHAR 250D
ENCODING 9485
SWIDTH 1000 0
DWIDTH 25 0
BBX 13 15 12 -4
BITMAP
FFF8
FFF8
FFF8
8000
8000
8000
8000
8000
8000
8000
8000
8000
8000
8000
8000
ENDCHAR
STARTCHAR 250E
ENCODING 9486
SWIDTH 1000 0
DWIDTH 25 0
BBX 14 14 11 -4
BITMAP
FFFC
E000
E000
E000
E000
E000
E000
E000
E000
E000
E000
E000
E000
E000
ENDCHAR
STARTCHAR 250F
ENCODING 9487
SWIDTH 1000 0
DWIDTH 25 0
BBX 14 15 11 -4
BITMAP
FFFC
FFFC
FFFC
E000
E000
E000
E000
E000
E000
E000
E000
E000
E000
E000
E000
ENDCHAR
STARTCHAR 2510
ENCODING 9488
SWIDTH 1000 0
DWIDTH 25 0
BBX 13 14 0 -4
BITMAP
FFF8
0008
0008
0008
0008
0008
0008
0008
0008
0008
0008
0008
0008
0008
ENDCHAR
STARTCHAR 2511
ENCODING 9489
SWIDTH 1000 0
DWIDTH 25 0
BBX 13 15 0 -4
BITMAP
FFF8
FFF8
FFF8
0008
0008
0008
0008
0008
0008
0008
0008
0008
0008
0008
0008
ENDCHAR
STARTCHAR 2512
ENCODING 9490
SWIDTH 1000 0
DWIDTH 25 0
BBX 14 14 0 -4
BITMAP
FFFC
001C
001C
001C
001C
001C
001C
001C
001C
001C
001C
001C
001C
001C
ENDCHAR
STARTCHAR 2513
ENCODING 9491
SWIDTH 1000 0
DWIDTH 25 0
BBX 14 15 0 -4
BITMAP
FFFC
FFFC
FFFC
001C
001C
001C
001C
001C
001C
001C
001C
001C
001C
001C
001C
ENDCHAR
STARTCHAR 2514
ENCODING 9492
SWIDTH 1000 0
DWIDTH 25 0
BBX 13 14 12 9
BITMAP
8000
8000
8000
8000
8000
8000
8000
8000
8000
8000
8000
8000
8000
FFF8
ENDCHAR
STARTCHAR 2515
ENCODING 9493
SWIDTH 1000 0
DWIDTH 25 0
BBX 13 15 12 8
BITMAP
8000
8000
8000
8000
8000
8000
8000
8000
8000
8000
8000
8000
FFF8
FFF8
FFF8
ENDCHAR
STARTCHAR 2516
ENCODING 9494
SWIDTH 1000 0
DWIDTH 25 0
BBX 14 14 11 9
BITMAP
E000
E000
E000
E000
E000
E000
E000
E000
E000
E000
E000
E000
E000
FFFC
ENDCHAR
STARTCHAR 2517
ENCODING 9495
SWIDTH 1000 0
DWIDTH 25 0
BBX 14 15 11 8
BITMAP
E000
E000
E000
E000
E000
E000
E000
E000
E000
E000
E000
E000
FFFC
FFFC
FFFC
ENDCHAR
STARTCHAR 2518
ENCODING 9496
SWIDTH 1000 0
DWIDTH 25 0
BBX 13 14 0 9
BITMAP
0008
0008
0008
0008
0008
0008
0008
0008
0008
0008
0008
0008
0008
FFF8
ENDCHAR
STARTCHAR 2519
ENCODING 9497
SWIDTH 1000 0
DWIDTH 25 0
BBX 13 15 0 8
BITMAP
0008
0008
0008
0008
0008
0008
0008
0008
0008
0008
0008
0008
FFF8
FFF8
FFF8
ENDCHAR
STARTCHAR 251A
ENCODING 9498
SWIDTH 1000 0
DWIDTH 25 0
BBX 14 14 0 9
BITMAP
001C
001C
001C
001C
001C
001C
001C
001C
001C
001C
001C
001C
001C
FFFC
ENDCHAR
STARTCHAR 251B
ENCODING 9499
SWIDTH 1000 0
DWIDTH 25 0
BBX 14 15 0 8
BITMAP
001C
001C
001C
001C
001C
001C
001C
001C
001C
001C
001C
001C
FFFC
FFFC
FFFC
ENDCHAR
STARTCHAR 251C
ENCODING 9500
SWIDTH 1000 0
DWIDTH 25 0
BBX 13 27 12 -4
BITMAP
8000
8000
8000
8000
8000
8000
8000
8000
8000
8000
8000
8000
8000
FFF8
8000
8000
8000
8000
8000
8000
8000
8000
8000
8000
8000
8000
8000
ENDCHAR
STARTCHAR 251D
ENCODING 9501
SWIDTH 1000 0
DWIDTH 25 0
BBX 13 27 12 -4
BITMAP
8000
8000
8000
8000
8000
8000
8000
8000
8000
8000
8000
8000
FFF8
FFF8
FFF8
8000
8000
8000
8000
8000
8000
8000
8000
8000
8000
8000
8000
ENDCHAR
STARTCHAR 251E
ENCODING 9502
SWIDTH 1000 0
DWIDTH 25 0
BBX 14 27 11 -4
BITMAP
E000
E000
E000
E000
E000
E000
E000
E000
E000
E000
E000
E000
E000
FFFC
4000
4000
4000
4000
4000
4000
4000
4000
4000
4000
4000
4000
4000
ENDCHAR
STARTCHAR 251F
ENCODING 9503
SWIDTH 1000 0
DWIDTH 25 0
BBX 14 27 11 -4
BITMAP
4000
4000
4000
4000
4000
4000
4000
4000
4000
4000
4000
4000
4000
FFFC
E000
E000
E000
E000
E000
E000
E000
E000
E000
E000
E000
E000
E000
ENDCHAR
STARTCHAR 2520
ENCODING 9504
SWIDTH 1000 0
DWIDTH 25 0
BBX 14 27 11 -4
BITMAP
E000
E000
E000
E000
E000
E000
E000
E000
E000
E000
E000
E000
E000
FFFC
E000
E000
E000
E000
E000
E000
E000
E000
E000
E000
E000
E000
E000
ENDCHAR
STARTCHAR 2521
ENCODING 9505
SWIDTH 1000 0
DWIDTH 25 0
BBX 14 27 11 -4
BITMAP
E000
E000
E000
E000
E000
E000
E000
E000
E000
E000
E000
E000
FFFC
FFFC
FFFC
4000
4000
4000
4000
4000
4000
4000
4000
4000
4000
4000
4000
ENDCHAR
STARTCHAR 2522
ENCODING 9506
SWIDTH 1000 0
DWIDTH 25 0
BBX 14 27 11 -4
BITMAP
4000
4000
4000
4000
4000
4000
4000
4000
4000
4000
4000
4000
FFFC
FFFC
FFFC
E000
E000
E000
E000
E000
E000
E000
E000
E000
E000
E000
E000
ENDCHAR
STARTCHAR 2523
ENCODING 9507
SWIDTH 1000 0
DWIDTH 25 0
BBX 14 27 11 -4
BITMAP
E000
E000
E000
E000
E000
E000
E000
E000
E000
E000
E000
E000
FFFC
FFFC
FFFC
E000
E000
E000
E000
E000
E000
E000
E000
E000
E000
E000
E000
ENDCHAR
STARTCHAR 2524
ENCODING 9508
SWIDTH 1000 0
DWIDTH 25 0
BBX 13 27 0 -4
BITMAP
0008
0008
0008
0008
0008
0008
0008
0008
0008
0008
0008
0008
0008
FFF8
0008
0008
0008
0008
0008
0008
0008
0008
0008
0008
0008
0008
0008
ENDCHAR
STARTCHAR 2525
ENCODING 9509
SWIDTH 1000 0
DWIDTH 25 0
BBX 13 27 0 -4
BITMAP
0008
0008
0008
0008
0008
0008
0008
0008
0008
0008
0008
0008
FFF8
FFF8
FFF8
0008
0008
0008
0008
0008
0008
0008
0008
0008
0008
0008
0008
ENDCHAR
STARTCHAR 2526
ENCODING 9510
SWIDTH 1000 0
DWIDTH 25 0
BBX 14 27 0 -4
BITMAP
001C
001C
001C
001C
001C
001C
001C
001C
001C
001C
001C
001C
001C
FFFC
0008
0008
0008
0008
0008
0008
0008
0008
0008
0008
0008
0008
0008
ENDCHAR
STARTCHAR 2527
ENCODING 9511
SWIDTH 1000 0
DWIDTH 25 0
BBX 14 27 0 -4
BITMAP
0008
0008
0008
0008
0008
0008
0008
0008
0008
0008
0008
0008
0008
FFFC
001C
001C
001C
001C
001C
001C
001C
001C
001C
001C
001C
001C
001C
ENDCHAR
STARTCHAR 2528
ENCODING 9512
SWIDTH 1000 0
DWIDTH 25 0
BBX 14 27 0 -4
BITMAP
001C
001C
001C
001C
001C
001C
001C
001C
001C
001C
001C
001C
001C
FFFC
001C
001C
001C
001C
001C
001C
001C
001C
001C
001C
001C
001C
001C
ENDCHAR
STARTCHAR 2529
ENCODING 9513
SWIDTH 1000 0
DWIDTH 25 0
BBX 14 27 0 -4
BITMAP
001C
001C
001C
001C
001C
001C
001C
001C
001C
001C
001C
001C
FFFC
FFFC
FFFC
0008
0008
0008
0008
0008
0008
0008
0008
0008
0008
0008
0008
ENDCHAR
STARTCHAR 252A
ENCODING 9514
SWIDTH 1000 0
DWIDTH 25 0
BBX 14 27 0 -4
BITMAP
0008
0008
0008
0008
0008
0008
0008
0008
0008
0008
0008
0008
FFFC
FFFC
FFFC
001C
001C
001C
001C
001C
001C
001C
001C
001C
001C
001C
001C
ENDCHAR
STARTCHAR 252B
ENCODING 9515
SWIDTH 1000 0
DWIDTH 25 0
BBX 14 27 0 -4
BITMAP
001C
001C
001C
001C
001C
001C
001C
001C
001C
001C
001C
001C
FFFC
FFFC
FFFC
001C
001C
001C
001C
001C
001C
001C
001C
001C
001C
001C
001C
ENDCHAR
STARTCHAR 252C
ENCODING 9516
SWIDTH 1000 0
DWIDTH 25 0
BBX 25 14 0 -4
BITMAP
FFFFFF80
00080000
00080000
00080000
00080000
00080000
00080000
00080000
00080000
00080000
00080000
00080000
00080000
00080000
ENDCHAR
STARTCHAR 252D
ENCODING 9517
SWIDTH 1000 0
DWIDTH 25 0
BBX 25 15 0 -4
BITMAP
FFF80000
FFFFFF80
FFF80000
00080000
00080000
00080000
00080000
00080000
00080000
00080000
00080000
00080000
00080000
00080000
00080000
ENDCHAR
STARTCHAR 252E
ENCODING 9518
SWIDTH 1000 0
DWIDTH 25 0
BBX 25 15 0 -4
BITMAP
000FFF80
FFFFFF80
000FFF80
00080000
00080000
00080000
00080000
00080000
00080000
00080000
00080000
00080000
00080000
00080000
00080000
ENDCHAR
STARTCHAR 252F
ENCODING 9519
SWIDTH 1000 0
DWIDTH 25 0
BBX 25 15 0 -4
BITMAP
FFFFFF80
FFFFFF80
FFFFFF80
00080000
00080000
00080000
00080000
00080000
00080000
00080000
00080000
00080000
00080000
00080000
00080000
ENDCHAR
STARTCHAR 2530
ENCODING 9520
SWIDTH 1000 0
DWIDTH 25 0
BBX 25 14 0 -4
BITMAP
FFFFFF80
001C0000
001C0000
001C0000
001C0000
001C0000
001C0000
001C0000
001C0000
001C0000
001C0000
001C0000
001C0000
001C0000
ENDCHAR
STARTCHAR 2531
ENCODING 9521
SWIDTH 1000 0
DWIDTH 25 0
BBX 25 15 0 -4
BITMAP
FFFC0000
FFFFFF80
FFFC0000
001C0000
001C0000
001C0000
001C0000
001C0000
001C0000
001C0000
001C0000
001C0000
001C0000
001C0000
001C0000
ENDCHAR
STARTCHAR 2532
ENCODING 9522
SWIDTH 1000 0
DWIDTH 25 0
BBX 25 15 0 -4
BITMAP
001FFF80
FFFFFF80
001FFF80
001C0000
001C0000
001C0000
001C0000
001C0000
001C0000
001C0000
001C0000
001C0000
001C0000
001C0000
001C0000
ENDCHAR
STARTCHAR 2533
ENCODING 9523
SWIDTH 1000 0
DWIDTH 25 0
BBX 25 15 0 -4
BITMAP
FFFFFF80
FFFFFF80
FFFFFF80
001C0000
001C0000
001C0000
001C0000
001C0000
001C0000
001C0000
001C0000
001C0000
001C0000
001C0000
001C0000
ENDCHAR
STARTCHAR 2534
ENCODING 9524
SWIDTH 1000 0
DWIDTH 25 0
BBX 25 14 0 9
BITMAP
00080000
00080000
00080000
00080000
00080000
00080000
00080000
00080000
00080000
00080000
00080000
00080000
00080000
FFFFFF80
ENDCHAR
STARTCHAR 2535
ENCODING 9525
SWIDTH 1000 0
DWIDTH 25 0
BBX 25 15 0 8
BITMAP
00080000
00080000
00080000
00080000
00080000
00080000
00080000
00080000
00080000
00080000
00080000
00080000
FFF80000
FFFFFF80
FFF80000
ENDCHAR
STARTCHAR 2536
ENCODING 9526
SWIDTH 1000 0
DWIDTH 25 0
BBX 25 15 0 8
BITMAP
00080000
00080000
00080000
00080000
00080000
00080000
00080000
00080000
00080000
00080000
00080000
00080000
000FFF80
FFFFFF80
000FFF80
ENDCHAR
STARTCHAR 2537
ENCODING 9527
SWIDTH 1000 0
DWIDTH 25 0
BBX 25 15 0 8
BITMAP
00080000
00080000
00080000
00080000
00080000
00080000
00080000
00080000
00080000
00080000
00080000
00080000
FFFFFF80
FFFFFF80
FFFFFF80
ENDCHAR
STARTCHAR 2538
ENCODING 9528
SWIDTH 1000 0
DWIDTH 25 0
BBX 25 14 0 9
BITMAP
001C0000
001C0000
001C0000
001C0000
001C0000
001C0000
001C0000
001C0000
001C0000
001C0000
001C0000
001C0000
001C0000
FFFFFF80
ENDCHAR
STARTCHAR 2539
ENCODING 9529
SWIDTH 1000 0
DWIDTH 25 0
BBX 25 15 0 8
BITMAP
001C0000
001C0000
001C0000
001C0000
001C0000
001C0000
001C0000
001C0000
001C0000
001C0000
001C0000
001C0000
FFFC0000
FFFFFF80
FFFC0000
ENDCHAR
STARTCHAR 253A
ENCODING 9530
SWIDTH 1000 0
DWIDTH 25 0
BBX 25 15 0 8
BITMAP
001C0000
001C0000
001C0000
001C0000
001C0000
001C0000
001C0000
001C0000
001C0000
001C0000
001C0000
001C0000
001FFF80
FFFFFF80
001FFF80
ENDCHAR
STARTCHAR 253B
ENCODING 9531
SWIDTH 1000 0
DWIDTH 25 0
BBX 25 15 0 8
BITMAP
001C0000
001C0000
001C0000
001C0000
001C0000
001C0000
001C0000
001C0000
001C0000
001C0000
001C0000
001C0000
FFFFFF80
FFFFFF80
FFFFFF80
ENDCHAR
STARTCHAR 253C
ENCODING 9532
SWIDTH 1000 0
DWIDTH 25 0
BBX 25 27 0 -4
BITMAP
00080000
00080000
00080000
00080000
00080000
00080000
00080000
00080000
00080000
00080000
00080000
00080000
00080000
FFFFFF80
00080000
00080000
00080000
00080000
00080000
00080000
00080000
00080000
00080000
00080000
00080000
00080000
00080000
ENDCHAR
STARTCHAR 253D
ENCODING 9533
SWIDTH 1000 0
DWIDTH 25 0
BBX 25 27 0 -4
BITMAP
00080000
00080000
00080000
00080000
00080000
00080000
00080000
00080000
00080000
00080000
00080000
00080000
FFF80000
FFFFFF80
FFF80000
00080000
00080000
00080000
00080000
00080000
00080000
00080000
00080000
00080000
00080000
00080000
00080000
ENDCHAR
STARTCHAR 253E
ENCODING 9534
SWIDTH 1000 0
DWIDTH 25 0
BBX 25 27 0 -4
BITMAP
00080000
00080000
00080000
00080000
00080000
00080000
00080000
00080000
00080000
00080000
00080000
00080000
000FFF80
FFFFFF80
000FFF80
00080000
00080000
00080000
00080000
00080000
00080000
00080000
00080000
00080000
00080000
00080000
00080000
ENDCHAR
STARTCHAR 253F
ENCODING 9535
SWIDTH 1000 0
DWIDTH 25 0
BBX 25 27 0 -4
BITMAP
00080000
00080000
00080000
00080000
00080000
00080000
00080000
00080000
00080000
00080000
00080000
00080000
FFFFFF80
FFFFFF80
FFFFFF80
00080000
00080000
00080000
00080000
00080000
00080000
00080000
00080000
00080000
00080000
00080000
00080000
ENDCHAR
STARTCHAR 2540
ENCODING 9536
SWIDTH 1000 0
DWIDTH 25 0
BBX 25 27 0 -4
BITMAP
001C0000
001C0000
001C0000
001C0000
001C0000
001C0000
001C0000
001C0000
001C0000
001C0000
001C0000
001C0000
001C0000
FFFFFF80
00080000
00080000
00080000
00080000
00080000
00080000
00080000
00080000
00080000
00080000
00080000
00080000
00080000
ENDCHAR
STARTCHAR 2541
ENCODING 9537
SWIDTH 1000 0
DWIDTH 25 0
BBX 25 27 0 -4
BITMAP
00080000
00080000
00080000
00080000
00080000
00080000
00080000
00080000
00080000
00080000
00080000
00080000
00080000
FFFFFF80
001C0000
001C0000
001C0000
001C0000
001C0000
001C0000
001C0000
001C0000
001C0000
001C0000
001C0000
001C0000
001C0000
ENDCHAR
STARTCHAR 2542
ENCODING 9538
SWIDTH 1000 0
DWIDTH 25 0
BBX 25 27 0 -4
BITMAP
001C0000
001C0000
001C0000
001C0000
001C0000
001C0000
001C0000
001C0000
001C0000
001C0000
001C0000
001C0000
001C0000
FFFFFF80
001C0000
001C0000
001C0000
001C0000
001C0000
001C0000
001C0000
001C0000
001C0000
001C0000
001C0000
001C0000
001C0000
ENDCHAR
STARTCHAR 2543
ENCODING 9539
SWIDTH 1000 0
DWIDTH 25 0
BBX 25 27 0 -4
BITMAP
001C0000
001C0000
001C0000
001C0000
001C0000
001C0000
001C0000
001C0000
001C0000
001C0000
001C0000
001C0000
FFFC0000
FFFFFF80
FFFC0000
00080000
00080000
00080000
00080000
00080000
00080000
00080000
00080000
00080000
00080000
00080000
00080000
ENDCHAR
STARTCHAR 2544
ENCODING 9540
SWIDTH 1000 0
DWIDTH 25 0
BBX 25 27 0 -4
BITMAP
001C0000
001C0000
001C0000
001C0000
001C0000
001C0000
001C0000
001C0000
001C0000
001C0000
001C0000
001C0000
001FFF80
FFFFFF80
001FFF80
00080000
00080000
00080000
00080000
00080000
00080000
00080000
00080000
00080000
00080000
00080000
00080000
ENDCHAR
STARTCHAR 2545
ENCODING 9541
SWIDTH 1000 0
DWIDTH 25 0
BBX 25 27 0 -4
BITMAP
00080000
00080000
00080000
00080000
00080000
00080000
00080000
00080000
00080000
00080000
00080000
00080000
FFFC0000
FFFFFF80
FFFC0000
001C0000
001C0000
001C0000
001C0000
001C0000
001C0000
001C0000
001C0000
001C0000
001C0000
001C0000
001C0000
ENDCHAR
STARTCHAR 2546
ENCODING 9542
SWIDTH 1000 0
DWIDTH 25 0
BBX 25 27 0 -4
BITMAP
00080000
00080000
00080000
00080000
00080000
00080000
00080000
00080000
00080000
00080000
00080000
00080000
001FFF80
FFFFFF80
001FFF80
001C0000
001C0000
001C0000
001C0000
001C0000
001C0000
001C0000
001C0000
001C0000
001C0000
001C0000
001C0000
ENDCHAR
STARTCHAR 2547
ENCODING 9543
SWIDTH 1000 0
DWIDTH 25 0
BBX 25 27 0 -4
BITMAP
001C0000
001C0000
001C0000
001C0000
001C0000
001C0000
001C0000
001C0000
001C0000
001C0000
001C0000
001C0000
FFFFFF80
FFFFFF80
FFFFFF80
00080000
00080000
00080000
00080000
00080000
00080000
00080000
00080000
00080000
00080000
00080000
00080000
ENDCHAR
STARTCHAR 2548
ENCODING 9544
SWIDTH 1000 0
DWIDTH 25 0
BBX 25 27 0 -4
BITMAP
00080000
00080000
00080000
00080000
00080000
00080000
00080000
00080000
00080000
00080000
00080000
00080000
FFFFFF80
FFFFFF80
FFFFFF80
001C0000
001C0000
001C0000
001C0000
001C0000
001C0000
001C0000
001C0000
001C0000
001C0000
001C0000
001C0000
ENDCHAR
STARTCHAR 2549
ENCODING 9545
SWIDTH 1000 0
DWIDTH 25 0
BBX 25 27 0 -4
BITMAP
001C0000
001C0000
001C0000
001C0000
001C0000
001C0000
001C0000
001C0000
001C0000
001C0000
001C0000
001C0000
FFFC0000
FFFFFF80
FFFC0000
001C0000
001C0000
001C0000
001C0000
001C0000
001C0000
001C0000
001C0000
001C0000
001C0000
001C0000
001C0000
ENDCHAR
STARTCHAR 254A
ENCODING 9546
SWIDTH 1000 0
DWIDTH 25 0
BBX 25 27 0 -4
BITMAP
001C0000
001C0000
001C0000
001C0000
001C0000
001C0000
001C0000
001C0000
001C0000
001C0000
001C0000
001C0000
001FFF80
FFFFFF80
001FFF80
001C0000
001C0000
001C0000
001C0000
001C0000
001C0000
001C0000
001C0000
001C0000
001C0000
001C0000
001C0000
ENDCHAR
STARTCHAR 254B
ENCODING 9547
SWIDTH 1000 0
DWIDTH 25 0
BBX 25 27 0 -4
BITMAP
001C0000
001C0000
001C0000
001C0000
001C0000
001C0000
001C0000
001C0000
001C0000
001C0000
001C0000
001C0000
FFFFFF80
FFFFFF80
FFFFFF80
001C0000
001C0000
001C0000
001C0000
001C0000
001C0000
001C0000
001C0000
001C0000
001C0000
001C0000
001C0000
ENDCHAR
STARTCHAR 254C
ENCODING 9548
SWIDTH 1000 0
DWIDTH 25 0
BBX 19 1 3 9
BITMAP
FC07E0
ENDCHAR
STARTCHAR 254D
ENCODING 9549
SWIDTH 1000 0
DWIDTH 25 0
BBX 19 3 3 8
BITMAP
FC07E0
FC07E0
FC07E0
ENDCHAR
STARTCHAR 254E
ENCODING 9550
SWIDTH 1000 0
DWIDTH 25 0
BBX 1 19 12 0
BITMAP
80
80
80
80
80
80
00
00
00
00
00
00
80
80
80
80
80
80
80
ENDCHAR
STARTCHAR 254F
ENCODING 9551
SWIDTH 1000 0
DWIDTH 25 0
BBX 3 19 11 0
BITMAP
E0
E0
E0
E0
E0
E0
00
00
00
00
00
00
00
E0
E0
E0
E0
E0
E0
ENDCHAR
STARTCHAR 2550
ENCODING 9552
SWIDTH 1000 0
DWIDTH 25 0
BBX 25 3 0 8
BITMAP
FFFFFF80
00000000
FFFFFF80
ENDCHAR
STARTCHAR 2551
ENCODING 9553
SWIDTH 1000 0
DWIDTH 25 0
BBX 3 25 11 -3
BITMAP
A0
A0
A0
A0
A0
A0
A0
A0
A0
A0
A0
A0
A0
A0
A0
A0
A0
A0
A0
A0
A0
A0
A0
A0
A0
ENDCHAR
STARTCHAR 2552
ENCODING 9554
SWIDTH 1000 0
DWIDTH 25 0
BBX 13 15 12 -4
BITMAP
FFF8
8000
FFF8
8000
8000
8000
8000
8000
8000
8000
8000
8000
8000
8000
8000
ENDCHAR
STARTCHAR 2553
ENCODING 9555
SWIDTH 1000 0
DWIDTH 25 0
BBX 14 14 11 -4
BITMAP
FFFC
A000
A000
A000
A000
A000
A000
A000
A000
A000
A000
A000
A000
A000
ENDCHAR
STARTCHAR 2554
ENCODING 9556
SWIDTH 1000 0
DWIDTH 25 0
BBX 14 15 11 -4
BITMAP
FFFC
8000
BFFC
A000
A000
A000
A000
A000
A000
A000
A000
A000
A000
A000
A000
ENDCHAR
STARTCHAR 2555
ENCODING 9557
SWIDTH 1000 0
DWIDTH 25 0
BBX 13 15 0 -4
BITMAP
FFF8
0008
FFF8
0008
0008
0008
0008
0008
0008
0008
0008
0008
0008
0008
0008
ENDCHAR
STARTCHAR 2556
ENCODING 9558
SWIDTH 1000 0
DWIDTH 25 0
BBX 14 14 0 -4
BITMAP
FFFC
0014
0014
0014
0014
0014
0014
0014
0014
0014
0014
0014
0014
0014
ENDCHAR
STARTCHAR 2557
ENCODING 9559
SWIDTH 1000 0
DWIDTH 25 0
BBX 14 15 0 -4
BITMAP
FFFC
0004
FFF4
0014
0014
0014
0014
0014
0014
0014
0014
0014
0014
0014
0014
ENDCHAR
STARTCHAR 2558
ENCODING 9560
SWIDTH 1000 0
DWIDTH 25 0
BBX 13 15 12 8
BITMAP
8000
8000
8000
8000
8000
8000
8000
8000
8000
8000
8000
8000
FFF8
8000
FFF8
ENDCHAR
STARTCHAR 2559
ENCODING 9561
SWIDTH 1000 0
DWIDTH 25 0
BBX 14 14 11 9
BITMAP
A000
A000
A000
A000
A000
A000
A000
A000
A000
A000
A000
A000
A000
FFFC
ENDCHAR
STARTCHAR 255A
ENCODING 9562
SWIDTH 1000 0
DWIDTH 25 0
BBX 14 15 11 8
BITMAP
A000
A000
A000
A000
A000
A000
A000
A000
A000
A000
A000
A000
BFFC
8000
FFFC
ENDCHAR
STARTCHAR 255B
ENCODING 9563
SWIDTH 1000 0
DWIDTH 25 0
BBX 13 15 0 8
BITMAP
0008
0008
0008
0008
0008
0008
0008
0008
0008
0008
0008
0008
FFF8
0008
FFF8
ENDCHAR
STARTCHAR 255C
ENCODING 9564
SWIDTH 1000 0
DWIDTH 25 0
BBX 14 14 0 9
BITMAP
0014
0014
0014
0014
0014
0014
0014
0014
0014
0014
0014
0014
0014
FFFC
ENDCHAR
STARTCHAR 255D
ENCODING 9565
SWIDTH 1000 0
DWIDTH 25 0
BBX 14 15 0 8
BITMAP
0014
0014
0014
0014
0014
0014
0014
0014
0014
0014
0014
0014
FFF4
0004
FFFC
ENDCHAR
STARTCHAR 255E
ENCODING 9566
SWIDTH 1000 0
DWIDTH 25 0
BBX 13 27 12 -4
BITMAP
8000
8000
8000
8000
8000
8000
8000
8000
8000
8000
8000
8000
FFF8
8000
FFF8
8000
8000
8000
8000
8000
8000
8000
8000
8000
8000
8000
8000
ENDCHAR
STARTCHAR 255F
ENCODING 9567
SWIDTH 1000 0
DWIDTH 25 0
BBX 14 27 11 -4
BITMAP
A000
A000
A000
A000
A000
A000
A000
A000
A000
A000
A000
A000
A000
BFFC
A000
A000
A000
A000
A000
A000
A000
A000
A000
A000
A000
A000
A000
ENDCHAR
STARTCHAR 2560
ENCODING 9568
SWIDTH 1000 0
DWIDTH 25 0
BBX 14 27 11 -4
BITMAP
A000
A000
A000
A000
A000
A000
A000
A000
A000
A000
A000
A000
BFFC
8000
BFFC
A000
A000
A000
A000
A000
A000
A000
A000
A000
A000
A000
A000
ENDCHAR
STARTCHAR 2561
ENCODING 9569
SWIDTH 1000 0
DWIDTH 25 0
BBX 13 27 0 -4
BITMAP
0008
0008
0008
0008
0008
0008
0008
0008
0008
0008
0008
0008
FFF8
0008
FFF8
0008
0008
0008
0008
0008
0008
0008
0008
0008
0008
0008
0008
ENDCHAR
STARTCHAR 2562
ENCODING 9570
SWIDTH 1000 0
DWIDTH 25 0
BBX 14 27 0 -4
BITMAP
0014
0014
0014
0014
0014
0014
0014
0014
0014
0014
0014
0014
0014
FFF4
0014
0014
0014
0014
0014
0014
0014
0014
0014
0014
0014
0014
0014
ENDCHAR
STARTCHAR 2563
ENCODING 9571
SWIDTH 1000 0
DWIDTH 25 0
BBX 14 27 0 -4
BITMAP
0014
0014
0014
0014
0014
0014
0014
0014
0014
0014
0014
0014
FFF4
0004
FFF4
0014
0014
0014
0014
0014
0014
0014
0014
0014
0014
0014
0014
ENDCHAR
STARTCHAR 2564
ENCODING 9572
SWIDTH 1000 0
DWIDTH 25 0
BBX 25 15 0 -4
BITMAP
FFFFFF80
00000000
FFFFFF80
00080000
00080000
00080000
00080000
00080000
00080000
00080000
00080000
00080000
00080000
00080000
00080000
ENDCHAR
STARTCHAR 2565
ENCODING 9573
SWIDTH 1000 0
DWIDTH 25 0
BBX 25 14 0 -4
BITMAP
FFFFFF80
00140000
00140000
00140000
00140000
00140000
00140000
00140000
00140000
00140000
00140000
00140000
00140000
00140000
ENDCHAR
STARTCHAR 2566
ENCODING 9574
SWIDTH 1000 0
DWIDTH 25 0
BBX 25 15 0 -4
BITMAP
FFFFFF80
00000000
FFF7FF80
00140000
00140000
00140000
00140000
00140000
00140000
00140000
00140000
00140000
00140000
00140000
00140000
ENDCHAR
STARTCHAR 2567
ENCODING 9575
SWIDTH 1000 0
DWIDTH 25 0
BBX 25 15 0 8
BITMAP
00080000
00080000
00080000
00080000
00080000
00080000
00080000
00080000
00080000
00080000
00080000
00080000
FFFFFF80
00000000
FFFFFF80
ENDCHAR
STARTCHAR 2568
ENCODING 9576
SWIDTH 1000 0
DWIDTH 25 0
BBX 25 14 0 9
BITMAP
00140000
00140000
00140000
00140000
00140000
00140000
00140000
00140000
00140000
00140000
00140000
00140000
00140000
FFFFFF80
ENDCHAR
STARTCHAR 2569
ENCODING 9577
SWIDTH 1000 0
DWIDTH 25 0
BBX 25 15 0 8
BITMAP
00140000
00140000
00140000
00140000
00140000
00140000
00140000
00140000
00140000
00140000
00140000
00140000
FFF7FF80
00000000
FFFFFF80
ENDCHAR
STARTCHAR 256A
ENCODING 9578
SWIDTH 1000 0
DWIDTH 25 0
BBX 25 27 0 -4
BITMAP
00080000
00080000
00080000
00080000
00080000
00080000
00080000
00080000
00080000
00080000
00080000
00080000
FFFFFF80
00080000
FFFFFF80
00080000
00080000
00080000
00080000
00080000
00080000
00080000
00080000
00080000
00080000
00080000
00080000
ENDCHAR
STARTCHAR 256B
ENCODING 9579
SWIDTH 1000 0
DWIDTH 25 0
BBX 25 27 0 -4
BITMAP
00140000
00140000
00140000
00140000
00140000
00140000
00140000
00140000
00140000
00140000
00140000
00140000
00140000
FFFFFF80
00140000
00140000
00140000
00140000
00140000
00140000
00140000
00140000
00140000
00140000
00140000
00140000
00140000
ENDCHAR
STARTCHAR 256C
ENCODING 9580
SWIDTH 1000 0
DWIDTH 25 0
BBX 25 27 0 -4
BITMAP
00140000
00140000
00140000
00140000
00140000
00140000
00140000
00140000
00140000
00140000
00140000
00140000
FFF7FF80
00000000
FFF7FF80
00140000
00140000
00140000
00140000
00140000
00140000
00140000
00140000
00140000
00140000
00140000
00140000
ENDCHAR
STARTCHAR 256D
ENCODING 9581
SWIDTH 1000 0
DWIDTH 25 0
BBX 13 14 12 -4
BITMAP
0078
01C0
0600
0C00
1800
3000
2000
4000
4000
4000
8000
8000
8000
8000
ENDCHAR
STARTCHAR 256E
ENCODING 9582
SWIDTH 1000 0
DWIDTH 25 0
BBX 13 14 0 -4
BITMAP
E000
1C00
0300
0180
00C0
0040
0020
0030
0010
0010
0008
0008
0008
0008
ENDCHAR
STARTCHAR 256F
ENCODING 9583
SWIDTH 1000 0
DWIDTH 25 0
BBX 13 14 0 9
BITMAP
0008
0008
0008
0008
0010
0010
0030
0020
0040
00C0
0180
0300
1C00
F000
ENDCHAR
STARTCHAR 2570
ENCODING 9584
SWIDTH 1000 0
DWIDTH 25 0
BBX 13 14 12 9
BITMAP
8000
8000
8000
8000
4000
4000
4000
2000
3000
1800
0C00
0600
01C0
0038
ENDCHAR
STARTCHAR 2571
ENCODING 9585
SWIDTH 1000 0
DWIDTH 25 0
BBX 25 25 0 -3
BITMAP
00000080
00000100
00000200
00000400
00000800
00001000
00002000
00004000
00008000
00010000
00020000
00040000
00080000
00100000
00200000
00400000
00800000
01000000
02000000
04000000
08000000
10000000
20000000
40000000
80000000
ENDCHAR
STARTCHAR 2572
ENCODING 9586
SWIDTH 1000 0
DWIDTH 25 0
BBX 25 25 0 -3
BITMAP
80000000
40000000
20000000
10000000
08000000
04000000
02000000
01000000
00800000
00400000
00200000
00100000
00080000
00040000
00020000
00010000
00008000
00004000
00002000
00001000
00000800
00000400
00000200
00000100
00000080
ENDCHAR
STARTCHAR 2573
ENCODING 9587
SWIDTH 1000 0
DWIDTH 25 0
BBX 25 25 0 -3
BITMAP
80000080
40000100
20000200
10000400
08000800
04001000
02002000
01004000
00808000
00410000
00220000
00140000
00080000
00140000
00220000
00410000
00808000
01004000
02002000
04001000
08000800
10000400
20000200
40000100
80000080
ENDCHAR
STARTCHAR 2574
ENCODING 9588
SWIDTH 1000 0
DWIDTH 25 0
BBX 13 1 0 9
BITMAP
FFF8
ENDCHAR
STARTCHAR 2575
ENCODING 9589
SWIDTH 1000 0
DWIDTH 25 0
BBX 1 13 12 9
BITMAP
80
80
80
80
80
80
80
80
80
80
80
80
80
ENDCHAR
STARTCHAR 2576
ENCODING 9590
SWIDTH 1000 0
DWIDTH 25 0
BBX 13 1 12 9
BITMAP
FFF8
ENDCHAR
STARTCHAR 2577
ENCODING 9591
SWIDTH 1000 0
DWIDTH 25 0
BBX 1 13 12 -3
BITMAP
80
80
80
80
80
80
80
80
80
80
80
80
80
ENDCHAR
STARTCHAR 2578
ENCODING 9592
SWIDTH 1000 0
DWIDTH 25 0
BBX 13 3 0 8
BITMAP
FFF8
FFF8
FFF8
ENDCHAR
STARTCHAR 2579
ENCODING 9593
SWIDTH 1000 0
DWIDTH 25 0
BBX 3 13 11 9
BITMAP
E0
E0
E0
E0
E0
E0
E0
E0
E0
E0
E0
E0
E0
ENDCHAR
STARTCHAR 257A
ENCODING 9594
SWIDTH 1000 0
DWIDTH 25 0
BBX 13 3 12 8
BITMAP
FFF8
FFF8
FFF8
ENDCHAR
STARTCHAR 257B
ENCODING 9595
SWIDTH 1000 0
DWIDTH 25 0
BBX 3 13 11 -3
BITMAP
E0
E0
E0
E0
E0
E0
E0
E0
E0
E0
E0
E0
E0
ENDCHAR
STARTCHAR 257C
ENCODING 9596
SWIDTH 1000 0
DWIDTH 25 0
BBX 25 3 0 8
BITMAP
000FFF80
FFFFFF80
000FFF80
ENDCHAR
STARTCHAR 257D
ENCODING 9597
SWIDTH 1000 0
DWIDTH 25 0
BBX 3 25 11 -3
BITMAP
40
40
40
40
40
40
40
40
40
40
40
40
E0
E0
E0
E0
E0
E0
E0
E0
E0
E0
E0
E0
E0
ENDCHAR
STARTCHAR 257E
ENCODING 9598
SWIDTH 1000 0
DWIDTH 25 0
BBX 25 3 0 8
BITMAP
FFF80000
FFFFFF80
FFF80000
ENDCHAR
STARTCHAR 257F
ENCODING 9599
SWIDTH 1000 0
DWIDTH 25 0
BBX 3 25 11 -3
BITMAP
E0
E0
E0
E0
E0
E0
E0
E0
E0
E0
E0
E0
E0
40
40
40
40
40
40
40
40
40
40
40
40
ENDCHAR
STARTCHAR 2580
ENCODING 9600
SWIDTH 1000 0
DWIDTH 25 0
BBX 25 13 0 9
BITMAP
FFFFFF80
FFFFFF80
FFFFFF80
FFFFFF80
FFFFFF80
FFFFFF80
FFFFFF80
FFFFFF80
FFFFFF80
FFFFFF80
FFFFFF80
FFFFFF80
FFFFFF80
ENDCHAR
STARTCHAR 2581
ENCODING 9601
SWIDTH 1000 0
DWIDTH 25 0
BBX 25 3 0 -3
BITMAP
FFFFFF80
FFFFFF80
FFFFFF80
ENDCHAR
STARTCHAR 2582
ENCODING 9602
SWIDTH 1000 0
DWIDTH 25 0
BBX 25 6 0 -3
BITMAP
FFFFFF80
FFFFFF80
FFFFFF80
FFFFFF80
FFFFFF80
FFFFFF80
ENDCHAR
STARTCHAR 2583
ENCODING 9603
SWIDTH 1000 0
DWIDTH 25 0
BBX 25 9 0 -3
BITMAP
FFFFFF80
FFFFFF80
FFFFFF80
FFFFFF80
FFFFFF80
FFFFFF80
FFFFFF80
FFFFFF80
FFFFFF80
ENDCHAR
STARTCHAR 2584
ENCODING 9604
SWIDTH 1000 0
DWIDTH 25 0
BBX 25 12 0 -3
BITMAP
FFFFFF80
FFFFFF80
FFFFFF80
FFFFFF80
FFFFFF80
FFFFFF80
FFFFFF80
FFFFFF80
FFFFFF80
FFFFFF80
FFFFFF80
FFFFFF80
ENDCHAR
STARTCHAR 2585
ENCODING 9605
SWIDTH 1000 0
DWIDTH 25 0
BBX 25 16 0 -3
BITMAP
FFFFFF80
FFFFFF80
FFFFFF80
FFFFFF80
FFFFFF80
FFFFFF80
FFFFFF80
FFFFFF80
FFFFFF80
FFFFFF80
FFFFFF80
FFFFFF80
FFFFFF80
FFFFFF80
FFFFFF80
FFFFFF80
ENDCHAR
STARTCHAR 2586
ENCODING 9606
SWIDTH 1000 0
DWIDTH 25 0
BBX 25 19 0 -3
BITMAP
FFFFFF80
FFFFFF80
FFFFFF80
FFFFFF80
FFFFFF80
FFFFFF80
FFFFFF80
FFFFFF80
FFFFFF80
FFFFFF80
FFFFFF80
FFFFFF80
FFFFFF80
FFFFFF80
FFFFFF80
FFFFFF80
FFFFFF80
FFFFFF80
FFFFFF80
ENDCHAR
STARTCHAR 2587
ENCODING 9607
SWIDTH 1000 0
DWIDTH 25 0
BBX 25 22 0 -3
BITMAP
FFFFFF80
FFFFFF80
FFFFFF80
FFFFFF80
FFFFFF80
FFFFFF80
FFFFFF80
FFFFFF80
FFFFFF80
FFFFFF80
FFFFFF80
FFFFFF80
FFFFFF80
FFFFFF80
FFFFFF80
FFFFFF80
FFFFFF80
FFFFFF80
FFFFFF80
FFFFFF80
FFFFFF80
FFFFFF80
ENDCHAR
STARTCHAR 2588
ENCODING 9608
SWIDTH 1000 0
DWIDTH 25 0
BBX 25 25 0 -3
BITMAP
FFFFFF80
FFFFFF80
FFFFFF80
FFFFFF80
FFFFFF80
FFFFFF80
FFFFFF80
FFFFFF80
FFFFFF80
FFFFFF80
FFFFFF80
FFFFFF80
FFFFFF80
FFFFFF80
FFFFFF80
FFFFFF80
FFFFFF80
FFFFFF80
FFFFFF80
FFFFFF80
FFFFFF80
FFFFFF80
FFFFFF80
FFFFFF80
FFFFFF80
ENDCHAR
STARTCHAR 2589
ENCODING 9609
SWIDTH 1000 0
DWIDTH 25 0
BBX 22 25 0 -3
BITMAP
FFFFFC
FFFFFC
FFFFFC
FFFFFC
FFFFFC
FFFFFC
FFFFFC
FFFFFC
FFFFFC
FFFFFC
FFFFFC
FFFFFC
FFFFFC
FFFFFC
FFFFFC
FFFFFC
FFFFFC
FFFFFC
FFFFFC
FFFFFC
FFFFFC
FFFFFC
FFFFFC
FFFFFC
FFFFFC
ENDCHAR
STARTCHAR 258A
ENCODING 9610
SWIDTH 1000 0
DWIDTH 25 0
BBX 19 25 0 -3
BITMAP
FFFFE0
FFFFE0
FFFFE0
FFFFE0
FFFFE0
FFFFE0
FFFFE0
FFFFE0
FFFFE0
FFFFE0
FFFFE0
FFFFE0
FFFFE0
FFFFE0
FFFFE0
FFFFE0
FFFFE0
FFFFE0
FFFFE0
FFFFE0
FFFFE0
FFFFE0
FFFFE0
FFFFE0
FFFFE0
ENDCHAR
STARTCHAR 258B
ENCODING 9611
SWIDTH 1000 0
DWIDTH 25 0
BBX 16 25 0 -3
BITMAP
FFFF
FFFF
FFFF
FFFF
FFFF
FFFF
FFFF
FFFF
FFFF
FFFF
FFFF
FFFF
FFFF
FFFF
FFFF
FFFF
FFFF
FFFF
FFFF
FFFF
FFFF
FFFF
FFFF
FFFF
FFFF
ENDCHAR
STARTCHAR 258C
ENCODING 9612
SWIDTH 1000 0
DWIDTH 25 0
BBX 12 25 0 -3
BITMAP
FFF0
FFF0
FFF0
FFF0
FFF0
FFF0
FFF0
FFF0
FFF0
FFF0
FFF0
FFF0
FFF0
FFF0
FFF0
FFF0
FFF0
FFF0
FFF0
FFF0
FFF0
FFF0
FFF0
FFF0
FFF0
ENDCHAR
STARTCHAR 258D
ENCODING 9613
SWIDTH 1000 0
DWIDTH 25 0
BBX 9 25 0 -3
BITMAP
FF80
FF80
FF80
FF80
FF80
FF80
FF80
FF80
FF80
FF80
FF80
FF80
FF80
FF80
FF80
FF80
FF80
FF80
FF80
FF80
FF80
FF80
FF80
FF80
FF80
ENDCHAR
STARTCHAR 258E
ENCODING 9614
SWIDTH 1000 0
DWIDTH 25 0
BBX 6 25 0 -3
BITMAP
FC
FC
FC
FC
FC
FC
FC
FC
FC
FC
FC
FC
FC
FC
FC
FC
FC
FC
FC
FC
FC
FC
FC
FC
FC
ENDCHAR
STARTCHAR 258F
ENCODING 9615
SWIDTH 1000 0
DWIDTH 25 0
BBX 3 25 0 -3
BITMAP
E0
E0
E0
E0
E0
E0
E0
E0
E0
E0
E0
E0
E0
E0
E0
E0
E0
E0
E0
E0
E0
E0
E0
E0
E0
ENDCHAR
STARTCHAR 2590
ENCODING 9616
SWIDTH 1000 0
DWIDTH 25 0
BBX 13 25 12 -3
BITMAP
FFF8
FFF8
FFF8
FFF8
FFF8
FFF8
FFF8
FFF8
FFF8
FFF8
FFF8
FFF8
FFF8
FFF8
FFF8
FFF8
FFF8
FFF8
FFF8
FFF8
FFF8
FFF8
FFF8
FFF8
FFF8
ENDCHAR
STARTCHAR 2591
ENCODING 9617
SWIDTH 1000 0
DWIDTH 25 0
BBX 25 25 0 -3
BITMAP
C0060000
20030000
10018000
0800C000
04006000
02003000
01001800
00800800
00400400
00200200
00100100
00080080
80040000
40020000
20010000
10008000
0800C000
04006000
02003000
01001800
00800C00
00400600
00200300
00100180
80080080
ENDCHAR
STARTCHAR 2592
ENCODING 9618
SWIDTH 1000 0
DWIDTH 25 0
BBX 25 25 0 -3
BITMAP
C1061800
20830400
10418200
0820C100
04106080
82083000
41041800
60820800
30410400
18208200
0C104100
06082080
83041000
41820800
20C10400
10608200
0820C100
04106080
82083000
41041800
20820C00
10410600
08208300
04104180
86082080
ENDCHAR
STARTCHAR 2593
ENCODING 9619
SWIDTH 1000 0
DWIDTH 25 0
BBX 25 25 0 -3
BITMAP
C936DB00
249B2480
924DB200
4924D900
24926C80
92493600
49249B00
64924980
B2492480
D9249200
6C924900
36492480
93649200
49B24900
24D92480
926C9200
4926C900
24936480
9249B600
4924DB00
24926D80
92492680
C9249300
64924980
B6492680
ENDCHAR
STARTCHAR 2594
ENCODING 9620
SWIDTH 1000 0
DWIDTH 25 0
BBX 25 3 0 19
BITMAP
FFFFFF80
FFFFFF80
FFFFFF80
ENDCHAR
STARTCHAR 2595
ENCODING 9621
SWIDTH 1000 0
DWIDTH 25 0
BBX 3 25 22 -3
BITMAP
E0
E0
E0
E0
E0
E0
E0
E0
E0
E0
E0
E0
E0
E0
E0
E0
E0
E0
E0
E0
E0
E0
E0
E0
E0
ENDCHAR
STARTCHAR 2596
ENCODING 9622
SWIDTH 1000 0
DWIDTH 25 0
BBX 12 12 0 -3
BITMAP
FFF0
FFF0
FFF0
FFF0
FFF0
FFF0
FFF0
FFF0
FFF0
FFF0
FFF0
FFF0
ENDCHAR
STARTCHAR 2597
ENCODING 9623
SWIDTH 1000 0
DWIDTH 25 0
BBX 13 12 12 -3
BITMAP
FFF8
FFF8
FFF8
FFF8
FFF8
FFF8
FFF8
FFF8
FFF8
FFF8
FFF8
FFF8
ENDCHAR
STARTCHAR 2598
ENCODING 9624
SWIDTH 1000 0
DWIDTH 25 0
BBX 12 13 0 9
BITMAP
FFF0
FFF0
FFF0
FFF0
FFF0
FFF0
FFF0
FFF0
FFF0
FFF0
FFF0
FFF0
FFF0
ENDCHAR
STARTCHAR 2599
ENCODING 9625
SWIDTH 1000 0
DWIDTH 25 0
BBX 25 25 0 -3
BITMAP
FFF00000
FFF00000
FFF00000
FFF00000
FFF00000
FFF00000
FFF00000
FFF00000
FFF00000
FFF00000
FFF00000
FFF00000
FFFFFF80
FFFFFF80
FFFFFF80
FFFFFF80
FFFFFF80
FFFFFF80
FFFFFF80
FFFFFF80
FFFFFF80
FFFFFF80
FFFFFF80
FFFFFF80
FFFFFF80
ENDCHAR
STARTCHAR 259A
ENCODING 9626
SWIDTH 1000 0
DWIDTH 25 0
BBX 25 25 0 -3
BITMAP
FFF00000
FFF00000
FFF00000
FFF00000
FFF00000
FFF00000
FFF00000
FFF00000
FFF00000
FFF00000
FFF00000
FFF00000
FFFFFF80
000FFF80
000FFF80
000FFF80
000FFF80
000FFF80
000FFF80
000FFF80
000FFF80
000FFF80
000FFF80
000FFF80
000FFF80
ENDCHAR
STARTCHAR 259B
ENCODING 9627
SWIDTH 1000 0
DWIDTH 25 0
BBX 25 25 0 -3
BITMAP
FFFFFF80
FFFFFF80
FFFFFF80
FFFFFF80
FFFFFF80
FFFFFF80
FFFFFF80
FFFFFF80
FFFFFF80
FFFFFF80
FFFFFF80
FFFFFF80
FFFFFF80
FFF00000
FFF00000
FFF00000
FFF00000
FFF00000
FFF00000
FFF00000
FFF00000
FFF00000
FFF00000
FFF00000
FFF00000
ENDCHAR
STARTCHAR 259C
ENCODING 9628
SWIDTH 1000 0
DWIDTH 25 0
BBX 25 25 0 -3
BITMAP
FFFFFF80
FFFFFF80
FFFFFF80
FFFFFF80
FFFFFF80
FFFFFF80
FFFFFF80
FFFFFF80
FFFFFF80
FFFFFF80
FFFFFF80
FFFFFF80
FFFFFF80
000FFF80
000FFF80
000FFF80
000FFF80
000FFF80
000FFF80
000FFF80
000FFF80
000FFF80
000FFF80
000FFF80
000FFF80
ENDCHAR
STARTCHAR 259D
ENCODING 9629
SWIDTH 1000 0
DWIDTH 25 0
BBX 13 13 12 9
BITMAP
FFF8
FFF8
FFF8
FFF8
FFF8
FFF8
FFF8
FFF8
FFF8
FFF8
FFF8
FFF8
FFF8
ENDCHAR
STARTCHAR 259E
ENCODING 9630
SWIDTH 1000 0
DWIDTH 25 0
BBX 25 25 0 -3
BITMAP
000FFF80
000FFF80
000FFF80
000FFF80
000FFF80
000FFF80
000FFF80
000FFF80
000FFF80
000FFF80
000FFF80
000FFF80
FFFFFF80
FFF00000
FFF00000
FFF00000
FFF00000
FFF00000
FFF00000
FFF00000
FFF00000
FFF00000
FFF00000
FFF00000
FFF00000
ENDCHAR
STARTCHAR 259F
ENCODING 9631
SWIDTH 1000 0
DWIDTH 25 0
BBX 25 25 0 -3
BITMAP
000FFF80
000FFF80
000FFF80
000FFF80
000FFF80
000FFF80
000FFF80
000FFF80
000FFF80
000FFF80
000FFF80
000FFF80
FFFFFF80
FFFFFF80
FFFFFF80
FFFFFF80
FFFFFF80
FFFFFF80
FFFFFF80
FFFFFF80
FFFFFF80
FFFFFF80
FFFFFF80
FFFFFF80
FFFFFF80
ENDCHAR
STARTCHAR 25A0
ENCODING 9632
SWIDTH 1000 0
DWIDTH 25 0
BBX 20 20 2 0
BITMAP
FFFFF0
FFFFF0
FFFFF0
FFFFF0
FFFFF0
FFFFF0
FFFFF0
FFFFF0
FFFFF0
FFFFF0
FFFFF0
FFFFF0
FFFFF0
FFFFF0
FFFFF0
FFFFF0
FFFFF0
FFFFF0
FFFFF0
FFFFF0
ENDCHAR
STARTCHAR 25A1
ENCODING 9633
SWIDTH 1000 0
DWIDTH 25 0
BBX 20 21 2 -1
BITMAP
FFFFF0
800010
800010
800010
800010
800010
800010
800010
800010
800010
800010
800010
800010
800010
800010
800010
800010
800010
800010
800010
FFFFF0
ENDCHAR
STARTCHAR 25A2
ENCODING 9634
SWIDTH 1000 0
DWIDTH 25 0
BBX 23 25 1 -3
BITMAP
7FFFFC
800002
800002
800002
800002
800002
800002
800002
800002
800002
800002
800002
800002
800002
800002
800002
800002
800002
800002
800002
800002
800002
800002
800002
7FFFFC
ENDCHAR
STARTCHAR 25A3
ENCODING 9635
SWIDTH 1000 0
DWIDTH 25 0
BBX 20 21 2 -1
BITMAP
FFFFF0
800010
800010
800010
800010
800010
83FE10
83FE10
83FE10
83FE10
83FE10
83FE10
83FE10
83FE10
83FE10
800010
800010
800010
800010
800010
FFFFF0
ENDCHAR
STARTCHAR 25A4
ENCODING 9636
SWIDTH 1000 0
DWIDTH 25 0
BBX 20 21 2 -1
BITMAP
FFFFF0
800010
800010
800010
800010
FFFFF0
800010
800010
800010
800010
FFFFF0
800010
800010
800010
800010
FFFFF0
800010
800010
800010
800010
FFFFF0
ENDCHAR
STARTCHAR 25A5
ENCODING 9637
SWIDTH 1000 0
DWIDTH 25 0
BBX 20 21 2 -1
BITMAP
FFFFF0
842110
842110
842110
842110
842110
842110
842110
842110
842110
842110
842110
842110
842110
842110
842110
842110
842110
842110
842110
FFFFF0
ENDCHAR
ENDFONT
